<svg width="115" height="28" viewBox="0 0 115 28" fill="none" xmlns="http://www.w3.org/2000/svg">
<path d="M17.975 17.25C17.8583 17.2833 17.6917 17.25 17.475 17.15C17.2583 17.0333 17.0583 16.9083 16.875 16.775C16.6917 16.625 16.5417 16.475 16.425 16.325C16.325 16.175 16.3167 16.0583 16.4 15.975C17.8 15.6583 19.2083 15.3667 20.625 15.1C22.0417 14.8167 23.475 14.6 24.925 14.45C26.0083 13.45 27.0667 12.4583 28.1 11.475C29.1333 10.475 30.1083 9.51667 31.025 8.6C31.9583 7.66667 32.825 6.79167 33.625 5.975C34.425 5.14167 35.1333 4.39167 35.75 3.725C36.3833 3.05833 36.9083 2.49167 37.325 2.025C37.7417 1.54167 38.0333 1.18333 38.2 0.949998C38.3167 0.899999 38.5 0.949999 38.75 1.1C39.0167 1.23333 39.275 1.4 39.525 1.6C39.775 1.8 39.9833 2.00833 40.15 2.225C40.3167 2.425 40.3667 2.56667 40.3 2.65L40.175 2.75C40.2583 2.78333 40.3 2.825 40.3 2.875C40.1167 3.35833 39.8583 3.94167 39.525 4.625C39.1917 5.29167 38.8 6.025 38.35 6.825C37.9167 7.625 37.4417 8.475 36.925 9.375C36.4083 10.275 35.8833 11.1833 35.35 12.1C34.5 13.55 33.6583 15.0083 32.825 16.475C31.9917 17.925 31.2583 19.2833 30.625 20.55C30.0083 21.8 29.5417 22.9 29.225 23.85C28.925 24.8 28.875 25.4917 29.075 25.925C29.2083 26.2083 29.3417 26.4 29.475 26.5H29.425C29.5417 26.5833 29.5917 26.6667 29.575 26.75C29.575 26.85 29.5333 26.9333 29.45 27C29.3833 27.0667 29.2833 27.1083 29.15 27.125C29.0333 27.1583 28.9083 27.15 28.775 27.1C27.875 27.0333 27.25 26.75 26.9 26.25C26.5667 25.7667 26.4 25.2 26.4 24.55C26.4 24.25 26.425 23.9417 26.475 23.625C26.5417 23.2917 26.6167 22.9667 26.7 22.65C26.7833 22.3333 26.875 22.0333 26.975 21.75C27.075 21.4667 27.1667 21.2083 27.25 20.975C27.65 20.0417 28.1 19.1 28.6 18.15C29.1167 17.2 29.6667 16.2333 30.25 15.25C29.9333 15.2333 29.625 15.225 29.325 15.225C29.025 15.2083 28.7333 15.2 28.45 15.2C28.1667 15.2 27.8833 15.2083 27.6 15.225C27.3333 15.225 27.0667 15.2333 26.8 15.25L25.675 16.275L24.4 17.475C23.25 18.5583 22.0333 19.675 20.75 20.825C19.4833 21.975 18.1667 23.0333 16.8 24C15.45 24.95 14.0667 25.7417 12.65 26.375C11.2333 27.025 9.8 27.3833 8.35 27.45C7 27.5167 5.825 27.375 4.825 27.025C3.84167 26.6917 3.025 26.2167 2.375 25.6C1.74167 25 1.26667 24.2917 0.95 23.475C0.633333 22.6583 0.475 21.8 0.475 20.9C0.475 19.9 0.666667 18.9 1.05 17.9C1.45 16.8833 2.025 15.9667 2.775 15.15C3.54167 14.3333 4.475 13.675 5.575 13.175C6.69167 12.6583 7.975 12.3833 9.425 12.35C10.5917 12.3333 11.5833 12.5583 12.4 13.025C13.2167 13.475 13.8583 14.1417 14.325 15.025H14.35C14.3833 15.1583 14.3833 15.35 14.35 15.6C14.3167 15.85 14.2583 16.0917 14.175 16.325C14.0917 16.5417 13.9917 16.7083 13.875 16.825C13.7583 16.925 13.6333 16.9 13.5 16.75C13.3167 16.4667 13.0833 16.1583 12.8 15.825C12.5167 15.475 12.2 15.1583 11.85 14.875C11.5 14.5917 11.1083 14.35 10.675 14.15C10.2583 13.95 9.80833 13.85 9.325 13.85C8.175 13.8167 7.15 14 6.25 14.4C5.35 14.7833 4.59167 15.3083 3.975 15.975C3.35833 16.625 2.88333 17.3667 2.55 18.2C2.23333 19.0333 2.075 19.8667 2.075 20.7C2.075 21.3833 2.18333 22.0417 2.4 22.675C2.63333 23.3083 2.975 23.8667 3.425 24.35C3.89167 24.8333 4.475 25.2167 5.175 25.5C5.875 25.8 6.7 25.95 7.65 25.95C7.78333 25.95 7.90833 25.95 8.025 25.95C8.15833 25.95 8.29167 25.9417 8.425 25.925C9.54167 25.8583 10.7083 25.5167 11.925 24.9C13.1417 24.2833 14.4 23.5 15.7 22.55C17 21.5833 18.325 20.5 19.675 19.3C21.025 18.0833 22.3833 16.8333 23.75 15.55C21.9 15.85 19.9917 16.4167 18.025 17.25H17.975ZM31.175 11.05C30.6583 11.5667 30.1167 12.1 29.55 12.65C28.9833 13.2 28.4167 13.7417 27.85 14.275C28 14.2583 28.15 14.25 28.3 14.25C28.45 14.25 28.6083 14.25 28.775 14.25C29.125 14.25 29.4667 14.2583 29.8 14.275C30.1333 14.275 30.4667 14.2833 30.8 14.3C31.3667 13.35 31.95 12.4083 32.55 11.475C33.15 10.5417 33.75 9.6 34.35 8.65L35.45 6.95C34.7167 7.63333 33.9917 8.31667 33.275 9C32.575 9.68333 31.875 10.3667 31.175 11.05ZM39.3945 14.2C40.1279 13.6667 40.8945 13.2333 41.6945 12.9C42.5112 12.5667 43.2945 12.4417 44.0445 12.525C44.5445 12.5917 44.9612 12.725 45.2945 12.925C45.6445 13.1083 45.9195 13.3333 46.1195 13.6C46.3362 13.8667 46.4862 14.1667 46.5695 14.5C46.6529 14.8333 46.6945 15.175 46.6945 15.525C46.6945 15.8083 46.6612 16.1167 46.5945 16.45C46.5445 16.7833 46.4695 17.1083 46.3695 17.425C46.0862 18.3583 45.6779 19.275 45.1445 20.175C44.6279 21.0583 44.0195 21.85 43.3195 22.55C42.6195 23.25 41.8445 23.8167 40.9945 24.25C40.1445 24.6833 39.2612 24.9083 38.3445 24.925C37.6445 24.9417 37.0695 24.8417 36.6195 24.625C36.1695 24.4083 35.8195 24.1417 35.5695 23.825C35.5362 23.9917 35.5112 24.1583 35.4945 24.325C35.4945 24.4917 35.4862 24.6667 35.4695 24.85C35.4529 25 35.3195 25.0583 35.0695 25.025C34.8195 24.9917 34.5529 24.9167 34.2695 24.8C33.9862 24.6667 33.7195 24.5083 33.4695 24.325C33.2195 24.1417 33.0862 23.9667 33.0695 23.8C33.1195 22.9333 33.2612 22.05 33.4945 21.15C33.7279 20.2333 34.0195 19.3167 34.3695 18.4C34.7362 17.4667 35.1445 16.5333 35.5945 15.6C36.0445 14.6667 36.4945 13.7417 36.9445 12.825L37.6695 11.35C38.2195 10.2167 38.7362 9.075 39.2195 7.925C39.7029 6.775 40.0612 5.76667 40.2945 4.9C40.5112 4.8 40.7862 4.79167 41.1195 4.875C41.4695 4.95833 41.7945 5.1 42.0945 5.3C42.4112 5.5 42.6695 5.74167 42.8695 6.025C43.0695 6.30833 43.1279 6.59167 43.0445 6.875C42.9612 7.09167 42.8195 7.40833 42.6195 7.825C42.4195 8.24167 42.1945 8.70833 41.9445 9.225C41.6945 9.74167 41.4279 10.2833 41.1445 10.85C40.8612 11.4167 40.5862 11.9583 40.3195 12.475L39.3945 14.2ZM37.8695 17.075C37.3695 18.075 36.9195 19.1 36.5195 20.15C36.4695 20.4333 36.4445 20.7333 36.4445 21.05C36.4445 21.5333 36.5362 21.9833 36.7195 22.4C36.9029 22.8167 37.2362 23.0417 37.7195 23.075C38.1029 23.1083 38.5195 22.9917 38.9695 22.725C39.4362 22.4583 39.8945 22.1083 40.3445 21.675C40.8112 21.225 41.2529 20.7083 41.6695 20.125C42.1029 19.5417 42.4862 18.9583 42.8195 18.375C43.1529 17.775 43.4195 17.1917 43.6195 16.625C43.8195 16.0583 43.9195 15.5667 43.9195 15.15C43.9195 14.7667 43.8529 14.475 43.7195 14.275C43.5862 14.0583 43.3779 13.9417 43.0945 13.925C42.7112 13.9083 42.2862 13.9833 41.8195 14.15C41.3529 14.3 40.8862 14.5167 40.4195 14.8C39.9529 15.0833 39.4945 15.425 39.0445 15.825C38.6112 16.2083 38.2195 16.625 37.8695 17.075ZM52.1631 14.2C52.8964 13.6667 53.6631 13.2333 54.4631 12.9C55.2798 12.5667 56.0631 12.4417 56.8131 12.525C57.3131 12.5917 57.7298 12.725 58.0631 12.925C58.4131 13.1083 58.6881 13.3333 58.8881 13.6C59.1048 13.8667 59.2548 14.1667 59.3381 14.5C59.4214 14.8333 59.4631 15.175 59.4631 15.525C59.4631 15.8083 59.4298 16.1167 59.3631 16.45C59.3131 16.7833 59.2381 17.1083 59.1381 17.425C58.8548 18.3583 58.4464 19.275 57.9131 20.175C57.3964 21.0583 56.7881 21.85 56.0881 22.55C55.3881 23.25 54.6131 23.8167 53.7631 24.25C52.9131 24.6833 52.0298 24.9083 51.1131 24.925C50.4131 24.9417 49.8381 24.8417 49.3881 24.625C48.9381 24.4083 48.5881 24.1417 48.3381 23.825C48.3048 23.9917 48.2798 24.1583 48.2631 24.325C48.2631 24.4917 48.2548 24.6667 48.2381 24.85C48.2214 25 48.0881 25.0583 47.8381 25.025C47.5881 24.9917 47.3214 24.9167 47.0381 24.8C46.7548 24.6667 46.4881 24.5083 46.2381 24.325C45.9881 24.1417 45.8548 23.9667 45.8381 23.8C45.8881 22.9333 46.0298 22.05 46.2631 21.15C46.4964 20.2333 46.7881 19.3167 47.1381 18.4C47.5048 17.4667 47.9131 16.5333 48.3631 15.6C48.8131 14.6667 49.2631 13.7417 49.7131 12.825L50.4381 11.35C50.9881 10.2167 51.5048 9.075 51.9881 7.925C52.4714 6.775 52.8298 5.76667 53.0631 4.9C53.2798 4.8 53.5548 4.79167 53.8881 4.875C54.2381 4.95833 54.5631 5.1 54.8631 5.3C55.1798 5.5 55.4381 5.74167 55.6381 6.025C55.8381 6.30833 55.8964 6.59167 55.8131 6.875C55.7298 7.09167 55.5881 7.40833 55.3881 7.825C55.1881 8.24167 54.9631 8.70833 54.7131 9.225C54.4631 9.74167 54.1964 10.2833 53.9131 10.85C53.6298 11.4167 53.3548 11.9583 53.0881 12.475L52.1631 14.2ZM50.6381 17.075C50.1381 18.075 49.6881 19.1 49.2881 20.15C49.2381 20.4333 49.2131 20.7333 49.2131 21.05C49.2131 21.5333 49.3048 21.9833 49.4881 22.4C49.6714 22.8167 50.0048 23.0417 50.4881 23.075C50.8714 23.1083 51.2881 22.9917 51.7381 22.725C52.2048 22.4583 52.6631 22.1083 53.1131 21.675C53.5798 21.225 54.0214 20.7083 54.4381 20.125C54.8714 19.5417 55.2548 18.9583 55.5881 18.375C55.9214 17.775 56.1881 17.1917 56.3881 16.625C56.5881 16.0583 56.6881 15.5667 56.6881 15.15C56.6881 14.7667 56.6214 14.475 56.4881 14.275C56.3548 14.0583 56.1464 13.9417 55.8631 13.925C55.4798 13.9083 55.0548 13.9833 54.5881 14.15C54.1214 14.3 53.6548 14.5167 53.1881 14.8C52.7214 15.0833 52.2631 15.425 51.8131 15.825C51.3798 16.2083 50.9881 16.625 50.6381 17.075ZM69.1316 15.8C68.415 17.1 67.4566 18.1917 66.2566 19.075C65.0566 19.9417 63.7066 20.5917 62.2066 21.025V21.225C62.2066 21.7583 62.3066 22.2833 62.5066 22.8C62.7233 23.3 63.0566 23.625 63.5066 23.775C63.8233 23.8417 64.2066 23.8167 64.6566 23.7C65.1066 23.5667 65.5816 23.3417 66.0816 23.025C66.5816 22.6917 67.0983 22.2667 67.6316 21.75C68.165 21.2167 68.6816 20.5833 69.1816 19.85C69.4483 19.4667 69.69 19.0917 69.9066 18.725C70.1233 18.3583 70.3233 18.0083 70.5066 17.675C70.6066 17.5417 70.74 17.4583 70.9066 17.425C71.0733 17.3917 71.2233 17.4 71.3566 17.45C71.5066 17.4833 71.6066 17.5583 71.6566 17.675C71.7233 17.7917 71.7066 17.9333 71.6066 18.1L71.1316 18.875C70.7316 19.525 70.24 20.2583 69.6566 21.075C69.0733 21.875 68.365 22.6667 67.5316 23.45C67.065 23.85 66.5983 24.1583 66.1316 24.375C65.665 24.5917 65.215 24.7583 64.7816 24.875C64.365 24.975 63.9816 25.0333 63.6316 25.05C63.2816 25.0667 63.0066 25.075 62.8066 25.075C61.5733 25.075 60.615 24.775 59.9316 24.175C59.2483 23.575 58.8816 22.7583 58.8316 21.725C58.7983 20.775 58.9733 19.8417 59.3566 18.925C59.74 17.9917 60.3566 16.9583 61.2066 15.825C61.4733 15.475 61.8316 15.0917 62.2816 14.675C62.7483 14.2583 63.265 13.8833 63.8316 13.55C64.415 13.2 65.0316 12.9167 65.6816 12.7C66.3316 12.4833 66.9816 12.3833 67.6316 12.4C68.265 12.4167 68.7733 12.5833 69.1566 12.9C69.54 13.2167 69.7316 13.6333 69.7316 14.15C69.7316 14.6333 69.5316 15.1833 69.1316 15.8ZM67.6316 13.675C66.9816 13.8083 66.3566 14.125 65.7566 14.625C65.1733 15.1083 64.6483 15.675 64.1816 16.325C63.7316 16.975 63.34 17.65 63.0066 18.35C62.69 19.05 62.465 19.6667 62.3316 20.2C63.5316 19.7833 64.615 19.1667 65.5816 18.35C66.565 17.5167 67.3733 16.5 68.0066 15.3C68.14 15 68.2066 14.7 68.2066 14.4C68.2066 14.15 68.1566 13.9583 68.0566 13.825C67.9733 13.6917 67.8316 13.6417 67.6316 13.675ZM67.9838 22.125C67.9838 21.5917 68.1255 21.0667 68.4088 20.55C68.6921 20.0167 69.0505 19.5833 69.4838 19.25C69.5838 19.0833 69.6921 18.9167 69.8088 18.75C69.9421 18.5667 70.0505 18.3917 70.1338 18.225C70.5671 17.525 71.0088 16.8333 71.4588 16.15C71.9255 15.45 72.4255 14.75 72.9588 14.05C73.0588 13.9167 73.1505 13.7917 73.2338 13.675C73.3171 13.5583 73.4005 13.4333 73.4838 13.3C73.7505 12.9167 74.0588 12.5083 74.4088 12.075C74.7588 11.6417 75.2671 11.1333 75.9338 10.55C76.1338 10.6333 76.3838 10.7583 76.6838 10.925C76.9838 11.0917 77.2505 11.275 77.4838 11.475C77.7338 11.6583 77.9171 11.85 78.0338 12.05C78.1505 12.2333 78.1255 12.3833 77.9588 12.5H77.9838C77.7505 12.7167 77.5671 12.9083 77.4338 13.075C77.3171 13.2417 77.1671 13.4583 76.9838 13.725L76.6838 14.175C76.3338 14.725 76.0921 15.3167 75.9588 15.95C75.8421 16.5833 75.7838 17.225 75.7838 17.875C75.7838 18.2083 75.7921 18.5417 75.8088 18.875C75.8255 19.2083 75.8505 19.5417 75.8838 19.875L75.9588 21.225C75.9755 21.825 75.8838 22.3833 75.6838 22.9C75.4838 23.4 75.1921 23.825 74.8088 24.175C74.4255 24.525 73.9671 24.7917 73.4338 24.975C72.9005 25.1417 72.3255 25.2083 71.7088 25.175C70.4255 25.075 69.4838 24.7333 68.8838 24.15C68.2838 23.55 67.9838 22.875 67.9838 22.125ZM72.8338 17.9C72.8338 17.6 72.8505 17.3 72.8838 17C72.9171 16.6833 72.9755 16.3583 73.0588 16.025C72.8255 16.3583 72.5921 16.7083 72.3588 17.075C72.1255 17.4417 71.9005 17.8 71.6838 18.15L71.2838 18.775C71.5671 18.825 71.8338 18.9083 72.0838 19.025C72.1338 19.075 72.2005 19.2 72.2838 19.4C72.3671 19.6 72.4421 19.8167 72.5088 20.05C72.5921 20.2833 72.6421 20.5083 72.6588 20.725C72.6921 20.925 72.6671 21.0667 72.5838 21.15C72.1838 20.8167 71.8338 20.65 71.5338 20.65C71.3171 20.65 71.0921 20.6917 70.8588 20.775C70.6421 20.8583 70.4421 20.975 70.2588 21.125C70.0921 21.2583 69.9505 21.425 69.8338 21.625C69.7338 21.825 69.6838 22.05 69.6838 22.3C69.6838 22.45 69.7005 22.6 69.7338 22.75C69.7838 22.9 69.8421 23.0333 69.9088 23.15C70.1088 23.4833 70.3505 23.7333 70.6338 23.9C70.9171 24.05 71.1755 24.1333 71.4088 24.15C71.7088 24.1833 71.9671 24.1333 72.1838 24C72.4005 23.8667 72.5755 23.6917 72.7088 23.475C72.8421 23.2417 72.9421 22.975 73.0088 22.675C73.0755 22.3583 73.1088 22.0333 73.1088 21.7C73.1088 21.4167 73.0921 21.125 73.0588 20.825C73.0421 20.525 73.0171 20.225 72.9838 19.925C72.9505 19.6083 72.9171 19.275 72.8838 18.925C72.8505 18.575 72.8338 18.2333 72.8338 17.9ZM91.584 13.7C91.034 14.7333 90.5007 15.7667 89.984 16.8C89.4673 17.8333 89.0173 18.85 88.634 19.85H88.659C88.459 20.3333 88.284 20.8333 88.134 21.35C87.984 21.85 87.909 22.2917 87.909 22.675C87.909 23.1083 87.959 23.3583 88.059 23.425H88.284C88.734 23.275 89.1673 23.0167 89.584 22.65C90.0007 22.2833 90.4007 21.8667 90.784 21.4C91.1673 20.9167 91.5257 20.4083 91.859 19.875C92.209 19.3417 92.534 18.8333 92.834 18.35C92.9173 18.2333 92.984 18.125 93.034 18.025C93.1007 17.9083 93.1673 17.7917 93.234 17.675C93.284 17.5917 93.384 17.55 93.534 17.55C93.684 17.5333 93.8257 17.55 93.959 17.6C94.109 17.65 94.2257 17.7167 94.309 17.8C94.3923 17.8833 94.4007 17.9833 94.334 18.1C94.234 18.25 94.134 18.4083 94.034 18.575C93.9507 18.725 93.859 18.8833 93.759 19.05C93.2423 19.9 92.6757 20.7583 92.059 21.625C91.4423 22.475 90.7257 23.25 89.909 23.95C89.7923 24.05 89.6423 24.1667 89.459 24.3C89.2757 24.4333 89.0673 24.5583 88.834 24.675C88.6007 24.7917 88.334 24.8917 88.034 24.975C87.7507 25.0417 87.434 25.0667 87.084 25.05C86.2673 24.9833 85.6757 24.7333 85.309 24.3C84.9423 23.8667 84.759 23.35 84.759 22.75V22.4C84.4423 22.7333 84.109 23.05 83.759 23.35C83.4257 23.65 83.0757 23.9167 82.709 24.15C82.359 24.3833 82.0007 24.575 81.634 24.725C81.2673 24.8583 80.9007 24.925 80.534 24.925C79.934 24.875 79.4257 24.7333 79.009 24.5C78.609 24.2667 78.2923 24 78.059 23.7C77.8257 23.3833 77.659 23.05 77.559 22.7C77.459 22.3333 77.409 21.9833 77.409 21.65C77.409 21.5167 77.4173 21.3833 77.434 21.25C77.434 21.1167 77.4423 21 77.459 20.9C77.5257 20.3667 77.684 19.7833 77.934 19.15C78.2007 18.5167 78.5257 17.8833 78.909 17.25C79.309 16.6167 79.7673 16.0083 80.284 15.425C80.8173 14.825 81.3923 14.3 82.009 13.85C82.6257 13.3833 83.2673 13.0167 83.934 12.75C84.6173 12.4667 85.3173 12.325 86.034 12.325C86.484 12.325 86.909 12.375 87.309 12.475C87.8257 12.625 88.2257 12.9083 88.509 13.325L88.859 12.675L89.559 11.35C89.859 10.8 90.1423 10.2333 90.409 9.65C90.6923 9.06667 90.9507 8.49167 91.184 7.925C91.4173 7.35833 91.6173 6.825 91.784 6.325C91.9673 5.80833 92.1173 5.33333 92.234 4.9C92.434 4.8 92.7007 4.79167 93.034 4.875C93.384 4.95833 93.7173 5.1 94.034 5.3C94.3507 5.5 94.609 5.74167 94.809 6.025C95.009 6.30833 95.059 6.59167 94.959 6.875C94.8923 7.05833 94.759 7.35833 94.559 7.775C94.3757 8.19167 94.1507 8.66667 93.884 9.2C93.634 9.71667 93.359 10.2667 93.059 10.85C92.759 11.4333 92.4757 11.975 92.209 12.475L91.559 13.7H91.584ZM82.109 23.075C82.3423 23.025 82.634 22.85 82.984 22.55C83.334 22.25 83.684 21.8917 84.034 21.475C84.4007 21.0583 84.7507 20.625 85.084 20.175C85.434 19.725 85.7173 19.325 85.934 18.975L86.259 18.075C86.459 17.5583 86.6757 17.05 86.909 16.55C87.1423 16.0333 87.3923 15.5167 87.659 15C87.609 14.6667 87.5007 14.3417 87.334 14.025C87.184 13.7083 86.9007 13.5333 86.484 13.5C86.0507 13.4833 85.6257 13.5833 85.209 13.8C84.809 14 84.4173 14.275 84.034 14.625C83.6507 14.975 83.2923 15.375 82.959 15.825C82.6257 16.275 82.3173 16.75 82.034 17.25C81.7673 17.7333 81.534 18.225 81.334 18.725C81.134 19.2083 80.9757 19.6583 80.859 20.075C80.809 20.275 80.759 20.5083 80.709 20.775C80.659 21.0417 80.634 21.3083 80.634 21.575C80.634 21.8083 80.6507 22.0333 80.684 22.25C80.734 22.45 80.8173 22.625 80.934 22.775C81.0507 22.925 81.2007 23.0333 81.384 23.1C81.5673 23.15 81.809 23.1417 82.109 23.075ZM102.139 15.8C101.423 17.1 100.464 18.1917 99.2645 19.075C98.0645 19.9417 96.7145 20.5917 95.2145 21.025V21.225C95.2145 21.7583 95.3145 22.2833 95.5145 22.8C95.7311 23.3 96.0645 23.625 96.5145 23.775C96.8311 23.8417 97.2145 23.8167 97.6645 23.7C98.1145 23.5667 98.5895 23.3417 99.0895 23.025C99.5895 22.6917 100.106 22.2667 100.639 21.75C101.173 21.2167 101.689 20.5833 102.189 19.85C102.456 19.4667 102.698 19.0917 102.914 18.725C103.131 18.3583 103.331 18.0083 103.514 17.675C103.614 17.5417 103.748 17.4583 103.914 17.425C104.081 17.3917 104.231 17.4 104.364 17.45C104.514 17.4833 104.614 17.5583 104.664 17.675C104.731 17.7917 104.714 17.9333 104.614 18.1L104.139 18.875C103.739 19.525 103.248 20.2583 102.664 21.075C102.081 21.875 101.373 22.6667 100.539 23.45C100.073 23.85 99.6061 24.1583 99.1395 24.375C98.6728 24.5917 98.2228 24.7583 97.7895 24.875C97.3728 24.975 96.9895 25.0333 96.6395 25.05C96.2895 25.0667 96.0145 25.075 95.8145 25.075C94.5811 25.075 93.6228 24.775 92.9395 24.175C92.2561 23.575 91.8895 22.7583 91.8395 21.725C91.8061 20.775 91.9811 19.8417 92.3645 18.925C92.7478 17.9917 93.3645 16.9583 94.2145 15.825C94.4811 15.475 94.8395 15.0917 95.2895 14.675C95.7561 14.2583 96.2728 13.8833 96.8395 13.55C97.4228 13.2 98.0395 12.9167 98.6895 12.7C99.3395 12.4833 99.9895 12.3833 100.639 12.4C101.273 12.4167 101.781 12.5833 102.164 12.9C102.548 13.2167 102.739 13.6333 102.739 14.15C102.739 14.6333 102.539 15.1833 102.139 15.8ZM100.639 13.675C99.9895 13.8083 99.3645 14.125 98.7645 14.625C98.1811 15.1083 97.6561 15.675 97.1895 16.325C96.7395 16.975 96.3478 17.65 96.0145 18.35C95.6978 19.05 95.4728 19.6667 95.3395 20.2C96.5395 19.7833 97.6228 19.1667 98.5895 18.35C99.5728 17.5167 100.381 16.5 101.014 15.3C101.148 15 101.214 14.7 101.214 14.4C101.214 14.15 101.164 13.9583 101.064 13.825C100.981 13.6917 100.839 13.6417 100.639 13.675ZM105.492 12.45C105.692 12.35 105.95 12.3583 106.267 12.475C106.6 12.575 106.908 12.7333 107.192 12.95C107.492 13.15 107.733 13.4 107.917 13.7C108.1 13.9833 108.142 14.2667 108.042 14.55C107.975 14.7333 107.867 15 107.717 15.35C107.567 15.7 107.383 16.1083 107.167 16.575C106.867 17.2583 106.533 18.0083 106.167 18.825C105.817 19.625 105.492 20.375 105.192 21.075C104.908 21.775 104.683 22.3667 104.517 22.85C104.35 23.3333 104.308 23.5833 104.392 23.6C104.675 23.55 105.083 23.2833 105.617 22.8C106.15 22.3167 106.733 21.7167 107.367 21C108 20.2833 108.65 19.4917 109.317 18.625C109.983 17.7583 110.592 16.925 111.142 16.125C111.692 15.3083 112.142 14.575 112.492 13.925C112.858 13.2583 113.058 12.7667 113.092 12.45C113.142 12.3667 113.242 12.4 113.392 12.55C113.558 12.6833 113.717 12.8667 113.867 13.1C114.017 13.3167 114.133 13.55 114.217 13.8C114.3 14.0333 114.308 14.2083 114.242 14.325C113.892 14.825 113.458 15.4417 112.942 16.175C112.442 16.9083 111.875 17.6833 111.242 18.5C110.625 19.3 109.958 20.1 109.242 20.9C108.542 21.6833 107.833 22.4 107.117 23.05C106.4 23.6833 105.683 24.2 104.967 24.6C104.25 24.9833 103.575 25.1667 102.942 25.15C102.475 25.15 102.092 25.0167 101.792 24.75C101.475 24.4667 101.317 24.0583 101.317 23.525C101.317 23.3583 101.342 23.15 101.392 22.9C101.442 22.6333 101.517 22.3583 101.617 22.075C101.767 21.6417 101.967 21.1333 102.217 20.55C102.45 19.95 102.708 19.325 102.992 18.675C103.442 17.6083 103.883 16.5167 104.317 15.4C104.75 14.2833 105.083 13.3 105.317 12.45H105.492Z" fill="url(#paint0_linear_30_101)"/>
<defs>
<linearGradient id="paint0_linear_30_101" x1="57" y1="6" x2="57" y2="31" gradientUnits="userSpaceOnUse">
<stop stop-opacity="0.56"/>
<stop offset="0.489583" stop-opacity="0.76"/>
<stop offset="1"/>
</linearGradient>
</defs>
</svg>
