<svg width="30" height="30" viewBox="0 0 30 30" fill="none" xmlns="http://www.w3.org/2000/svg">
<path fill-rule="evenodd" clip-rule="evenodd" d="M8.16438 21.982C7.76007 21.6586 7.69452 21.0686 8.01797 20.6643L12.5494 15L8.01797 9.33562C7.69452 8.93131 7.76007 8.34135 8.16438 8.0179C8.56869 7.69445 9.15865 7.76001 9.4821 8.16431L14.4821 14.4143C14.756 14.7567 14.756 15.2432 14.4821 15.5856L9.4821 21.8356C9.15865 22.2399 8.56869 22.3055 8.16438 21.982Z" fill="#28303F"/>
<path opacity="0.4" fill-rule="evenodd" clip-rule="evenodd" d="M15.6644 21.982C15.2601 21.6586 15.1945 21.0686 15.518 20.6643L20.0494 15L15.518 9.33562C15.1945 8.93131 15.2601 8.34135 15.6644 8.0179C16.0687 7.69445 16.6587 7.76001 16.9821 8.16431L21.9821 14.4143C22.256 14.7567 22.256 15.2432 21.9821 15.5856L16.9821 21.8356C16.6587 22.2399 16.0687 22.3055 15.6644 21.982Z" fill="#28303F"/>
</svg>
