<svg width="61" height="61" viewBox="0 0 61 61" fill="none" xmlns="http://www.w3.org/2000/svg">
<rect width="61" height="61" rx="30.5" fill="#43536A"/>
<path opacity="0.4" fill-rule="evenodd" clip-rule="evenodd" d="M38.3549 24.7498C38.3549 24.1396 37.8602 23.645 37.25 23.645L28.9167 23.645C28.3065 23.645 27.8118 24.1396 27.8118 24.7498C27.8118 25.36 28.3065 25.8547 28.9167 25.8547L34.5827 25.8547L23.9688 36.4686C23.5373 36.9001 23.5373 37.5996 23.9688 38.0311C24.4002 38.4626 25.0998 38.4626 25.5313 38.0311L36.1452 27.4172L36.1452 33.0832C36.1452 33.6934 36.6398 34.188 37.25 34.188C37.8602 34.188 38.3549 33.6934 38.3549 33.0832V24.7498Z" fill="#F2F2F2"/>
<path d="M37.25 23.6451C37.8602 23.6451 38.3549 24.1397 38.3549 24.7499L38.3549 33.0833C38.3549 33.6934 37.8602 34.1881 37.25 34.1881C36.6398 34.1881 36.1452 33.6934 36.1452 33.0833L36.1806 25.8247L28.9167 25.8548C28.3065 25.8548 27.8119 25.3601 27.8119 24.7499C27.8119 24.1397 28.3065 23.6451 28.9167 23.6451L37.25 23.6451Z" fill="#F2F2F2"/>
</svg>
