<svg width="1220" height="441" viewBox="0 0 1220 441" fill="none" xmlns="http://www.w3.org/2000/svg">
<path d="M376.114 52.0001H384.782L394.653 20.1993H397.169V12.543H389.895L376.114 52.0001ZM383.524 42.4297H405.973L403.95 36.2501H385.548L383.524 42.4297ZM404.688 52.0001H413.356L399.602 12.543H394.817V20.1993L404.688 52.0001ZM416.52 61.5704H424.504V46.9962H424.668C425.215 48.1628 425.926 49.1654 426.801 50.004C427.676 50.8243 428.706 51.4623 429.891 51.918C431.076 52.3738 432.361 52.6016 433.746 52.6016C436.207 52.6016 438.322 51.9909 440.09 50.7696C441.858 49.5482 443.216 47.7982 444.164 45.5196C445.13 43.2409 445.613 40.5157 445.613 37.3438V37.3165C445.613 34.1446 445.13 31.4193 444.164 29.1407C443.198 26.862 441.822 25.1212 440.035 23.918C438.249 22.6967 436.116 22.086 433.637 22.086C432.251 22.086 430.975 22.3139 429.809 22.7696C428.66 23.2253 427.648 23.8816 426.773 24.7383C425.917 25.5951 425.224 26.6159 424.695 27.8008H424.504V22.6876H416.52V61.5704ZM431.012 45.9844C429.717 45.9844 428.578 45.6381 427.594 44.9454C426.628 44.2344 425.862 43.2318 425.297 41.9376C424.75 40.6433 424.477 39.1212 424.477 37.3712V37.3438C424.477 35.5574 424.75 34.0261 425.297 32.7501C425.844 31.4558 426.609 30.4623 427.594 29.7696C428.578 29.0587 429.717 28.7032 431.012 28.7032C432.324 28.7032 433.464 29.0495 434.43 29.7422C435.414 30.4167 436.171 31.4011 436.699 32.6954C437.228 33.9896 437.492 35.53 437.492 37.3165V37.3438C437.492 39.112 437.228 40.6433 436.699 41.9376C436.171 43.2318 435.423 44.2344 434.457 44.9454C433.491 45.6381 432.342 45.9844 431.012 45.9844ZM449.57 61.5704H457.554V46.9962H457.718C458.265 48.1628 458.976 49.1654 459.851 50.004C460.726 50.8243 461.756 51.4623 462.941 51.918C464.126 52.3738 465.411 52.6016 466.796 52.6016C469.257 52.6016 471.372 51.9909 473.14 50.7696C474.908 49.5482 476.266 47.7982 477.214 45.5196C478.18 43.2409 478.663 40.5157 478.663 37.3438V37.3165C478.663 34.1446 478.18 31.4193 477.214 29.1407C476.248 26.862 474.872 25.1212 473.085 23.918C471.299 22.6967 469.166 22.086 466.687 22.086C465.301 22.086 464.025 22.3139 462.859 22.7696C461.71 23.2253 460.698 23.8816 459.823 24.7383C458.967 25.5951 458.274 26.6159 457.745 27.8008H457.554V22.6876H449.57V61.5704ZM464.062 45.9844C462.767 45.9844 461.628 45.6381 460.644 44.9454C459.678 44.2344 458.912 43.2318 458.347 41.9376C457.8 40.6433 457.527 39.1212 457.527 37.3712V37.3438C457.527 35.5574 457.8 34.0261 458.347 32.7501C458.894 31.4558 459.659 30.4623 460.644 29.7696C461.628 29.0587 462.767 28.7032 464.062 28.7032C465.374 28.7032 466.514 29.0495 467.48 29.7422C468.464 30.4167 469.221 31.4011 469.749 32.6954C470.278 33.9896 470.542 35.53 470.542 37.3165V37.3438C470.542 39.112 470.278 40.6433 469.749 41.9376C469.221 43.2318 468.473 44.2344 467.507 44.9454C466.541 45.6381 465.392 45.9844 464.062 45.9844ZM494.205 52.0001H509.271C513.227 52.0001 516.608 51.2162 519.416 49.6485C522.223 48.0808 524.365 45.8113 525.841 42.8399C527.336 39.8686 528.084 36.2956 528.084 32.1212V32.0665C528.084 27.892 527.336 24.3555 525.841 21.4571C524.347 18.5404 522.196 16.3256 519.388 14.8126C516.599 13.2995 513.227 12.543 509.271 12.543H494.205V52.0001ZM502.462 45.1641V19.3516H508.287C510.711 19.3516 512.771 19.8438 514.466 20.8282C516.162 21.7943 517.447 23.2253 518.322 25.1212C519.215 27.017 519.662 29.3412 519.662 32.0938V32.1485C519.662 34.9922 519.224 37.3803 518.349 39.3126C517.492 41.2449 516.216 42.7032 514.521 43.6876C512.826 44.6719 510.748 45.1641 508.287 45.1641H502.462ZM545.876 52.6016C547.972 52.6016 549.795 52.3282 551.345 51.7813C552.912 51.2344 554.234 50.5053 555.309 49.5938C556.403 48.6824 557.269 47.6797 557.907 46.586C558.545 45.4922 558.973 44.4076 559.192 43.3321L559.274 43.0313H551.946L551.891 43.1954C551.709 43.7422 551.363 44.28 550.852 44.8087C550.342 45.3373 549.686 45.7748 548.884 46.1212C548.082 46.4675 547.134 46.6407 546.04 46.6407C544.654 46.6407 543.46 46.3399 542.458 45.7383C541.455 45.1186 540.68 44.2344 540.134 43.086C539.605 41.9376 539.341 40.5521 539.341 38.9297V35.8399C539.341 34.1628 539.605 32.7501 540.134 31.6016C540.68 30.435 541.428 29.5508 542.376 28.9493C543.342 28.3477 544.445 28.0469 545.684 28.0469C546.924 28.0469 548.009 28.3386 548.938 28.9219C549.886 29.5053 550.624 30.3803 551.153 31.5469C551.682 32.6954 551.946 34.1264 551.946 35.8399V38.9024L555.747 34.1993H535.376V39.2305H559.52V36.7696C559.52 33.8165 558.946 31.237 557.798 29.0313C556.667 26.8256 555.054 25.1212 552.958 23.918C550.88 22.6967 548.41 22.086 545.548 22.086C542.686 22.086 540.197 22.7149 538.083 23.9727C535.986 25.2123 534.355 26.9805 533.188 29.2774C532.04 31.5561 531.466 34.254 531.466 37.3712V37.3985C531.466 40.5157 532.04 43.2136 533.188 45.4922C534.355 47.7709 536.014 49.53 538.165 50.7696C540.316 51.9909 542.886 52.6016 545.876 52.6016ZM570.094 52.0001H579.09L589.152 22.6876H580.812L574.77 44.9454H574.605L568.48 22.6876H559.949L570.094 52.0001ZM604.046 52.6016C606.142 52.6016 607.965 52.3282 609.515 51.7813C611.083 51.2344 612.404 50.5053 613.48 49.5938C614.573 48.6824 615.439 47.6797 616.077 46.586C616.715 45.4922 617.144 44.4076 617.363 43.3321L617.445 43.0313H610.116L610.062 43.1954C609.879 43.7422 609.533 44.28 609.023 44.8087C608.512 45.3373 607.856 45.7748 607.054 46.1212C606.252 46.4675 605.304 46.6407 604.21 46.6407C602.825 46.6407 601.631 46.3399 600.628 45.7383C599.626 45.1186 598.851 44.2344 598.304 43.086C597.775 41.9376 597.511 40.5521 597.511 38.9297V35.8399C597.511 34.1628 597.775 32.7501 598.304 31.6016C598.851 30.435 599.598 29.5508 600.546 28.9493C601.512 28.3477 602.615 28.0469 603.855 28.0469C605.094 28.0469 606.179 28.3386 607.109 28.9219C608.057 29.5053 608.795 30.3803 609.323 31.5469C609.852 32.6954 610.116 34.1264 610.116 35.8399V38.9024L613.917 34.1993H593.546V39.2305H617.691V36.7696C617.691 33.8165 617.116 31.237 615.968 29.0313C614.838 26.8256 613.224 25.1212 611.128 23.918C609.05 22.6967 606.58 22.086 603.718 22.086C600.856 22.086 598.368 22.7149 596.253 23.9727C594.157 25.2123 592.525 26.9805 591.359 29.2774C590.21 31.5561 589.636 34.254 589.636 37.3712V37.3985C589.636 40.5157 590.21 43.2136 591.359 45.4922C592.525 47.7709 594.184 49.53 596.335 50.7696C598.486 51.9909 601.057 52.6016 604.046 52.6016ZM621.811 52.0001H629.795V12.543H621.811V52.0001ZM648.435 52.6016C651.388 52.6016 653.95 52.0001 656.119 50.7969C658.288 49.5756 659.965 47.8256 661.15 45.5469C662.353 43.2683 662.955 40.5339 662.955 37.3438V37.2891C662.955 34.1172 662.353 31.4011 661.15 29.1407C659.947 26.862 658.252 25.1212 656.064 23.918C653.895 22.6967 651.343 22.086 648.408 22.086C645.491 22.086 642.948 22.6967 640.779 23.918C638.61 25.1394 636.923 26.8894 635.72 29.168C634.517 31.4284 633.916 34.1355 633.916 37.2891V37.3438C633.916 40.5157 634.508 43.2409 635.693 45.5196C636.878 47.7982 638.555 49.5482 640.724 50.7696C642.894 51.9909 645.464 52.6016 648.435 52.6016ZM648.463 46.3399C647.15 46.3399 646.011 45.9936 645.045 45.3008C644.078 44.5899 643.331 43.5691 642.802 42.2383C642.292 40.8894 642.037 39.2579 642.037 37.3438V37.2891C642.037 35.3933 642.301 33.78 642.83 32.4493C643.358 31.1186 644.097 30.1068 645.045 29.4141C646.011 28.7032 647.132 28.3477 648.408 28.3477C649.702 28.3477 650.832 28.7032 651.798 29.4141C652.765 30.1068 653.512 31.1186 654.041 32.4493C654.569 33.78 654.834 35.3933 654.834 37.2891V37.3438C654.834 39.2579 654.569 40.8894 654.041 42.2383C653.53 43.5691 652.792 44.5899 651.826 45.3008C650.878 45.9936 649.757 46.3399 648.463 46.3399ZM666.884 61.5704H674.868V46.9962H675.032C675.579 48.1628 676.29 49.1654 677.165 50.004C678.04 50.8243 679.07 51.4623 680.255 51.918C681.44 52.3738 682.725 52.6016 684.11 52.6016C686.571 52.6016 688.686 51.9909 690.454 50.7696C692.222 49.5482 693.58 47.7982 694.528 45.5196C695.494 43.2409 695.977 40.5157 695.977 37.3438V37.3165C695.977 34.1446 695.494 31.4193 694.528 29.1407C693.562 26.862 692.186 25.1212 690.399 23.918C688.613 22.6967 686.48 22.086 684.001 22.086C682.615 22.086 681.339 22.3139 680.173 22.7696C679.024 23.2253 678.013 23.8816 677.138 24.7383C676.281 25.5951 675.588 26.6159 675.059 27.8008H674.868V22.6876H666.884V61.5704ZM681.376 45.9844C680.082 45.9844 678.942 45.6381 677.958 44.9454C676.992 44.2344 676.226 43.2318 675.661 41.9376C675.114 40.6433 674.841 39.1212 674.841 37.3712V37.3438C674.841 35.5574 675.114 34.0261 675.661 32.7501C676.208 31.4558 676.973 30.4623 677.958 29.7696C678.942 29.0587 680.082 28.7032 681.376 28.7032C682.688 28.7032 683.828 29.0495 684.794 29.7422C685.778 30.4167 686.535 31.4011 687.063 32.6954C687.592 33.9896 687.856 35.53 687.856 37.3165V37.3438C687.856 39.112 687.592 40.6433 687.063 41.9376C686.535 43.2318 685.787 44.2344 684.821 44.9454C683.855 45.6381 682.707 45.9844 681.376 45.9844ZM713.277 52.6016C715.374 52.6016 717.197 52.3282 718.746 51.7813C720.314 51.2344 721.635 50.5053 722.711 49.5938C723.805 48.6824 724.671 47.6797 725.309 46.586C725.947 45.4922 726.375 44.4076 726.594 43.3321L726.676 43.0313H719.348L719.293 43.1954C719.111 43.7422 718.764 44.28 718.254 44.8087C717.743 45.3373 717.087 45.7748 716.285 46.1212C715.483 46.4675 714.535 46.6407 713.441 46.6407C712.056 46.6407 710.862 46.3399 709.859 45.7383C708.857 45.1186 708.082 44.2344 707.535 43.086C707.007 41.9376 706.742 40.5521 706.742 38.9297V35.8399C706.742 34.1628 707.007 32.7501 707.535 31.6016C708.082 30.435 708.829 29.5508 709.777 28.9493C710.743 28.3477 711.846 28.0469 713.086 28.0469C714.326 28.0469 715.41 28.3386 716.34 28.9219C717.288 29.5053 718.026 30.3803 718.555 31.5469C719.083 32.6954 719.348 34.1264 719.348 35.8399V38.9024L723.148 34.1993H702.777V39.2305H726.922V36.7696C726.922 33.8165 726.348 31.237 725.199 29.0313C724.069 26.8256 722.456 25.1212 720.359 23.918C718.281 22.6967 715.811 22.086 712.949 22.086C710.087 22.086 707.599 22.7149 705.484 23.9727C703.388 25.2123 701.757 26.9805 700.59 29.2774C699.441 31.5561 698.867 34.254 698.867 37.3712V37.3985C698.867 40.5157 699.441 43.2136 700.59 45.4922C701.757 47.7709 703.415 49.53 705.566 50.7696C707.717 51.9909 710.288 52.6016 713.277 52.6016ZM730.851 52.0001H738.835V35.5938C738.835 34.1719 739.081 32.9688 739.573 31.9844C740.066 31.0001 740.777 30.2527 741.706 29.7422C742.636 29.2318 743.757 28.9766 745.07 28.9766C745.653 28.9766 746.2 29.0222 746.71 29.1133C747.221 29.1863 747.64 29.2865 747.968 29.4141V22.3868C747.676 22.2956 747.33 22.2227 746.929 22.168C746.528 22.1133 746.109 22.086 745.671 22.086C743.958 22.086 742.527 22.5873 741.378 23.5899C740.23 24.5925 739.437 25.9962 738.999 27.8008H738.835V22.6876H730.851V52.0001Z" fill="#3C4043"/>
<path d="M377.547 242H408.504L443.758 128.426H452.742V101.082H426.766L377.547 242ZM404.012 207.82H484.188L476.961 185.75H411.238L404.012 207.82ZM479.598 242H510.555L461.434 101.082H444.344V128.426L479.598 242ZM561.086 278.328C571.568 278.328 580.617 276.668 588.234 273.348C595.917 270.027 601.809 265.405 605.91 259.48C610.077 253.621 612.16 246.818 612.16 239.07V137.312H583.645V155.184H583.059C581.171 151.082 578.664 147.534 575.539 144.539C572.479 141.544 568.898 139.233 564.797 137.605C560.695 135.978 556.171 135.164 551.223 135.164C542.368 135.164 534.751 137.28 528.371 141.512C521.991 145.743 517.043 151.831 513.527 159.773C510.077 167.716 508.352 177.254 508.352 188.387V188.484C508.352 199.292 510.044 208.602 513.43 216.414C516.88 224.161 521.763 230.118 528.078 234.285C534.458 238.452 542.01 240.535 550.734 240.535C555.812 240.535 560.435 239.819 564.602 238.387C568.833 236.889 572.512 234.806 575.637 232.137C578.762 229.467 581.236 226.31 583.059 222.664H583.645V238.68C583.645 244.539 581.724 249.227 577.883 252.742C574.042 256.258 568.443 258.016 561.086 258.016C555.161 258.016 550.344 257.039 546.633 255.086C542.922 253.133 540.48 250.887 539.309 248.348L539.016 247.664H511.281L511.379 248.543C512.29 254.142 514.829 259.188 518.996 263.68C523.228 268.172 528.892 271.72 535.988 274.324C543.15 276.993 551.516 278.328 561.086 278.328ZM560.598 219.637C555.91 219.637 551.809 218.4 548.293 215.926C544.777 213.452 542.076 209.936 540.188 205.379C538.299 200.822 537.355 195.418 537.355 189.168V189.07C537.355 182.755 538.299 177.352 540.188 172.859C542.076 168.367 544.777 164.917 548.293 162.508C551.809 160.034 555.91 158.797 560.598 158.797C565.22 158.797 569.257 160.034 572.707 162.508C576.223 164.917 578.924 168.4 580.812 172.957C582.766 177.449 583.742 182.82 583.742 189.07V189.168C583.742 195.418 582.766 200.822 580.812 205.379C578.924 209.936 576.255 213.452 572.805 215.926C569.354 218.4 565.285 219.637 560.598 219.637ZM624.996 242H653.512V137.312H624.996V242ZM639.254 123.836C643.551 123.836 647.164 122.371 650.094 119.441C653.023 116.512 654.488 113.029 654.488 108.992C654.488 104.891 653.023 101.408 650.094 98.543C647.164 95.6133 643.551 94.1484 639.254 94.1484C634.957 94.1484 631.344 95.6133 628.414 98.543C625.484 101.408 624.02 104.891 624.02 108.992C624.02 113.029 625.484 116.512 628.414 119.441C631.344 122.371 634.957 123.836 639.254 123.836ZM666.836 242H695.352V101.082H666.836V242ZM755.746 244.148C763.233 244.148 769.743 243.172 775.277 241.219C780.876 239.266 785.596 236.661 789.438 233.406C793.344 230.151 796.436 226.57 798.715 222.664C800.993 218.758 802.523 214.884 803.305 211.043L803.598 209.969H777.426L777.23 210.555C776.579 212.508 775.342 214.428 773.52 216.316C771.697 218.204 769.353 219.767 766.488 221.004C763.624 222.241 760.238 222.859 756.332 222.859C751.384 222.859 747.12 221.785 743.539 219.637C739.958 217.423 737.191 214.266 735.238 210.164C733.35 206.062 732.406 201.115 732.406 195.32V184.285C732.406 178.296 733.35 173.25 735.238 169.148C737.191 164.982 739.861 161.824 743.246 159.676C746.697 157.527 750.635 156.453 755.062 156.453C759.49 156.453 763.363 157.495 766.684 159.578C770.069 161.661 772.706 164.786 774.594 168.953C776.482 173.055 777.426 178.165 777.426 184.285V195.223L791 178.426H718.246V196.395H804.477V187.605C804.477 177.059 802.426 167.846 798.324 159.969C794.288 152.091 788.526 146.004 781.039 141.707C773.617 137.345 764.796 135.164 754.574 135.164C744.353 135.164 735.466 137.41 727.914 141.902C720.427 146.329 714.6 152.645 710.434 160.848C706.332 168.986 704.281 178.621 704.281 189.754V189.852C704.281 200.984 706.332 210.62 710.434 218.758C714.6 226.896 720.525 233.178 728.207 237.605C735.889 241.967 745.069 244.148 755.746 244.148ZM807.254 271.395H826.98L841.336 217.391H814.383L807.254 271.395ZM538.965 439.441C550.358 439.441 560.514 437.26 569.434 432.898C578.353 428.471 585.514 422.384 590.918 414.637C596.387 406.889 599.577 398.035 600.488 388.074L600.586 387H571.875L571.68 387.977C570.443 393.576 568.327 398.361 565.332 402.332C562.337 406.238 558.594 409.233 554.102 411.316C549.674 413.4 544.629 414.441 538.965 414.441C531.478 414.441 524.935 412.521 519.336 408.68C513.802 404.773 509.505 399.24 506.445 392.078C503.451 384.852 501.953 376.29 501.953 366.395V366.297C501.953 356.466 503.451 348.003 506.445 340.906C509.505 333.745 513.802 328.243 519.336 324.402C524.87 320.561 531.413 318.641 538.965 318.641C544.824 318.641 549.967 319.715 554.395 321.863C558.887 323.947 562.565 326.909 565.43 330.75C568.294 334.591 570.28 339.116 571.387 344.324L571.777 345.984H600.488L600.391 345.105C599.479 335.079 596.322 326.225 590.918 318.543C585.514 310.796 578.353 304.708 569.434 300.281C560.514 295.854 550.358 293.641 538.965 293.641C525.228 293.641 513.346 296.57 503.32 302.43C493.294 308.224 485.547 316.557 480.078 327.43C474.609 338.237 471.875 351.225 471.875 366.395V366.492C471.875 381.596 474.577 394.617 479.98 405.555C485.449 416.427 493.197 424.793 503.223 430.652C513.314 436.512 525.228 439.441 538.965 439.441ZM609.906 437H638.422V378.406C638.422 373.328 639.301 369.031 641.059 365.516C642.816 362 645.355 359.331 648.676 357.508C651.996 355.685 656 354.773 660.688 354.773C662.771 354.773 664.724 354.936 666.547 355.262C668.37 355.522 669.867 355.88 671.039 356.336V331.238C669.997 330.913 668.76 330.652 667.328 330.457C665.896 330.262 664.398 330.164 662.836 330.164C656.716 330.164 651.605 331.954 647.504 335.535C643.402 339.116 640.57 344.129 639.008 350.574H638.422V332.312H609.906V437ZM720.594 439.148C728.081 439.148 734.591 438.172 740.125 436.219C745.724 434.266 750.444 431.661 754.285 428.406C758.191 425.151 761.284 421.57 763.562 417.664C765.841 413.758 767.371 409.884 768.152 406.043L768.445 404.969H742.273L742.078 405.555C741.427 407.508 740.19 409.428 738.367 411.316C736.544 413.204 734.201 414.767 731.336 416.004C728.471 417.241 725.086 417.859 721.18 417.859C716.232 417.859 711.967 416.785 708.387 414.637C704.806 412.423 702.039 409.266 700.086 405.164C698.198 401.062 697.254 396.115 697.254 390.32V379.285C697.254 373.296 698.198 368.25 700.086 364.148C702.039 359.982 704.708 356.824 708.094 354.676C711.544 352.527 715.483 351.453 719.91 351.453C724.337 351.453 728.211 352.495 731.531 354.578C734.917 356.661 737.553 359.786 739.441 363.953C741.329 368.055 742.273 373.165 742.273 379.285V390.223L755.848 373.426H683.094V391.395H769.324V382.605C769.324 372.059 767.273 362.846 763.172 354.969C759.135 347.091 753.374 341.004 745.887 336.707C738.465 332.345 729.643 330.164 719.422 330.164C709.201 330.164 700.314 332.41 692.762 336.902C685.275 341.329 679.448 347.645 675.281 355.848C671.18 363.986 669.129 373.621 669.129 384.754V384.852C669.129 395.984 671.18 405.62 675.281 413.758C679.448 421.896 685.372 428.178 693.055 432.605C700.737 436.967 709.917 439.148 720.594 439.148ZM808.723 438.66C813.345 438.66 817.609 437.977 821.516 436.609C825.422 435.177 828.905 433.191 831.965 430.652C835.09 428.048 837.629 424.956 839.582 421.375H840.168V437H868.684V365.223C868.684 358.191 866.828 352.039 863.117 346.766C859.471 341.492 854.328 337.423 847.688 334.559C841.047 331.629 833.202 330.164 824.152 330.164C814.973 330.164 807.03 331.596 800.324 334.461C793.684 337.26 788.475 341.167 784.699 346.18C780.988 351.193 778.872 356.922 778.352 363.367L778.254 364.539H804.328L804.523 363.66C805.24 360.275 807.16 357.475 810.285 355.262C813.41 353.048 817.642 351.941 822.98 351.941C828.579 351.941 832.844 353.309 835.773 356.043C838.703 358.712 840.168 362.358 840.168 366.98V398.719C840.168 402.365 839.191 405.652 837.238 408.582C835.35 411.447 832.714 413.725 829.328 415.418C826.008 417.046 822.232 417.859 818 417.859C813.052 417.859 809.113 416.785 806.184 414.637C803.254 412.423 801.789 409.396 801.789 405.555V405.359C801.789 401.648 803.221 398.686 806.086 396.473C808.951 394.194 813.117 392.892 818.586 392.566L855.109 390.223V372.449L814.289 374.988C801.333 375.835 791.307 378.992 784.211 384.461C777.115 389.865 773.566 397.319 773.566 406.824V407.02C773.566 413.139 775.031 418.608 777.961 423.426C780.956 428.178 785.09 431.922 790.363 434.656C795.637 437.326 801.757 438.66 808.723 438.66ZM922.242 439.148C925.237 439.148 927.874 439.018 930.152 438.758C932.496 438.562 934.449 438.335 936.012 438.074V417.176C935.165 417.306 934.254 417.436 933.277 417.566C932.301 417.632 931.161 417.664 929.859 417.664C925.562 417.664 922.307 416.72 920.094 414.832C917.945 412.879 916.871 409.461 916.871 404.578V353.797H936.012V332.312H916.871V306.727H888.062V332.312H873.512V353.797H888.062V407.703C888.062 418.901 890.862 426.941 896.461 431.824C902.06 436.707 910.654 439.148 922.242 439.148ZM945.82 437H974.336V332.312H945.82V437ZM960.078 318.836C964.375 318.836 967.988 317.371 970.918 314.441C973.848 311.512 975.312 308.029 975.312 303.992C975.312 299.891 973.848 296.408 970.918 293.543C967.988 290.613 964.375 289.148 960.078 289.148C955.781 289.148 952.168 290.613 949.238 293.543C946.309 296.408 944.844 299.891 944.844 303.992C944.844 308.029 946.309 311.512 949.238 314.441C952.168 317.371 955.781 318.836 960.078 318.836ZM1014.61 437H1046.74L1082.68 332.312H1052.89L1031.31 411.805H1030.73L1008.85 332.312H978.383L1014.61 437ZM1130.09 439.148C1137.57 439.148 1144.08 438.172 1149.62 436.219C1155.22 434.266 1159.94 431.661 1163.78 428.406C1167.68 425.151 1170.78 421.57 1173.05 417.664C1175.33 413.758 1176.86 409.884 1177.64 406.043L1177.94 404.969H1151.77L1151.57 405.555C1150.92 407.508 1149.68 409.428 1147.86 411.316C1146.04 413.204 1143.69 414.767 1140.83 416.004C1137.96 417.241 1134.58 417.859 1130.67 417.859C1125.72 417.859 1121.46 416.785 1117.88 414.637C1114.3 412.423 1111.53 409.266 1109.58 405.164C1107.69 401.062 1106.75 396.115 1106.75 390.32V379.285C1106.75 373.296 1107.69 368.25 1109.58 364.148C1111.53 359.982 1114.2 356.824 1117.59 354.676C1121.04 352.527 1124.98 351.453 1129.4 351.453C1133.83 351.453 1137.7 352.495 1141.02 354.578C1144.41 356.661 1147.05 359.786 1148.93 363.953C1150.82 368.055 1151.77 373.165 1151.77 379.285V390.223L1165.34 373.426H1092.59V391.395H1178.82V382.605C1178.82 372.059 1176.77 362.846 1172.66 354.969C1168.63 347.091 1162.87 341.004 1155.38 336.707C1147.96 332.345 1139.14 330.164 1128.91 330.164C1118.69 330.164 1109.81 332.41 1102.25 336.902C1094.77 341.329 1088.94 347.645 1084.77 355.848C1080.67 363.986 1078.62 373.621 1078.62 384.754V384.852C1078.62 395.984 1080.67 405.62 1084.77 413.758C1088.94 421.896 1094.86 428.178 1102.55 432.605C1110.23 436.967 1119.41 439.148 1130.09 439.148ZM1201.91 438.66C1206.33 438.66 1210.08 437.13 1213.14 434.07C1216.2 431.01 1217.73 427.267 1217.73 422.84C1217.73 418.413 1216.2 414.669 1213.14 411.609C1210.08 408.549 1206.33 407.02 1201.91 407.02C1197.48 407.02 1193.74 408.549 1190.68 411.609C1187.62 414.669 1186.09 418.413 1186.09 422.84C1186.09 427.267 1187.62 431.01 1190.68 434.07C1193.74 437.13 1197.48 438.66 1201.91 438.66Z" fill="#3C4043"/>
<path d="M358.346 36.4059L351.473 36.2358C322.372 35.5155 298.197 58.5225 297.477 87.6238M358.346 36.4059L346.205 47.9606M358.346 36.4059L346.791 24.2647" stroke="black" stroke-width="1.25" stroke-linecap="round"/>
</svg>
