<svg width="30" height="30" viewBox="0 0 30 30" fill="none" xmlns="http://www.w3.org/2000/svg">
<path opacity="0.4" fill-rule="evenodd" clip-rule="evenodd" d="M7.8125 10C7.8125 9.48223 8.23223 9.0625 8.75 9.0625H15C15.5178 9.0625 15.9375 9.48223 15.9375 10C15.9375 10.5178 15.5178 10.9375 15 10.9375H8.75C8.23223 10.9375 7.8125 10.5178 7.8125 10Z" fill="#28303F"/>
<path fill-rule="evenodd" clip-rule="evenodd" d="M7.8125 15C7.8125 14.4822 8.23223 14.0625 8.75 14.0625H21.25C21.7678 14.0625 22.1875 14.4822 22.1875 15C22.1875 15.5178 21.7678 15.9375 21.25 15.9375H8.75C8.23223 15.9375 7.8125 15.5178 7.8125 15Z" fill="#28303F"/>
<path opacity="0.4" fill-rule="evenodd" clip-rule="evenodd" d="M14.0625 20C14.0625 19.4822 14.4822 19.0625 15 19.0625H21.25C21.7678 19.0625 22.1875 19.4822 22.1875 20C22.1875 20.5178 21.7678 20.9375 21.25 20.9375H15C14.4822 20.9375 14.0625 20.5178 14.0625 20Z" fill="#28303F"/>
</svg>
