<svg width="425" height="856" viewBox="0 0 425 856" fill="none" xmlns="http://www.w3.org/2000/svg">
<g filter="url(#filter0_i_505_944)">
<rect x="3" width="419" height="856" rx="62" fill="#1A1A1A"/>
</g>
<rect x="3.5" y="0.5" width="418" height="855" rx="61.5" stroke="url(#paint0_linear_505_944)" stroke-opacity="0.5"/>
<rect x="25" y="22" width="375" height="812" rx="40" fill="white"/>
<rect width="365.4" height="812" transform="translate(30.3003 22)" fill="#FAFAFE"/>
<rect x="30.3003" y="22" width="365.4" height="24.36" fill="#F5F5F5"/>
<path fill-rule="evenodd" clip-rule="evenodd" d="M329.666 28.09H328.591C327.998 28.09 327.516 28.6012 327.516 29.2319V39.1281C327.516 39.7588 327.998 40.27 328.591 40.27H329.666C330.259 40.27 330.74 39.7588 330.74 39.1281V29.2319C330.74 28.6012 330.259 28.09 329.666 28.09ZM323.576 30.7544H324.65C325.244 30.7544 325.725 31.2656 325.725 31.8962V39.1281C325.725 39.7588 325.244 40.27 324.65 40.27H323.576C322.982 40.27 322.501 39.7588 322.501 39.1281V31.8962C322.501 31.2656 322.982 30.7544 323.576 30.7544ZM319.635 33.4187H318.561C317.967 33.4187 317.486 33.93 317.486 34.5606V39.1281C317.486 39.7588 317.967 40.27 318.561 40.27H319.635C320.229 40.27 320.71 39.7588 320.71 39.1281V34.5606C320.71 33.93 320.229 33.4187 319.635 33.4187ZM314.62 35.7025H313.545C312.951 35.7025 312.47 36.2137 312.47 36.8444V39.1281C312.47 39.7588 312.951 40.27 313.545 40.27H314.62C315.213 40.27 315.694 39.7588 315.694 39.1281V36.8444C315.694 36.2137 315.213 35.7025 314.62 35.7025Z" fill="#170E2B"/>
<path fill-rule="evenodd" clip-rule="evenodd" d="M344.951 30.6195C347.307 30.6196 349.573 31.5653 351.281 33.2612C351.409 33.3922 351.615 33.3905 351.741 33.2575L352.971 31.9617C353.035 31.8942 353.071 31.8029 353.07 31.7078C353.07 31.6127 353.033 31.5218 352.968 31.4552C348.486 26.9682 341.415 26.9682 336.932 31.4552C336.868 31.5218 336.831 31.6127 336.83 31.7077C336.829 31.8028 336.865 31.8942 336.929 31.9617L338.159 33.2575C338.285 33.3907 338.491 33.3924 338.62 33.2612C340.328 31.5652 342.594 30.6195 344.951 30.6195ZM344.951 34.8356C346.245 34.8355 347.494 35.3382 348.453 36.2459C348.583 36.3747 348.788 36.3719 348.914 36.2396L350.142 34.9437C350.207 34.8757 350.242 34.7835 350.242 34.6877C350.241 34.5919 350.203 34.5005 350.137 34.4339C347.215 31.5944 342.689 31.5944 339.767 34.4339C339.701 34.5005 339.663 34.5919 339.662 34.6878C339.661 34.7836 339.697 34.8758 339.762 34.9437L340.99 36.2396C341.116 36.3719 341.321 36.3747 341.45 36.2459C342.409 35.3388 343.657 34.8362 344.951 34.8356ZM347.41 37.6722C347.412 37.7683 347.376 37.8609 347.31 37.9282L345.187 40.1671C345.124 40.2329 345.039 40.27 344.951 40.27C344.862 40.27 344.777 40.2329 344.715 40.1671L342.591 37.9282C342.525 37.8609 342.489 37.7682 342.491 37.6721C342.493 37.576 342.533 37.485 342.601 37.4206C343.958 36.2223 345.944 36.2223 347.301 37.4206C347.369 37.4851 347.409 37.5761 347.41 37.6722Z" fill="#170E2B"/>
<path opacity="0.4" fill-rule="evenodd" clip-rule="evenodd" d="M361.867 29.105H378.482C379.417 29.105 380.174 29.8623 380.174 30.7966V37.5633C380.174 38.4976 379.417 39.255 378.482 39.255H361.867C360.933 39.255 360.175 38.4976 360.175 37.5633V30.7966C360.175 29.8624 360.933 29.105 361.867 29.105ZM359.16 30.7966C359.16 29.3018 360.372 28.09 361.867 28.09H378.482C379.977 28.09 381.189 29.3018 381.189 30.7966V37.5633C381.189 39.0581 379.977 40.27 378.482 40.27H361.867C360.372 40.27 359.16 39.0582 359.16 37.5633V30.7966ZM383.52 34.18C383.52 35.1183 382.996 35.9653 382.191 36.3294V32.0306C382.996 32.3946 383.52 33.2416 383.52 34.18Z" fill="#170E2B"/>
<rect x="361.163" y="30.2395" width="18.0236" height="7.88118" rx="1.35333" fill="#170E2B"/>
<path d="M47.8092 28.9229V39.0601H46.137V30.9073L43.66 31.7469V30.3661L47.608 28.9229H47.8092ZM58.1063 37.7279V39.0601H51.3343V37.9152L54.6231 34.328C54.9839 33.921 55.2684 33.5694 55.4766 33.2734C55.6847 32.9773 55.8304 32.7114 55.9137 32.4754C56.0016 32.2349 56.0455 32.0013 56.0455 31.7747C56.0455 31.4555 55.9854 31.1756 55.8651 30.9351C55.7495 30.6899 55.5783 30.498 55.3517 30.3592C55.125 30.2158 54.8498 30.1441 54.526 30.1441C54.1513 30.1441 53.8368 30.2251 53.5824 30.387C53.328 30.5489 53.136 30.7732 53.0065 31.06C52.877 31.3422 52.8122 31.666 52.8122 32.0314H51.14C51.14 31.4439 51.2742 30.9073 51.5425 30.4217C51.8107 29.9313 52.1993 29.5428 52.7081 29.256C53.2169 28.9646 53.8298 28.8189 54.5468 28.8189C55.2222 28.8189 55.7957 28.9322 56.2676 29.1589C56.7394 29.3855 57.0979 29.707 57.343 30.1233C57.5928 30.5396 57.7177 31.0322 57.7177 31.6012C57.7177 31.9157 57.6668 32.228 57.565 32.5379C57.4633 32.8478 57.3176 33.1577 57.1279 33.4676C56.9429 33.7729 56.7232 34.0805 56.4688 34.3905C56.2144 34.6958 55.9345 35.0057 55.6292 35.3202L53.4436 37.7279H58.1063ZM59.5428 38.2274C59.5428 37.9684 59.6307 37.751 59.8065 37.5752C59.9823 37.3948 60.2205 37.3046 60.5212 37.3046C60.8265 37.3046 61.0647 37.3948 61.2358 37.5752C61.4116 37.751 61.4995 37.9684 61.4995 38.2274C61.4995 38.4865 61.4116 38.7039 61.2358 38.8797C61.0647 39.0554 60.8265 39.1433 60.5212 39.1433C60.2205 39.1433 59.9823 39.0554 59.8065 38.8797C59.6307 38.7039 59.5428 38.4865 59.5428 38.2274ZM59.5498 32.3159C59.5498 32.0568 59.6377 31.8394 59.8134 31.6636C59.9892 31.4832 60.2274 31.393 60.5281 31.393C60.8334 31.393 61.0716 31.4832 61.2428 31.6636C61.4185 31.8394 61.5064 32.0568 61.5064 32.3159C61.5064 32.5749 61.4185 32.7923 61.2428 32.9681C61.0716 33.1439 60.8334 33.2317 60.5281 33.2317C60.2274 33.2317 59.9892 33.1439 59.8134 32.9681C59.6377 32.7923 59.5498 32.5749 59.5498 32.3159ZM65.1495 33.2526H66.1486C66.5372 33.2526 66.8586 33.1855 67.1131 33.0513C67.3721 32.9172 67.5641 32.7322 67.689 32.4963C67.8138 32.2604 67.8763 31.9898 67.8763 31.6845C67.8763 31.3653 67.8185 31.0924 67.7028 30.8657C67.5918 30.6344 67.4207 30.4563 67.1894 30.3315C66.9627 30.2066 66.6736 30.1441 66.3221 30.1441C66.026 30.1441 65.7577 30.2042 65.5172 30.3245C65.2813 30.4402 65.094 30.6067 64.9552 30.8241C64.8164 31.0369 64.747 31.2913 64.747 31.5873H63.0679C63.0679 31.0507 63.209 30.5743 63.4912 30.158C63.7733 29.7417 64.1573 29.4156 64.643 29.1797C65.1333 28.9391 65.6837 28.8189 66.2943 28.8189C66.9465 28.8189 67.5155 28.9276 68.0012 29.145C68.4915 29.3578 68.8731 29.6769 69.146 30.1025C69.4189 30.528 69.5554 31.0554 69.5554 31.6845C69.5554 31.9712 69.4883 32.2627 69.3542 32.5587C69.22 32.8547 69.0211 33.1253 68.7575 33.3705C68.4938 33.611 68.1654 33.8076 67.7722 33.9603C67.379 34.1083 66.9234 34.1823 66.4053 34.1823H65.1495V33.2526ZM65.1495 34.557V33.6411H66.4053C66.9974 33.6411 67.5016 33.7105 67.9179 33.8493C68.3389 33.988 68.6812 34.18 68.9448 34.4252C69.2085 34.6657 69.4004 34.9409 69.5207 35.2508C69.6456 35.5608 69.708 35.8892 69.708 36.2361C69.708 36.7079 69.6225 37.1288 69.4513 37.4989C69.2848 37.8643 69.0466 38.1742 68.7367 38.4287C68.4267 38.6831 68.0636 38.875 67.6473 39.0046C67.2356 39.1341 66.787 39.1988 66.3013 39.1988C65.8664 39.1988 65.4501 39.1387 65.0523 39.0184C64.6545 38.8982 64.2984 38.7201 63.9838 38.4842C63.6693 38.2436 63.4195 37.9453 63.2345 37.5891C63.0541 37.2283 62.9639 36.812 62.9639 36.3402H64.636C64.636 36.6408 64.7054 36.9068 64.8442 37.1381C64.9876 37.3648 65.1865 37.5428 65.4409 37.6724C65.6999 37.8019 65.996 37.8666 66.329 37.8666C66.6806 37.8666 66.9835 37.8042 67.238 37.6793C67.4924 37.5544 67.6866 37.3694 67.8208 37.1242C67.9596 36.8791 68.0289 36.583 68.0289 36.2361C68.0289 35.8429 67.9526 35.5237 67.8 35.2786C67.6473 35.0334 67.4299 34.853 67.1478 34.7374C66.8656 34.6171 66.5325 34.557 66.1486 34.557H65.1495ZM77.8611 33.1624V34.8137C77.8611 35.6047 77.7825 36.28 77.6252 36.8397C77.4725 37.3948 77.2505 37.8458 76.9591 38.1927C76.6677 38.5397 76.3184 38.7941 75.9114 38.956C75.5089 39.1179 75.0579 39.1988 74.5584 39.1988C74.1606 39.1988 73.7905 39.1479 73.4482 39.0462C73.1105 38.9444 72.8053 38.7848 72.5323 38.5674C72.2594 38.35 72.0258 38.0702 71.8316 37.7279C71.6419 37.3809 71.4939 36.967 71.3875 36.4859C71.2857 36.0048 71.2348 35.4474 71.2348 34.8137V33.1624C71.2348 32.3667 71.3135 31.696 71.4708 31.1502C71.628 30.5997 71.8524 30.1534 72.1438 29.8111C72.4352 29.4641 72.7821 29.212 73.1846 29.0548C73.5916 28.8975 74.0449 28.8189 74.5445 28.8189C74.9469 28.8189 75.317 28.8697 75.6547 28.9715C75.997 29.0687 76.3022 29.2236 76.5705 29.4364C76.8434 29.6492 77.0747 29.9267 77.2644 30.269C77.4587 30.6067 77.6067 31.0161 77.7084 31.4971C77.8102 31.9736 77.8611 32.5286 77.8611 33.1624ZM76.1889 35.0496V32.9126C76.1889 32.5101 76.1658 32.1563 76.1195 31.851C76.0733 31.5411 76.0039 31.2797 75.9114 31.0669C75.8235 30.8495 75.7125 30.6738 75.5783 30.5396C75.4442 30.4008 75.2915 30.3014 75.1204 30.2413C74.9492 30.1765 74.7573 30.1441 74.5445 30.1441C74.2855 30.1441 74.0542 30.195 73.8507 30.2968C73.6471 30.3939 73.476 30.5512 73.3372 30.7686C73.1984 30.986 73.092 31.2728 73.018 31.629C72.9486 31.9805 72.914 32.4084 72.914 32.9126V35.0496C72.914 35.4567 72.9371 35.8152 72.9833 36.1251C73.0296 36.435 73.099 36.701 73.1915 36.923C73.284 37.1404 73.395 37.3208 73.5245 37.4642C73.6587 37.603 73.8113 37.7047 73.9825 37.7695C74.1583 37.8343 74.3502 37.8666 74.5584 37.8666C74.822 37.8666 75.0556 37.8158 75.2592 37.714C75.4627 37.6122 75.6338 37.4503 75.7726 37.2283C75.9114 37.0016 76.0155 36.7079 76.0848 36.3471C76.1542 35.9863 76.1889 35.5538 76.1889 35.0496Z" fill="#170E2B"/>
<rect width="365.4" height="48.72" transform="translate(30.3003 785.28)" fill="#F5F5F5"/>
<rect x="307.396" y="802.535" width="14.21" height="14.21" rx="2.03" fill="#797979"/>
<path fill-rule="evenodd" clip-rule="evenodd" d="M115.037 802.683C115.714 802.276 116.576 802.763 116.576 803.553V815.727C116.576 816.517 115.714 817.004 115.037 816.597L104.925 810.51C104.27 810.115 104.27 809.165 104.925 808.771L115.037 802.683Z" fill="#797979"/>
<path fill-rule="evenodd" clip-rule="evenodd" d="M221.12 809.64C221.12 814.125 217.485 817.76 213 817.76C208.516 817.76 204.88 814.125 204.88 809.64C204.88 805.156 208.516 801.52 213 801.52C217.485 801.52 221.12 805.156 221.12 809.64ZM220.105 809.64C220.105 813.564 216.924 816.745 213 816.745C209.076 816.745 205.895 813.564 205.895 809.64C205.895 805.716 209.076 802.535 213 802.535C216.924 802.535 220.105 805.716 220.105 809.64ZM213 815.73C216.364 815.73 219.09 813.004 219.09 809.64C219.09 806.277 216.364 803.55 213 803.55C209.637 803.55 206.91 806.277 206.91 809.64C206.91 813.004 209.637 815.73 213 815.73Z" fill="#797979"/>
<rect x="46.54" y="63.615" width="48.72" height="48.72" rx="10.15" fill="#004579" fill-opacity="0.02"/>
<path d="M78.0049 87.975H63.7949" stroke="black" stroke-width="2.03" stroke-linecap="round" stroke-linejoin="round"/>
<path d="M70.8999 95.08L63.7949 87.975L70.8999 80.87" stroke="black" stroke-width="2.03" stroke-linecap="round" stroke-linejoin="round"/>
<path d="M124.876 92.84V82.353H129.139C129.528 82.353 129.892 82.4004 130.233 82.4951C130.584 82.5803 130.892 82.7414 131.157 82.9782C131.432 83.2151 131.645 83.5466 131.796 83.9729C131.958 84.3898 132.038 84.9345 132.038 85.6071C132.038 86.1281 131.986 86.5639 131.882 86.9144C131.778 87.2554 131.64 87.5349 131.47 87.7528C131.299 87.9707 131.105 88.1412 130.887 88.2643C130.679 88.378 130.47 88.4728 130.262 88.5485L132.28 92.84H130.503L128.685 88.8043C128.552 88.8043 128.396 88.8043 128.216 88.8043C128.045 88.8043 127.865 88.8043 127.676 88.8043C127.486 88.7949 127.301 88.7901 127.121 88.7901C126.941 88.7806 126.776 88.7759 126.624 88.7759V92.84H124.876ZM126.624 87.3975H128.841C129.049 87.3975 129.239 87.3739 129.409 87.3265C129.58 87.2696 129.731 87.1749 129.864 87.0423C129.997 86.9097 130.096 86.7297 130.162 86.5023C130.238 86.2749 130.276 85.9813 130.276 85.6213C130.276 85.2708 130.238 84.9866 130.162 84.7687C130.096 84.5413 129.997 84.3708 129.864 84.2571C129.731 84.134 129.575 84.0487 129.395 84.0013C129.224 83.954 129.04 83.9303 128.841 83.9303H126.624V87.3975ZM136.008 92.911C135.183 92.911 134.525 92.7973 134.032 92.57C133.549 92.3426 133.199 91.9495 132.981 91.3905C132.763 90.8221 132.654 90.0359 132.654 89.0317C132.654 88.0086 132.758 87.2175 132.967 86.6586C133.175 86.0902 133.521 85.6923 134.004 85.465C134.487 85.2376 135.141 85.1239 135.965 85.1239C136.694 85.1239 137.277 85.1997 137.713 85.3513C138.158 85.4934 138.48 85.7539 138.679 86.1328C138.888 86.5023 138.992 87.0281 138.992 87.7102C138.992 88.1933 138.897 88.5817 138.708 88.8754C138.518 89.1596 138.243 89.3633 137.883 89.4864C137.533 89.6096 137.116 89.6711 136.633 89.6711H134.402C134.421 90.1448 134.482 90.5237 134.587 90.8079C134.7 91.0827 134.899 91.2816 135.183 91.4048C135.477 91.5279 135.903 91.5895 136.462 91.5895H138.764V92.6268C138.376 92.7026 137.964 92.7689 137.528 92.8258C137.102 92.8826 136.595 92.911 136.008 92.911ZM134.388 88.6054H136.462C136.794 88.6054 137.036 88.5438 137.187 88.4207C137.348 88.288 137.429 88.0512 137.429 87.7102C137.429 87.3786 137.381 87.1181 137.287 86.9286C137.192 86.7391 137.036 86.6065 136.818 86.5307C136.6 86.4455 136.316 86.4028 135.965 86.4028C135.567 86.4028 135.255 86.4644 135.027 86.5876C134.8 86.7107 134.634 86.9333 134.53 87.2554C134.435 87.5681 134.388 88.018 134.388 88.6054ZM142.716 92.9252C142.498 92.9252 142.247 92.9158 141.963 92.8968C141.688 92.8873 141.408 92.8684 141.124 92.84C140.849 92.821 140.594 92.7926 140.357 92.7547C140.12 92.7168 139.926 92.6742 139.774 92.6268V91.5895H143.057C143.294 91.5895 143.492 91.5705 143.654 91.5326C143.824 91.4948 143.952 91.419 144.037 91.3053C144.122 91.1916 144.165 91.0211 144.165 90.7937V90.5237C144.165 90.2869 144.085 90.1022 143.924 89.9695C143.772 89.8274 143.502 89.7564 143.114 89.7564H141.963C141.517 89.7564 141.119 89.6948 140.769 89.5717C140.428 89.4485 140.158 89.2401 139.959 88.9464C139.76 88.6528 139.661 88.2549 139.661 87.7528V87.3265C139.661 86.8433 139.751 86.4455 139.93 86.1328C140.12 85.8108 140.428 85.5692 140.854 85.4081C141.29 85.2376 141.868 85.1524 142.588 85.1524C142.891 85.1524 143.218 85.1666 143.568 85.195C143.919 85.2234 144.255 85.2613 144.577 85.3087C144.899 85.3466 145.155 85.3939 145.345 85.4508V86.4881H142.247C141.896 86.4881 141.626 86.5497 141.437 86.6728C141.257 86.7865 141.167 87.0044 141.167 87.3265V87.5965C141.167 87.8049 141.209 87.9612 141.295 88.0654C141.38 88.1696 141.508 88.2407 141.678 88.2786C141.849 88.3164 142.053 88.3354 142.289 88.3354H143.469C144.217 88.3354 144.771 88.5059 145.131 88.847C145.491 89.188 145.671 89.6711 145.671 90.2964V90.9216C145.671 91.4332 145.553 91.8358 145.316 92.1295C145.079 92.4231 144.738 92.6316 144.293 92.7547C143.857 92.8684 143.331 92.9252 142.716 92.9252ZM149.678 92.911C148.853 92.911 148.195 92.7973 147.702 92.57C147.219 92.3426 146.869 91.9495 146.651 91.3905C146.433 90.8221 146.324 90.0359 146.324 89.0317C146.324 88.0086 146.428 87.2175 146.637 86.6586C146.845 86.0902 147.191 85.6923 147.674 85.465C148.157 85.2376 148.811 85.1239 149.635 85.1239C150.364 85.1239 150.947 85.1997 151.383 85.3513C151.828 85.4934 152.15 85.7539 152.349 86.1328C152.557 86.5023 152.662 87.0281 152.662 87.7102C152.662 88.1933 152.567 88.5817 152.377 88.8754C152.188 89.1596 151.913 89.3633 151.553 89.4864C151.203 89.6096 150.786 89.6711 150.303 89.6711H148.072C148.091 90.1448 148.152 90.5237 148.257 90.8079C148.37 91.0827 148.569 91.2816 148.853 91.4048C149.147 91.5279 149.573 91.5895 150.132 91.5895H152.434V92.6268C152.046 92.7026 151.634 92.7689 151.198 92.8258C150.772 92.8826 150.265 92.911 149.678 92.911ZM148.058 88.6054H150.132C150.464 88.6054 150.705 88.5438 150.857 88.4207C151.018 88.288 151.099 88.0512 151.099 87.7102C151.099 87.3786 151.051 87.1181 150.956 86.9286C150.862 86.7391 150.705 86.6065 150.488 86.5307C150.27 86.4455 149.985 86.4028 149.635 86.4028C149.237 86.4028 148.924 86.4644 148.697 86.5876C148.47 86.7107 148.304 86.9333 148.2 87.2554C148.105 87.5681 148.058 88.018 148.058 88.6054ZM153.657 92.84V85.2234H155.021L155.419 86.4455C155.722 86.076 156.059 85.7634 156.428 85.5076C156.798 85.2518 157.238 85.1239 157.75 85.1239C157.854 85.1239 157.963 85.1334 158.077 85.1524C158.19 85.1618 158.294 85.1808 158.389 85.2092V86.9997C158.257 86.9807 158.114 86.9665 157.963 86.957C157.811 86.9476 157.664 86.9428 157.522 86.9428C157.229 86.9428 156.959 86.976 156.712 87.0423C156.476 87.1086 156.253 87.2128 156.045 87.3549C155.836 87.4875 155.628 87.6581 155.419 87.8665V92.84H153.657ZM161.017 92.84L158.36 85.2234H160.165L162.069 91.2058L164.016 85.2234H165.806L163.035 92.84H161.017ZM167.642 92.9252C167.073 92.9252 166.609 92.7547 166.249 92.4137C165.889 92.0726 165.709 91.6037 165.709 91.0069V90.3674C165.709 89.7801 165.908 89.3017 166.306 88.9322C166.713 88.5628 167.334 88.378 168.167 88.378H170.342V87.7102C170.342 87.4449 170.294 87.2223 170.199 87.0423C170.105 86.8623 169.934 86.7297 169.688 86.6444C169.442 86.5497 169.067 86.5023 168.565 86.5023H166.263V85.4792C166.614 85.3845 167.026 85.3039 167.5 85.2376C167.973 85.1618 168.537 85.1239 169.191 85.1239C169.816 85.1145 170.346 85.1902 170.782 85.3513C171.218 85.5029 171.545 85.7586 171.763 86.1186C171.99 86.4786 172.104 86.9712 172.104 87.5965V92.84H170.725L170.427 92.0158C170.361 92.0726 170.242 92.1484 170.072 92.2431C169.901 92.3379 169.688 92.4421 169.432 92.5558C169.176 92.66 168.892 92.75 168.58 92.8258C168.276 92.8921 167.964 92.9252 167.642 92.9252ZM168.494 91.689C168.617 91.689 168.755 91.6747 168.906 91.6463C169.067 91.6084 169.228 91.5705 169.389 91.5326C169.551 91.4853 169.697 91.4426 169.83 91.4048C169.972 91.3574 170.086 91.3148 170.171 91.2769C170.266 91.239 170.323 91.2153 170.342 91.2058V89.2164L168.693 89.3017C168.257 89.3396 167.94 89.4532 167.741 89.6427C167.552 89.8322 167.457 90.0832 167.457 90.3958V90.7085C167.457 90.9453 167.504 91.1395 167.599 91.2911C167.703 91.4332 167.831 91.5326 167.983 91.5895C168.144 91.6463 168.314 91.6795 168.494 91.689ZM176.052 92.84C175.502 92.84 175.052 92.7594 174.702 92.5984C174.351 92.4279 174.096 92.1484 173.935 91.76C173.783 91.3716 173.712 90.86 173.721 90.2253L173.778 86.6444H172.585V85.5076L173.835 85.2234L174.091 83.0919H175.469V85.2234H177.402V86.6444H175.469V90.2111C175.469 90.4574 175.493 90.6611 175.54 90.8221C175.588 90.9737 175.654 91.0969 175.739 91.1916C175.834 91.2769 175.933 91.3384 176.038 91.3763C176.142 91.4142 176.251 91.4379 176.364 91.4474L177.317 91.5469V92.84H176.052ZM178.352 84.0156C178.172 84.0156 178.082 83.9303 178.082 83.7598V82.4667C178.082 82.2772 178.172 82.1825 178.352 82.1825H179.688C179.773 82.1825 179.834 82.2109 179.872 82.2677C179.92 82.3246 179.943 82.3909 179.943 82.4667V83.7598C179.943 83.9303 179.858 84.0156 179.688 84.0156H178.352ZM178.125 92.84V85.2234H179.887V92.84H178.125ZM184.306 92.911C183.709 92.911 183.192 92.8494 182.757 92.7263C182.321 92.6031 181.966 92.3947 181.691 92.101C181.416 91.8074 181.213 91.4095 181.08 90.9074C180.947 90.4053 180.881 89.7753 180.881 89.0175C180.881 88.2312 180.947 87.587 181.08 87.0849C181.213 86.5734 181.416 86.1755 181.691 85.8913C181.975 85.5976 182.335 85.3987 182.771 85.2945C183.207 85.1808 183.718 85.1239 184.306 85.1239C184.912 85.1239 185.433 85.1855 185.869 85.3087C186.304 85.4223 186.66 85.6213 186.934 85.9055C187.209 86.1897 187.413 86.5876 187.545 87.0991C187.678 87.6012 187.744 88.2407 187.744 89.0175C187.744 89.7848 187.678 90.4243 187.545 90.9358C187.422 91.4379 187.223 91.8358 186.949 92.1295C186.674 92.4137 186.319 92.6173 185.883 92.7405C185.447 92.8542 184.921 92.911 184.306 92.911ZM184.306 91.5042C184.599 91.5042 184.85 91.4805 185.059 91.4332C185.267 91.3763 185.438 91.2674 185.57 91.1063C185.712 90.9358 185.817 90.6848 185.883 90.3532C185.949 90.0122 185.982 89.5622 185.982 89.0033C185.982 88.4538 185.949 88.0133 185.883 87.6817C185.817 87.3502 185.712 87.1039 185.57 86.9428C185.438 86.7723 185.267 86.6634 185.059 86.616C184.85 86.5591 184.599 86.5307 184.306 86.5307C184.021 86.5307 183.775 86.5591 183.567 86.616C183.358 86.6634 183.188 86.7723 183.055 86.9428C182.922 87.1039 182.818 87.3502 182.742 87.6817C182.676 88.0133 182.643 88.4538 182.643 89.0033C182.643 89.5622 182.676 90.0122 182.742 90.3532C182.818 90.6848 182.922 90.9358 183.055 91.1063C183.188 91.2674 183.358 91.3763 183.567 91.4332C183.775 91.4805 184.021 91.5042 184.306 91.5042ZM188.742 92.84V85.2234H190.177L190.504 86.0192C190.816 85.7823 191.195 85.5692 191.64 85.3797C192.095 85.1902 192.564 85.0955 193.047 85.0955C193.644 85.0955 194.113 85.2187 194.454 85.465C194.795 85.7018 195.037 86.0239 195.179 86.4313C195.33 86.8386 195.406 87.2839 195.406 87.767V92.84H193.644V87.9801C193.644 87.7054 193.592 87.4733 193.488 87.2839C193.383 87.0944 193.237 86.9476 193.047 86.8433C192.867 86.7391 192.645 86.687 192.379 86.687C192.133 86.687 191.901 86.7107 191.683 86.7581C191.475 86.8055 191.276 86.8765 191.086 86.9712C190.897 87.066 190.702 87.1796 190.504 87.3123V92.84H188.742ZM202.234 92.9252C201.637 92.9252 201.135 92.7973 200.728 92.5416C200.32 92.2763 200.012 91.8642 199.804 91.3053C199.605 90.7369 199.505 90.0027 199.505 89.1027C199.505 88.1554 199.595 87.3928 199.775 86.8149C199.955 86.2276 200.254 85.8013 200.671 85.536C201.097 85.2613 201.665 85.1239 202.376 85.1239C202.755 85.1239 203.129 85.1618 203.498 85.2376C203.868 85.3134 204.19 85.4034 204.465 85.5076V81.9977H206.227V92.84H204.763L204.465 92.101C204.313 92.2431 204.11 92.3758 203.854 92.4989C203.607 92.6221 203.342 92.7263 203.058 92.8115C202.783 92.8873 202.509 92.9252 202.234 92.9252ZM202.831 91.5042C203.172 91.5042 203.48 91.4521 203.754 91.3479C204.029 91.2342 204.266 91.1206 204.465 91.0069V86.7723C204.228 86.687 203.986 86.6112 203.74 86.5449C203.494 86.4786 203.224 86.4455 202.93 86.4455C202.532 86.4455 202.21 86.5213 201.964 86.6728C201.717 86.8149 201.538 87.0707 201.424 87.4402C201.32 87.8096 201.268 88.3354 201.268 89.0175C201.268 89.6522 201.32 90.1543 201.424 90.5237C201.528 90.8837 201.694 91.1395 201.921 91.2911C202.158 91.4332 202.461 91.5042 202.831 91.5042ZM207.635 85.6639C207.531 85.6639 207.45 85.6639 207.393 85.6639C207.336 85.6544 207.279 85.645 207.223 85.6355V84.9818C207.393 84.9818 207.497 84.9439 207.535 84.8682C207.573 84.7829 207.592 84.6976 207.592 84.6124V84.1008H207.464C207.379 84.1008 207.308 84.0771 207.251 84.0298C207.194 83.9729 207.166 83.8971 207.166 83.8024V82.4809C207.166 82.263 207.265 82.154 207.464 82.154H208.544C208.639 82.154 208.705 82.1872 208.743 82.2535C208.781 82.3104 208.8 82.3861 208.8 82.4809V84.5982C208.8 84.9013 208.734 85.1334 208.601 85.2945C208.468 85.446 208.312 85.5455 208.132 85.5929C207.952 85.6402 207.786 85.6639 207.635 85.6639ZM212.053 92.9252C211.352 92.9252 210.807 92.731 210.419 92.3426C210.031 91.9447 209.836 91.3669 209.836 90.609V85.2234H211.598V90.0974C211.598 90.5995 211.712 90.9358 211.939 91.1063C212.176 91.2769 212.494 91.3621 212.892 91.3621C213.223 91.3621 213.545 91.31 213.858 91.2058C214.17 91.1016 214.464 90.95 214.739 90.7511V85.2234H216.501V92.84H215.066L214.739 92.0442C214.379 92.2716 213.967 92.4752 213.503 92.6552C213.048 92.8352 212.565 92.9252 212.053 92.9252ZM217.705 92.84V85.2234H219.141L219.468 86.0192C219.78 85.7823 220.159 85.5692 220.604 85.3797C221.059 85.1902 221.528 85.0955 222.011 85.0955C222.608 85.0955 223.077 85.2187 223.418 85.465C223.759 85.7018 224.001 86.0239 224.143 86.4313C224.294 86.8386 224.37 87.2839 224.37 87.767V92.84H222.608V87.9801C222.608 87.7054 222.556 87.4733 222.452 87.2839C222.347 87.0944 222.201 86.9476 222.011 86.8433C221.831 86.7391 221.609 86.687 221.343 86.687C221.097 86.687 220.865 86.7107 220.647 86.7581C220.439 86.8055 220.24 86.8765 220.05 86.9712C219.861 87.066 219.666 87.1796 219.468 87.3123V92.84H217.705ZM228.711 92.84V85.2234H230.075L230.473 86.4455C230.776 86.076 231.113 85.7634 231.482 85.5076C231.851 85.2518 232.292 85.1239 232.803 85.1239C232.908 85.1239 233.017 85.1334 233.13 85.1524C233.244 85.1618 233.348 85.1808 233.443 85.2092V86.9997C233.31 86.9807 233.168 86.9665 233.017 86.957C232.865 86.9476 232.718 86.9428 232.576 86.9428C232.282 86.9428 232.012 86.976 231.766 87.0423C231.529 87.1086 231.307 87.2128 231.098 87.3549C230.89 87.4875 230.681 87.6581 230.473 87.8665V92.84H228.711ZM237.208 92.911C236.384 92.911 235.725 92.7973 235.233 92.57C234.749 92.3426 234.399 91.9495 234.181 91.3905C233.963 90.8221 233.854 90.0359 233.854 89.0317C233.854 88.0086 233.958 87.2175 234.167 86.6586C234.375 86.0902 234.721 85.6923 235.204 85.465C235.687 85.2376 236.341 85.1239 237.165 85.1239C237.895 85.1239 238.477 85.1997 238.913 85.3513C239.358 85.4934 239.68 85.7539 239.879 86.1328C240.088 86.5023 240.192 87.0281 240.192 87.7102C240.192 88.1933 240.097 88.5817 239.908 88.8754C239.718 89.1596 239.444 89.3633 239.084 89.4864C238.733 89.6096 238.316 89.6711 237.833 89.6711H235.602C235.621 90.1448 235.683 90.5237 235.787 90.8079C235.901 91.0827 236.099 91.2816 236.384 91.4048C236.677 91.5279 237.104 91.5895 237.663 91.5895H239.965V92.6268C239.576 92.7026 239.164 92.7689 238.728 92.8258C238.302 92.8826 237.795 92.911 237.208 92.911ZM235.588 88.6054H237.663C237.994 88.6054 238.236 88.5438 238.387 88.4207C238.548 88.288 238.629 88.0512 238.629 87.7102C238.629 87.3786 238.581 87.1181 238.487 86.9286C238.392 86.7391 238.236 86.6065 238.018 86.5307C237.8 86.4455 237.516 86.4028 237.165 86.4028C236.767 86.4028 236.455 86.4644 236.227 86.5876C236 86.7107 235.834 86.9333 235.73 87.2554C235.635 87.5681 235.588 88.018 235.588 88.6054ZM241.188 92.84V85.2234H242.623L242.95 86.0192C243.262 85.7823 243.641 85.5692 244.086 85.3797C244.541 85.1902 245.01 85.0955 245.493 85.0955C246.09 85.0955 246.559 85.2187 246.9 85.465C247.241 85.7018 247.483 86.0239 247.625 86.4313C247.776 86.8386 247.852 87.2839 247.852 87.767V92.84H246.09V87.9801C246.09 87.7054 246.038 87.4733 245.934 87.2839C245.829 87.0944 245.683 86.9476 245.493 86.8433C245.313 86.7391 245.091 86.687 244.825 86.687C244.579 86.687 244.347 86.7107 244.129 86.7581C243.921 86.8055 243.722 86.8765 243.532 86.9712C243.343 87.066 243.148 87.1796 242.95 87.3123V92.84H241.188ZM251.529 92.9252C250.932 92.9252 250.43 92.7973 250.023 92.5416C249.616 92.2763 249.308 91.8642 249.099 91.3053C248.9 90.7369 248.801 90.0027 248.801 89.1027C248.801 88.1554 248.891 87.3928 249.071 86.8149C249.251 86.2276 249.549 85.8013 249.966 85.536C250.392 85.2613 250.961 85.1239 251.671 85.1239C252.05 85.1239 252.424 85.1618 252.794 85.2376C253.163 85.3134 253.485 85.4034 253.76 85.5076V81.9977H255.522V92.84H254.059L253.76 92.101C253.609 92.2431 253.405 92.3758 253.149 92.4989C252.903 92.6221 252.638 92.7263 252.353 92.8115C252.079 92.8873 251.804 92.9252 251.529 92.9252ZM252.126 91.5042C252.467 91.5042 252.775 91.4521 253.05 91.3479C253.324 91.2342 253.561 91.1206 253.76 91.0069V86.7723C253.523 86.687 253.282 86.6112 253.035 86.5449C252.789 86.4786 252.519 86.4455 252.225 86.4455C251.828 86.4455 251.505 86.5213 251.259 86.6728C251.013 86.8149 250.833 87.0707 250.719 87.4402C250.615 87.8096 250.563 88.3354 250.563 89.0175C250.563 89.6522 250.615 90.1543 250.719 90.5237C250.823 90.8837 250.989 91.1395 251.217 91.2911C251.453 91.4332 251.757 91.5042 252.126 91.5042ZM259.829 92.911C259.005 92.911 258.346 92.7973 257.854 92.57C257.371 92.3426 257.02 91.9495 256.802 91.3905C256.584 90.8221 256.475 90.0359 256.475 89.0317C256.475 88.0086 256.58 87.2175 256.788 86.6586C256.996 86.0902 257.342 85.6923 257.825 85.465C258.308 85.2376 258.962 85.1239 259.786 85.1239C260.516 85.1239 261.098 85.1997 261.534 85.3513C261.979 85.4934 262.301 85.7539 262.5 86.1328C262.709 86.5023 262.813 87.0281 262.813 87.7102C262.813 88.1933 262.718 88.5817 262.529 88.8754C262.339 89.1596 262.065 89.3633 261.705 89.4864C261.354 89.6096 260.937 89.6711 260.454 89.6711H258.223C258.242 90.1448 258.304 90.5237 258.408 90.8079C258.522 91.0827 258.721 91.2816 259.005 91.4048C259.298 91.5279 259.725 91.5895 260.284 91.5895H262.586V92.6268C262.197 92.7026 261.785 92.7689 261.349 92.8258C260.923 92.8826 260.416 92.911 259.829 92.911ZM258.209 88.6054H260.284C260.615 88.6054 260.857 88.5438 261.008 88.4207C261.169 88.288 261.25 88.0512 261.25 87.7102C261.25 87.3786 261.203 87.1181 261.108 86.9286C261.013 86.7391 260.857 86.6065 260.639 86.5307C260.421 86.4455 260.137 86.4028 259.786 86.4028C259.388 86.4028 259.076 86.4644 258.848 86.5876C258.621 86.7107 258.455 86.9333 258.351 87.2554C258.256 87.5681 258.209 88.018 258.209 88.6054ZM263.581 92.84V91.5611L267.446 86.6444H263.453V85.2234H269.493V86.5023L265.613 91.419H269.493V92.84H263.581ZM269.791 89.4296V88.0086H274.082V89.4296H269.791ZM276.692 92.84L274.035 85.2234H275.84L277.744 91.2058L279.691 85.2234H281.481L278.71 92.84H276.692ZM284.922 92.911C284.326 92.911 283.809 92.8494 283.373 92.7263C282.938 92.6031 282.582 92.3947 282.308 92.101C282.033 91.8074 281.829 91.4095 281.697 90.9074C281.564 90.4053 281.498 89.7753 281.498 89.0175C281.498 88.2312 281.564 87.587 281.697 87.0849C281.829 86.5734 282.033 86.1755 282.308 85.8913C282.592 85.5976 282.952 85.3987 283.388 85.2945C283.823 85.1808 284.335 85.1239 284.922 85.1239C285.529 85.1239 286.05 85.1855 286.485 85.3087C286.921 85.4223 287.276 85.6213 287.551 85.9055C287.826 86.1897 288.03 86.5876 288.162 87.0991C288.295 87.6012 288.361 88.2407 288.361 89.0175C288.361 89.7848 288.295 90.4243 288.162 90.9358C288.039 91.4379 287.84 91.8358 287.565 92.1295C287.291 92.4137 286.935 92.6173 286.5 92.7405C286.064 92.8542 285.538 92.911 284.922 92.911ZM284.922 91.5042C285.216 91.5042 285.467 91.4805 285.675 91.4332C285.884 91.3763 286.054 91.2674 286.187 91.1063C286.329 90.9358 286.433 90.6848 286.5 90.3532C286.566 90.0122 286.599 89.5622 286.599 89.0033C286.599 88.4538 286.566 88.0133 286.5 87.6817C286.433 87.3502 286.329 87.1039 286.187 86.9428C286.054 86.7723 285.884 86.6634 285.675 86.616C285.467 86.5591 285.216 86.5307 284.922 86.5307C284.638 86.5307 284.392 86.5591 284.183 86.616C283.975 86.6634 283.804 86.7723 283.672 86.9428C283.539 87.1039 283.435 87.3502 283.359 87.6817C283.293 88.0133 283.26 88.4538 283.26 89.0033C283.26 89.5622 283.293 90.0122 283.359 90.3532C283.435 90.6848 283.539 90.9358 283.672 91.1063C283.804 91.2674 283.975 91.3763 284.183 91.4332C284.392 91.4805 284.638 91.5042 284.922 91.5042ZM291.561 92.9252C290.86 92.9252 290.315 92.731 289.927 92.3426C289.538 91.9447 289.344 91.3669 289.344 90.609V85.2234H291.106V90.0974C291.106 90.5995 291.22 90.9358 291.447 91.1063C291.684 91.2769 292.001 91.3621 292.399 91.3621C292.731 91.3621 293.053 91.31 293.366 91.2058C293.678 91.1016 293.972 90.95 294.247 90.7511V85.2234H296.009V92.84H294.573L294.247 92.0442C293.887 92.2716 293.474 92.4752 293.01 92.6552C292.556 92.8352 292.072 92.9252 291.561 92.9252ZM299.942 92.9252C299.724 92.9252 299.473 92.9158 299.188 92.8968C298.914 92.8873 298.634 92.8684 298.35 92.84C298.075 92.821 297.82 92.7926 297.583 92.7547C297.346 92.7168 297.152 92.6742 297 92.6268V91.5895H300.283C300.519 91.5895 300.718 91.5705 300.879 91.5326C301.05 91.4948 301.178 91.419 301.263 91.3053C301.348 91.1916 301.391 91.0211 301.391 90.7937V90.5237C301.391 90.2869 301.31 90.1022 301.149 89.9695C300.998 89.8274 300.728 89.7564 300.339 89.7564H299.188C298.743 89.7564 298.345 89.6948 297.995 89.5717C297.654 89.4485 297.384 89.2401 297.185 88.9464C296.986 88.6528 296.886 88.2549 296.886 87.7528V87.3265C296.886 86.8433 296.976 86.4455 297.156 86.1328C297.346 85.8108 297.654 85.5692 298.08 85.4081C298.516 85.2376 299.094 85.1524 299.814 85.1524C300.117 85.1524 300.444 85.1666 300.794 85.195C301.145 85.2234 301.481 85.2613 301.803 85.3087C302.125 85.3466 302.381 85.3939 302.57 85.4508V86.4881H299.473C299.122 86.4881 298.852 86.5497 298.663 86.6728C298.483 86.7865 298.393 87.0044 298.393 87.3265V87.5965C298.393 87.8049 298.435 87.9612 298.521 88.0654C298.606 88.1696 298.734 88.2407 298.904 88.2786C299.075 88.3164 299.278 88.3354 299.515 88.3354H300.695C301.443 88.3354 301.997 88.5059 302.357 88.847C302.717 89.188 302.897 89.6711 302.897 90.2964V90.9216C302.897 91.4332 302.779 91.8358 302.542 92.1295C302.305 92.4231 301.964 92.6316 301.519 92.7547C301.083 92.8684 300.557 92.9252 299.942 92.9252Z" fill="black"/>
<rect x="46.54" y="137.71" width="332.92" height="60.9" rx="10.15" fill="#004579" fill-opacity="0.03"/>
<rect x="47.0475" y="138.218" width="331.905" height="59.885" rx="9.6425" stroke="#004579" stroke-opacity="0.02" stroke-width="1.015"/>
<rect x="46.54" y="376.235" width="332.92" height="60.9" rx="10.15" fill="#004579" fill-opacity="0.03"/>
<rect x="47.0475" y="376.743" width="331.905" height="59.885" rx="9.6425" stroke="#004579" stroke-opacity="0.02" stroke-width="1.015"/>
<rect x="46.54" y="454.39" width="332.92" height="60.9" rx="10.15" fill="#004579" fill-opacity="0.03"/>
<rect x="47.0475" y="454.898" width="331.905" height="59.885" rx="9.6425" stroke="#004579" stroke-opacity="0.02" stroke-width="1.015"/>
<rect x="46.54" y="215.865" width="332.92" height="143.115" rx="10.15" fill="#004579" fill-opacity="0.03"/>
<rect x="47.0475" y="216.373" width="331.905" height="142.1" rx="9.6425" stroke="#004579" stroke-opacity="0.02" stroke-width="1.015"/>
<path d="M63.7097 172.04V163.953H60.9449V163.076H67.449V163.953H64.6841V172.04H63.7097ZM68.7328 164.379C68.6029 164.379 68.538 164.314 68.538 164.184V163.234C68.538 163.104 68.6029 163.039 68.7328 163.039H69.4149C69.4799 163.039 69.5245 163.059 69.5489 163.1C69.5814 163.132 69.5976 163.177 69.5976 163.234V164.184C69.5976 164.314 69.5367 164.379 69.4149 164.379H68.7328ZM68.5867 172.04V165.536H69.5489V172.04H68.5867ZM73.5737 172.04C73.1515 172.04 72.8023 171.971 72.5263 171.833C72.2502 171.695 72.0472 171.472 71.9173 171.163C71.7873 170.855 71.7264 170.444 71.7346 169.933L71.7711 166.328H70.7358V165.706L71.7833 165.536L71.9416 163.721H72.6846V165.536H74.5603V166.328H72.6846V169.933C72.6846 170.217 72.713 170.444 72.7699 170.615C72.8348 170.785 72.916 170.915 73.0135 171.005C73.119 171.094 73.2286 171.159 73.3423 171.2C73.456 171.232 73.5656 171.252 73.6712 171.261L74.4629 171.334V172.04H73.5737ZM75.9024 172.04V165.536H76.6332L76.8646 166.669C77.1569 166.319 77.4817 166.031 77.839 165.804C78.2044 165.577 78.6226 165.463 79.0936 165.463C79.2072 165.463 79.3128 165.467 79.4102 165.475C79.5158 165.483 79.6132 165.499 79.7026 165.524V166.51C79.597 166.494 79.4833 166.482 79.3615 166.474C79.2397 166.458 79.1179 166.449 78.9961 166.449C78.6957 166.449 78.4277 166.486 78.1922 166.559C77.9568 166.632 77.7335 166.742 77.5223 166.888C77.3112 167.034 77.092 167.213 76.8646 167.424V172.04H75.9024ZM83.4188 172.113C82.7367 172.113 82.1967 172.012 81.7988 171.809C81.4091 171.606 81.1289 171.261 80.9584 170.773C80.7879 170.286 80.7026 169.62 80.7026 168.776C80.7026 167.915 80.7879 167.245 80.9584 166.766C81.1371 166.279 81.4253 165.938 81.8232 165.743C82.2211 165.548 82.757 165.451 83.431 165.451C84.0075 165.451 84.4744 165.516 84.8317 165.646C85.1971 165.775 85.465 165.999 85.6355 166.315C85.8142 166.624 85.9035 167.054 85.9035 167.607C85.9035 167.988 85.8264 168.297 85.6721 168.532C85.5259 168.76 85.3107 168.926 85.0265 169.032C84.7505 169.129 84.4216 169.178 84.04 169.178H81.6649C81.673 169.706 81.7298 170.132 81.8354 170.457C81.9409 170.773 82.1318 171.005 82.4078 171.151C82.692 171.289 83.1062 171.358 83.6502 171.358H85.7452V171.943C85.3716 171.991 85.0062 172.032 84.649 172.064C84.2917 172.097 83.8816 172.113 83.4188 172.113ZM81.6527 168.544H83.9669C84.3323 168.544 84.6002 168.479 84.7708 168.349C84.9494 168.211 85.0387 167.968 85.0387 167.619C85.0387 167.245 84.9819 166.957 84.8682 166.754C84.7626 166.543 84.5921 166.397 84.3566 166.315C84.1293 166.226 83.8207 166.181 83.431 166.181C82.9762 166.181 82.619 166.25 82.3591 166.389C82.0993 166.518 81.9166 166.754 81.811 167.095C81.7055 167.436 81.6527 167.919 81.6527 168.544ZM92.938 172.113C92.4021 172.113 91.9596 171.999 91.6104 171.772C91.2694 171.537 91.0136 171.179 90.8431 170.7C90.6807 170.213 90.5995 169.592 90.5995 168.837C90.5995 168.033 90.6807 167.383 90.8431 166.888C91.0055 166.384 91.2653 166.019 91.6226 165.792C91.9799 165.564 92.459 165.451 93.0598 165.451C93.4252 165.451 93.7825 165.491 94.1317 165.572C94.4808 165.654 94.7894 165.743 95.0574 165.84V162.747H96.0196V172.04H95.2401L95.0574 171.382C94.9356 171.488 94.7529 171.597 94.5093 171.711C94.2738 171.825 94.0139 171.922 93.7297 172.003C93.4537 172.077 93.1898 172.113 92.938 172.113ZM93.2182 171.321C93.5917 171.321 93.9287 171.265 94.2291 171.151C94.5377 171.029 94.8138 170.903 95.0574 170.773V166.522C94.765 166.433 94.4849 166.36 94.2169 166.303C93.949 166.238 93.6485 166.206 93.3156 166.206C92.9015 166.206 92.5645 166.283 92.3047 166.437C92.0448 166.592 91.854 166.859 91.7322 167.241C91.6185 167.615 91.5617 168.134 91.5617 168.8C91.5617 169.401 91.6145 169.888 91.72 170.262C91.8337 170.635 92.0124 170.907 92.256 171.078C92.4996 171.24 92.8203 171.321 93.2182 171.321ZM99.7856 172.113C99.1603 172.113 98.6772 171.951 98.3361 171.626C98.0032 171.301 97.8368 170.798 97.8368 170.116V165.536H98.799V169.872C98.799 170.416 98.9208 170.785 99.1644 170.98C99.4161 171.167 99.7653 171.261 100.212 171.261C100.594 171.261 100.943 171.208 101.259 171.102C101.576 170.988 101.901 170.834 102.234 170.639V165.536H103.196V172.04H102.441L102.234 171.321C101.901 171.533 101.523 171.719 101.101 171.882C100.687 172.036 100.248 172.113 99.7856 172.113ZM108.317 172.04V165.536H109.048L109.279 166.669C109.571 166.319 109.896 166.031 110.253 165.804C110.619 165.577 111.037 165.463 111.508 165.463C111.622 165.463 111.727 165.467 111.825 165.475C111.93 165.483 112.028 165.499 112.117 165.524V166.51C112.011 166.494 111.898 166.482 111.776 166.474C111.654 166.458 111.532 166.449 111.41 166.449C111.11 166.449 110.842 166.486 110.607 166.559C110.371 166.632 110.148 166.742 109.937 166.888C109.726 167.034 109.506 167.213 109.279 167.424V172.04H108.317ZM115.833 172.113C115.151 172.113 114.611 172.012 114.213 171.809C113.823 171.606 113.543 171.261 113.373 170.773C113.202 170.286 113.117 169.62 113.117 168.776C113.117 167.915 113.202 167.245 113.373 166.766C113.551 166.279 113.84 165.938 114.238 165.743C114.635 165.548 115.171 165.451 115.845 165.451C116.422 165.451 116.889 165.516 117.246 165.646C117.611 165.775 117.879 165.999 118.05 166.315C118.228 166.624 118.318 167.054 118.318 167.607C118.318 167.988 118.241 168.297 118.086 168.532C117.94 168.76 117.725 168.926 117.441 169.032C117.165 169.129 116.836 169.178 116.454 169.178H114.079C114.087 169.706 114.144 170.132 114.25 170.457C114.355 170.773 114.546 171.005 114.822 171.151C115.106 171.289 115.52 171.358 116.065 171.358H118.159V171.943C117.786 171.991 117.421 172.032 117.063 172.064C116.706 172.097 116.296 172.113 115.833 172.113ZM114.067 168.544H116.381C116.747 168.544 117.015 168.479 117.185 168.349C117.364 168.211 117.453 167.968 117.453 167.619C117.453 167.245 117.396 166.957 117.283 166.754C117.177 166.543 117.006 166.397 116.771 166.315C116.544 166.226 116.235 166.181 115.845 166.181C115.391 166.181 115.033 166.25 114.773 166.389C114.514 166.518 114.331 166.754 114.225 167.095C114.12 167.436 114.067 167.919 114.067 168.544ZM119.95 172.04V165.536H120.705L120.912 166.255C121.221 166.035 121.582 165.844 121.996 165.682C122.41 165.512 122.841 165.426 123.287 165.426C123.767 165.426 124.152 165.528 124.445 165.731C124.737 165.934 124.952 166.202 125.09 166.535C125.228 166.868 125.297 167.229 125.297 167.619V172.04H124.335V167.728C124.335 167.452 124.278 167.209 124.164 166.998C124.059 166.778 123.905 166.608 123.702 166.486C123.507 166.364 123.263 166.303 122.971 166.303C122.703 166.303 122.451 166.332 122.216 166.389C121.988 166.437 121.769 166.51 121.558 166.608C121.355 166.697 121.14 166.807 120.912 166.937V172.04H119.95ZM129.23 172.113C128.694 172.113 128.251 171.999 127.902 171.772C127.561 171.537 127.306 171.179 127.135 170.7C126.973 170.213 126.891 169.592 126.891 168.837C126.891 168.033 126.973 167.383 127.135 166.888C127.297 166.384 127.557 166.019 127.915 165.792C128.272 165.564 128.751 165.451 129.352 165.451C129.717 165.451 130.074 165.491 130.424 165.572C130.773 165.654 131.081 165.743 131.349 165.84V162.747H132.311V172.04H131.532L131.349 171.382C131.227 171.488 131.045 171.597 130.801 171.711C130.566 171.825 130.306 171.922 130.022 172.003C129.746 172.077 129.482 172.113 129.23 172.113ZM129.51 171.321C129.884 171.321 130.221 171.265 130.521 171.151C130.83 171.029 131.106 170.903 131.349 170.773V166.522C131.057 166.433 130.777 166.36 130.509 166.303C130.241 166.238 129.94 166.206 129.608 166.206C129.193 166.206 128.856 166.283 128.597 166.437C128.337 166.592 128.146 166.859 128.024 167.241C127.91 167.615 127.854 168.134 127.854 168.8C127.854 169.401 127.906 169.888 128.012 170.262C128.126 170.635 128.304 170.907 128.548 171.078C128.791 171.24 129.112 171.321 129.51 171.321ZM136.626 172.113C135.944 172.113 135.404 172.012 135.006 171.809C134.616 171.606 134.336 171.261 134.165 170.773C133.995 170.286 133.909 169.62 133.909 168.776C133.909 167.915 133.995 167.245 134.165 166.766C134.344 166.279 134.632 165.938 135.03 165.743C135.428 165.548 135.964 165.451 136.638 165.451C137.214 165.451 137.681 165.516 138.038 165.646C138.404 165.775 138.672 165.999 138.842 166.315C139.021 166.624 139.11 167.054 139.11 167.607C139.11 167.988 139.033 168.297 138.879 168.532C138.733 168.76 138.518 168.926 138.233 169.032C137.957 169.129 137.628 169.178 137.247 169.178H134.872C134.88 169.706 134.937 170.132 135.042 170.457C135.148 170.773 135.339 171.005 135.615 171.151C135.899 171.289 136.313 171.358 136.857 171.358H138.952V171.943C138.578 171.991 138.213 172.032 137.856 172.064C137.498 172.097 137.088 172.113 136.626 172.113ZM134.859 168.544H137.174C137.539 168.544 137.807 168.479 137.978 168.349C138.156 168.211 138.246 167.968 138.246 167.619C138.246 167.245 138.189 166.957 138.075 166.754C137.969 166.543 137.799 166.397 137.563 166.315C137.336 166.226 137.028 166.181 136.638 166.181C136.183 166.181 135.826 166.25 135.566 166.389C135.306 166.518 135.123 166.754 135.018 167.095C134.912 167.436 134.859 167.919 134.859 168.544ZM140.438 172.04V171.309L144.19 166.328H140.341V165.536H145.31V166.267L141.547 171.248H145.31V172.04H140.438ZM146.152 168.91V168.106H149.721V168.91H146.152ZM152.715 172.04L150.266 165.536H151.253L153.275 171.139L155.358 165.536H156.332L153.811 172.04H152.715ZM159.847 172.113C159.376 172.113 158.962 172.064 158.605 171.967C158.256 171.87 157.963 171.699 157.728 171.455C157.492 171.212 157.318 170.875 157.204 170.444C157.09 170.006 157.034 169.45 157.034 168.776C157.034 168.094 157.09 167.537 157.204 167.107C157.318 166.669 157.492 166.332 157.728 166.096C157.963 165.853 158.256 165.686 158.605 165.597C158.962 165.499 159.376 165.451 159.847 165.451C160.318 165.451 160.728 165.499 161.077 165.597C161.435 165.694 161.731 165.865 161.966 166.108C162.202 166.344 162.377 166.681 162.49 167.119C162.612 167.55 162.673 168.102 162.673 168.776C162.673 169.458 162.612 170.018 162.49 170.457C162.377 170.887 162.202 171.224 161.966 171.468C161.739 171.703 161.447 171.87 161.09 171.967C160.732 172.064 160.318 172.113 159.847 172.113ZM159.847 171.321C160.148 171.321 160.411 171.293 160.639 171.236C160.874 171.179 161.069 171.066 161.223 170.895C161.378 170.725 161.496 170.469 161.577 170.128C161.658 169.787 161.699 169.336 161.699 168.776C161.699 168.207 161.658 167.757 161.577 167.424C161.496 167.091 161.378 166.839 161.223 166.669C161.069 166.498 160.874 166.384 160.639 166.328C160.411 166.271 160.148 166.242 159.847 166.242C159.539 166.242 159.271 166.271 159.043 166.328C158.816 166.384 158.625 166.498 158.471 166.669C158.317 166.839 158.199 167.091 158.118 167.424C158.036 167.757 157.996 168.207 157.996 168.776C157.996 169.336 158.036 169.787 158.118 170.128C158.199 170.469 158.317 170.725 158.471 170.895C158.625 171.066 158.816 171.179 159.043 171.236C159.271 171.293 159.539 171.321 159.847 171.321ZM166.243 172.113C165.618 172.113 165.135 171.951 164.794 171.626C164.461 171.301 164.295 170.798 164.295 170.116V165.536H165.257V169.872C165.257 170.416 165.379 170.785 165.622 170.98C165.874 171.167 166.223 171.261 166.67 171.261C167.051 171.261 167.401 171.208 167.717 171.102C168.034 170.988 168.359 170.834 168.692 170.639V165.536H169.654V172.04H168.899L168.692 171.321C168.359 171.533 167.981 171.719 167.559 171.882C167.145 172.036 166.706 172.113 166.243 172.113ZM173.721 172.113C173.558 172.113 173.359 172.109 173.124 172.101C172.888 172.093 172.641 172.081 172.381 172.064C172.129 172.048 171.898 172.032 171.687 172.016C171.484 171.991 171.325 171.967 171.212 171.943V171.358H173.879C174.147 171.358 174.378 171.338 174.573 171.297C174.768 171.256 174.918 171.167 175.024 171.029C175.138 170.891 175.194 170.684 175.194 170.408V170.116C175.194 169.831 175.101 169.612 174.914 169.458C174.728 169.295 174.427 169.214 174.013 169.214H173.099C172.718 169.214 172.377 169.166 172.076 169.068C171.784 168.971 171.557 168.804 171.394 168.569C171.232 168.333 171.151 168.008 171.151 167.594V167.253C171.151 166.847 171.228 166.514 171.382 166.255C171.544 165.995 171.792 165.8 172.125 165.67C172.466 165.54 172.905 165.475 173.441 165.475C173.668 165.475 173.928 165.483 174.22 165.499C174.52 165.516 174.813 165.54 175.097 165.572C175.381 165.597 175.613 165.625 175.791 165.658V166.242H173.282C172.868 166.242 172.547 166.311 172.32 166.449C172.101 166.587 171.991 166.855 171.991 167.253V167.521C171.991 167.773 172.044 167.964 172.149 168.094C172.255 168.216 172.401 168.297 172.588 168.337C172.783 168.378 173.006 168.398 173.258 168.398H174.183C174.776 168.398 175.235 168.536 175.56 168.812C175.885 169.088 176.047 169.486 176.047 170.006V170.457C176.047 170.895 175.946 171.236 175.743 171.48C175.548 171.715 175.276 171.882 174.926 171.979C174.585 172.068 174.183 172.113 173.721 172.113Z" fill="black" fill-opacity="0.5"/>
<path d="M64.2335 410.638C64.0548 410.638 63.8397 410.63 63.5879 410.614C63.3443 410.606 63.0926 410.589 62.8328 410.565C62.5729 410.549 62.3253 410.529 62.0898 410.504C61.8624 410.48 61.6716 410.451 61.5173 410.419V409.676C61.7203 409.692 61.968 409.708 62.2603 409.725C62.5526 409.741 62.8653 409.753 63.1982 409.761C63.5392 409.769 63.8721 409.773 64.1969 409.773C64.5623 409.773 64.8912 409.737 65.1835 409.664C65.4758 409.591 65.7073 409.457 65.8778 409.262C66.0564 409.067 66.1457 408.787 66.1457 408.421V407.812C66.1457 407.398 66.0402 407.086 65.8291 406.875C65.6179 406.655 65.2769 406.546 64.8059 406.546H63.8437C63.1048 406.546 62.5242 406.383 62.102 406.058C61.6879 405.734 61.4808 405.173 61.4808 404.378V403.866C61.4808 403.022 61.7082 402.421 62.1629 402.063C62.6176 401.706 63.2591 401.528 64.0873 401.528C64.3472 401.528 64.6395 401.544 64.9643 401.576C65.2891 401.601 65.6017 401.633 65.9021 401.674C66.2107 401.706 66.4665 401.743 66.6695 401.783V402.526C66.3122 402.494 65.9062 402.465 65.4515 402.441C65.0049 402.417 64.5826 402.404 64.1848 402.404C63.8194 402.404 63.5027 402.449 63.2347 402.538C62.9668 402.62 62.7597 402.77 62.6135 402.989C62.4755 403.2 62.4065 403.505 62.4065 403.903V404.317C62.4065 404.812 62.5364 405.153 62.7962 405.34C63.0561 405.527 63.4174 405.62 63.8803 405.62H64.9156C65.4109 405.62 65.8169 405.709 66.1336 405.888C66.4502 406.067 66.6857 406.314 66.84 406.631C66.9943 406.939 67.0714 407.297 67.0714 407.703V408.397C67.0714 408.998 66.9415 409.461 66.6817 409.786C66.4299 410.11 66.0889 410.334 65.6585 410.455C65.2363 410.577 64.7613 410.638 64.2335 410.638ZM70.8853 410.565C70.463 410.565 70.1139 410.496 69.8378 410.358C69.5617 410.22 69.3587 409.997 69.2288 409.688C69.0989 409.38 69.038 408.969 69.0461 408.458L69.0826 404.853H68.0473V404.231L69.0948 404.061L69.2532 402.246H69.9961V404.061H71.8719V404.853H69.9961V408.458C69.9961 408.742 70.0246 408.969 70.0814 409.14C70.1464 409.311 70.2276 409.44 70.325 409.53C70.4306 409.619 70.5402 409.684 70.6539 409.725C70.7675 409.757 70.8772 409.777 70.9827 409.786L71.7744 409.859V410.565H70.8853ZM74.4807 410.638C74.0016 410.638 73.6078 410.496 73.2992 410.212C72.9906 409.928 72.8364 409.526 72.8364 409.006V408.543C72.8364 408.032 73.0028 407.618 73.3357 407.301C73.6768 406.984 74.1883 406.826 74.8704 406.826H77.075V406.022C77.075 405.754 77.0263 405.527 76.9288 405.34C76.8395 405.145 76.6731 404.995 76.4295 404.889C76.194 404.784 75.8489 404.731 75.3942 404.731H73.3723V404.158C73.6565 404.11 73.9853 404.065 74.3589 404.024C74.7405 403.984 75.1871 403.964 75.6987 403.964C76.2265 403.955 76.6649 404.02 77.0141 404.158C77.3633 404.296 77.619 404.516 77.7814 404.816C77.952 405.108 78.0372 405.494 78.0372 405.973V410.565H77.2942L77.1115 409.822C77.0791 409.855 76.9776 409.911 76.807 409.993C76.6446 410.074 76.4335 410.167 76.1737 410.273C75.922 410.37 75.6459 410.455 75.3454 410.529C75.0531 410.602 74.7649 410.638 74.4807 410.638ZM74.8826 409.92C75.0288 409.928 75.1952 409.911 75.382 409.871C75.5687 409.83 75.7596 409.786 75.9544 409.737C76.1493 409.68 76.328 409.623 76.4904 409.566C76.6609 409.509 76.7989 409.461 76.9045 409.42C77.01 409.38 77.0669 409.359 77.075 409.359V407.313L75.0897 407.398C74.6268 407.415 74.2939 407.528 74.0909 407.739C73.896 407.95 73.7986 408.222 73.7986 408.555V408.848C73.7986 409.108 73.8514 409.319 73.9569 409.481C74.0706 409.635 74.2086 409.745 74.371 409.81C74.5416 409.875 74.7121 409.911 74.8826 409.92ZM79.8633 410.565V404.061H80.5941L80.8255 405.194C81.1178 404.845 81.4426 404.556 81.7999 404.329C82.1653 404.102 82.5835 403.988 83.0544 403.988C83.1681 403.988 83.2737 403.992 83.3711 404C83.4767 404.008 83.5741 404.024 83.6634 404.049V405.035C83.5579 405.019 83.4442 405.007 83.3224 404.999C83.2006 404.983 83.0788 404.974 82.957 404.974C82.6566 404.974 82.3886 405.011 82.1531 405.084C81.9176 405.157 81.6943 405.267 81.4832 405.413C81.2721 405.559 81.0529 405.738 80.8255 405.949V410.565H79.8633ZM87.1698 410.565C86.7475 410.565 86.3984 410.496 86.1223 410.358C85.8462 410.22 85.6432 409.997 85.5133 409.688C85.3834 409.38 85.3225 408.969 85.3306 408.458L85.3671 404.853H84.3318V404.231L85.3793 404.061L85.5376 402.246H86.2806V404.061H88.1563V404.853H86.2806V408.458C86.2806 408.742 86.309 408.969 86.3659 409.14C86.4308 409.311 86.512 409.44 86.6095 409.53C86.715 409.619 86.8247 409.684 86.9383 409.725C87.052 409.757 87.1616 409.777 87.2672 409.786L88.0589 409.859V410.565H87.1698ZM94.9006 410.638C94.3647 410.638 93.9222 410.524 93.573 410.297C93.232 410.062 92.9762 409.704 92.8057 409.225C92.6433 408.738 92.5621 408.117 92.5621 407.362C92.5621 406.558 92.6433 405.908 92.8057 405.413C92.9681 404.909 93.2279 404.544 93.5852 404.317C93.9425 404.089 94.4215 403.976 95.0224 403.976C95.3878 403.976 95.7451 404.016 96.0943 404.097C96.4434 404.179 96.752 404.268 97.0199 404.365V401.272H97.9822V410.565H97.2026L97.0199 409.907C96.8981 410.013 96.7154 410.123 96.4718 410.236C96.2364 410.35 95.9765 410.447 95.6923 410.529C95.4162 410.602 95.1523 410.638 94.9006 410.638ZM95.1808 409.846C95.5543 409.846 95.8913 409.79 96.1917 409.676C96.5003 409.554 96.7763 409.428 97.0199 409.298V405.048C96.7276 404.958 96.4475 404.885 96.1795 404.828C95.9116 404.763 95.6111 404.731 95.2782 404.731C94.8641 404.731 94.5271 404.808 94.2673 404.962C94.0074 405.117 93.8166 405.385 93.6948 405.766C93.5811 406.14 93.5243 406.659 93.5243 407.325C93.5243 407.926 93.5771 408.413 93.6826 408.787C93.7963 409.16 93.9749 409.432 94.2185 409.603C94.4621 409.765 94.7829 409.846 95.1808 409.846ZM101.078 410.638C100.599 410.638 100.205 410.496 99.8968 410.212C99.5882 409.928 99.434 409.526 99.434 409.006V408.543C99.434 408.032 99.6004 407.618 99.9333 407.301C100.274 406.984 100.786 406.826 101.468 406.826H103.673V406.022C103.673 405.754 103.624 405.527 103.526 405.34C103.437 405.145 103.271 404.995 103.027 404.889C102.792 404.784 102.446 404.731 101.992 404.731H99.9699V404.158C100.254 404.11 100.583 404.065 100.956 404.024C101.338 403.984 101.785 403.964 102.296 403.964C102.824 403.955 103.263 404.02 103.612 404.158C103.961 404.296 104.217 404.516 104.379 404.816C104.55 405.108 104.635 405.494 104.635 405.973V410.565H103.892L103.709 409.822C103.677 409.855 103.575 409.911 103.405 409.993C103.242 410.074 103.031 410.167 102.771 410.273C102.52 410.37 102.243 410.455 101.943 410.529C101.651 410.602 101.362 410.638 101.078 410.638ZM101.48 409.92C101.626 409.928 101.793 409.911 101.98 409.871C102.166 409.83 102.357 409.786 102.552 409.737C102.747 409.68 102.926 409.623 103.088 409.566C103.258 409.509 103.397 409.461 103.502 409.42C103.608 409.38 103.664 409.359 103.673 409.359V407.313L101.687 407.398C101.224 407.415 100.892 407.528 100.689 407.739C100.494 407.95 100.396 408.222 100.396 408.555V408.848C100.396 409.108 100.449 409.319 100.555 409.481C100.668 409.635 100.806 409.745 100.969 409.81C101.139 409.875 101.31 409.911 101.48 409.92ZM108.617 410.565C108.194 410.565 107.845 410.496 107.569 410.358C107.293 410.22 107.09 409.997 106.96 409.688C106.83 409.38 106.769 408.969 106.778 408.458L106.814 404.853H105.779V404.231L106.826 404.061L106.985 402.246H107.728V404.061H109.603V404.853H107.728V408.458C107.728 408.742 107.756 408.969 107.813 409.14C107.878 409.311 107.959 409.44 108.056 409.53C108.162 409.619 108.272 409.684 108.385 409.725C108.499 409.757 108.609 409.777 108.714 409.786L109.506 409.859V410.565H108.617ZM113.43 410.638C112.748 410.638 112.208 410.537 111.81 410.334C111.42 410.131 111.14 409.786 110.97 409.298C110.799 408.811 110.714 408.145 110.714 407.301C110.714 406.44 110.799 405.77 110.97 405.291C111.148 404.804 111.437 404.463 111.835 404.268C112.232 404.073 112.768 403.976 113.442 403.976C114.019 403.976 114.486 404.041 114.843 404.171C115.208 404.3 115.476 404.524 115.647 404.84C115.826 405.149 115.915 405.579 115.915 406.132C115.915 406.513 115.838 406.822 115.683 407.057C115.537 407.285 115.322 407.451 115.038 407.557C114.762 407.654 114.433 407.703 114.051 407.703H111.676C111.684 408.231 111.741 408.657 111.847 408.982C111.952 409.298 112.143 409.53 112.419 409.676C112.703 409.814 113.117 409.883 113.662 409.883H115.756V410.468C115.383 410.516 115.018 410.557 114.66 410.589C114.303 410.622 113.893 410.638 113.43 410.638ZM111.664 407.069H113.978C114.344 407.069 114.612 407.004 114.782 406.875C114.961 406.736 115.05 406.493 115.05 406.144C115.05 405.77 114.993 405.482 114.88 405.279C114.774 405.068 114.603 404.922 114.368 404.84C114.141 404.751 113.832 404.706 113.442 404.706C112.988 404.706 112.63 404.776 112.37 404.914C112.111 405.043 111.928 405.279 111.822 405.62C111.717 405.961 111.664 406.444 111.664 407.069Z" fill="black" fill-opacity="0.5"/>
<path d="M63.5879 488.769C63.3931 488.769 63.186 488.753 62.9668 488.72C62.7475 488.68 62.5405 488.602 62.3456 488.489C62.1507 488.375 61.9924 488.205 61.8706 487.977C61.7488 487.742 61.6879 487.425 61.6879 487.027V481.558C61.6879 481.209 61.7366 480.921 61.834 480.694C61.9396 480.458 62.0776 480.275 62.2481 480.145C62.4187 480.007 62.6095 479.91 62.8206 479.853C63.0317 479.788 63.2428 479.756 63.454 479.756C63.9574 479.764 64.4243 479.776 64.8547 479.792C65.285 479.8 65.691 479.813 66.0727 479.829C66.4624 479.837 66.84 479.849 67.2054 479.865V480.645H63.6976C63.3809 480.645 63.1292 480.73 62.9424 480.901C62.7556 481.071 62.6623 481.343 62.6623 481.717V483.836L66.6695 483.897V484.64L62.6623 484.701V486.808C62.6623 487.108 62.711 487.336 62.8084 487.49C62.914 487.644 63.052 487.746 63.2225 487.795C63.3931 487.843 63.5676 487.868 63.7463 487.868H67.2054V488.647C66.8319 488.671 66.4381 488.692 66.0239 488.708C65.6179 488.724 65.2079 488.736 64.7938 488.745C64.3878 488.753 63.9858 488.761 63.5879 488.769ZM68.8365 488.72V482.216H69.5916L69.7987 482.935C70.1073 482.715 70.4686 482.525 70.8827 482.362C71.2968 482.192 71.7272 482.106 72.1738 482.106C72.6529 482.106 73.0386 482.208 73.3309 482.411C73.6232 482.614 73.8384 482.882 73.9764 483.215C74.1145 483.548 74.1835 483.909 74.1835 484.299V488.72H73.2213V484.408C73.2213 484.132 73.1644 483.889 73.0508 483.678C72.9452 483.458 72.7909 483.288 72.5879 483.166C72.393 483.044 72.1494 482.983 71.8571 482.983C71.5892 482.983 71.3374 483.012 71.102 483.069C70.8746 483.117 70.6554 483.19 70.4442 483.288C70.2412 483.377 70.0261 483.487 69.7987 483.617V488.72H68.8365ZM78.1163 488.793C77.5804 488.793 77.1378 488.68 76.7887 488.452C76.4476 488.217 76.1919 487.859 76.0213 487.38C75.8589 486.893 75.7777 486.272 75.7777 485.517C75.7777 484.713 75.8589 484.063 76.0213 483.568C76.1837 483.065 76.4436 482.699 76.8009 482.472C77.1581 482.245 77.6372 482.131 78.2381 482.131C78.6035 482.131 78.9608 482.171 79.3099 482.253C79.6591 482.334 79.9677 482.423 80.2356 482.521V479.427H81.1978V488.72H80.4183L80.2356 488.062C80.1138 488.168 79.9311 488.278 79.6875 488.391C79.452 488.505 79.1922 488.602 78.908 488.684C78.6319 488.757 78.368 488.793 78.1163 488.793ZM78.3964 488.002C78.77 488.002 79.1069 487.945 79.4074 487.831C79.7159 487.709 79.992 487.583 80.2356 487.453V483.203C79.9433 483.113 79.6632 483.04 79.3952 482.983C79.1272 482.918 78.8268 482.886 78.4939 482.886C78.0798 482.886 77.7428 482.963 77.4829 483.117C77.2231 483.272 77.0323 483.54 76.9105 483.921C76.7968 484.295 76.74 484.814 76.74 485.48C76.74 486.081 76.7927 486.568 76.8983 486.942C77.012 487.315 77.1906 487.587 77.4342 487.758C77.6778 487.92 77.9986 488.002 78.3964 488.002ZM88.4294 488.793C87.8935 488.793 87.451 488.68 87.1018 488.452C86.7608 488.217 86.505 487.859 86.3345 487.38C86.1721 486.893 86.0909 486.272 86.0909 485.517C86.0909 484.713 86.1721 484.063 86.3345 483.568C86.4969 483.065 86.7567 482.699 87.114 482.472C87.4713 482.245 87.9504 482.131 88.5512 482.131C88.9166 482.131 89.2739 482.171 89.6231 482.253C89.9722 482.334 90.2808 482.423 90.5488 482.521V479.427H91.511V488.72H90.7315L90.5488 488.062C90.427 488.168 90.2443 488.278 90.0007 488.391C89.7652 488.505 89.5053 488.602 89.2211 488.684C88.9451 488.757 88.6812 488.793 88.4294 488.793ZM88.7096 488.002C89.0831 488.002 89.4201 487.945 89.7205 487.831C90.0291 487.709 90.3052 487.583 90.5488 487.453V483.203C90.2564 483.113 89.9763 483.04 89.7083 482.983C89.4404 482.918 89.1399 482.886 88.807 482.886C88.3929 482.886 88.0559 482.963 87.7961 483.117C87.5362 483.272 87.3454 483.54 87.2236 483.921C87.1099 484.295 87.0531 484.814 87.0531 485.48C87.0531 486.081 87.1059 486.568 87.2114 486.942C87.3251 487.315 87.5038 487.587 87.7474 487.758C87.991 487.92 88.3117 488.002 88.7096 488.002ZM94.6071 488.793C94.128 488.793 93.7342 488.651 93.4256 488.367C93.1171 488.083 92.9628 487.681 92.9628 487.161V486.698C92.9628 486.187 93.1292 485.773 93.4622 485.456C93.8032 485.139 94.3148 484.981 94.9968 484.981H97.2014V484.177C97.2014 483.909 97.1527 483.682 97.0553 483.495C96.9659 483.3 96.7995 483.15 96.5559 483.044C96.3204 482.939 95.9753 482.886 95.5206 482.886H93.4987V482.314C93.7829 482.265 94.1118 482.22 94.4853 482.18C94.8669 482.139 95.3135 482.119 95.8251 482.119C96.3529 482.111 96.7914 482.175 97.1405 482.314C97.4897 482.452 97.7455 482.671 97.9079 482.971C98.0784 483.264 98.1636 483.649 98.1636 484.128V488.72H97.4207L97.238 487.977C97.2055 488.01 97.104 488.067 96.9335 488.148C96.7711 488.229 96.5599 488.322 96.3001 488.428C96.0484 488.525 95.7723 488.611 95.4719 488.684C95.1795 488.757 94.8913 488.793 94.6071 488.793ZM95.009 488.075C95.1552 488.083 95.3216 488.067 95.5084 488.026C95.6952 487.985 95.886 487.941 96.0809 487.892C96.2757 487.835 96.4544 487.778 96.6168 487.721C96.7873 487.665 96.9253 487.616 97.0309 487.575C97.1365 487.535 97.1933 487.514 97.2014 487.514V485.468L95.2161 485.553C94.7532 485.57 94.4203 485.683 94.2173 485.894C94.0224 486.106 93.925 486.378 93.925 486.711V487.003C93.925 487.263 93.9778 487.474 94.0833 487.636C94.197 487.79 94.3351 487.9 94.4975 487.965C94.668 488.03 94.8385 488.067 95.009 488.075ZM102.146 488.72C101.723 488.72 101.374 488.651 101.098 488.513C100.822 488.375 100.619 488.152 100.489 487.843C100.359 487.535 100.298 487.125 100.306 486.613L100.343 483.008H99.3076V482.387L100.355 482.216L100.513 480.401H101.256V482.216H103.132V483.008H101.256V486.613C101.256 486.897 101.285 487.125 101.342 487.295C101.407 487.466 101.488 487.596 101.585 487.685C101.691 487.774 101.8 487.839 101.914 487.88C102.028 487.912 102.137 487.933 102.243 487.941L103.035 488.014V488.72H102.146ZM106.959 488.793C106.277 488.793 105.737 488.692 105.339 488.489C104.949 488.286 104.669 487.941 104.499 487.453C104.328 486.966 104.243 486.3 104.243 485.456C104.243 484.595 104.328 483.925 104.499 483.446C104.677 482.959 104.965 482.618 105.363 482.423C105.761 482.228 106.297 482.131 106.971 482.131C107.548 482.131 108.015 482.196 108.372 482.326C108.737 482.456 109.005 482.679 109.176 482.996C109.354 483.304 109.444 483.735 109.444 484.287C109.444 484.668 109.367 484.977 109.212 485.212C109.066 485.44 108.851 485.606 108.567 485.712C108.291 485.809 107.962 485.858 107.58 485.858H105.205C105.213 486.386 105.27 486.812 105.376 487.137C105.481 487.453 105.672 487.685 105.948 487.831C106.232 487.969 106.646 488.038 107.19 488.038H109.285V488.623C108.912 488.671 108.546 488.712 108.189 488.745C107.832 488.777 107.422 488.793 106.959 488.793ZM105.193 485.225H107.507C107.872 485.225 108.14 485.16 108.311 485.03C108.49 484.892 108.579 484.648 108.579 484.299C108.579 483.925 108.522 483.637 108.408 483.434C108.303 483.223 108.132 483.077 107.897 482.996C107.669 482.906 107.361 482.862 106.971 482.862C106.516 482.862 106.159 482.931 105.899 483.069C105.639 483.199 105.457 483.434 105.351 483.775C105.246 484.116 105.193 484.599 105.193 485.225Z" fill="black" fill-opacity="0.5"/>
<path d="M61.6879 250.195V241.231H65.2322C65.7763 241.231 66.2351 241.332 66.6086 241.535C66.9821 241.73 67.2825 242.018 67.5099 242.4C67.7454 242.782 67.9159 243.252 68.0215 243.813C68.127 244.365 68.1798 244.998 68.1798 245.713C68.1798 246.655 68.0702 247.459 67.8509 248.124C67.6317 248.79 67.3028 249.302 66.8644 249.659C66.4259 250.016 65.8818 250.195 65.2322 250.195H61.6879ZM62.6623 249.33H65.1592C65.6382 249.33 66.028 249.184 66.3284 248.892C66.6289 248.591 66.8522 248.173 66.9983 247.637C67.1445 247.093 67.2176 246.452 67.2176 245.713C67.2176 245.047 67.177 244.487 67.0958 244.032C67.0146 243.569 66.8887 243.196 66.7182 242.911C66.5558 242.627 66.3447 242.424 66.0848 242.302C65.825 242.173 65.5164 242.108 65.1592 242.108H62.6623V249.33ZM72.2014 250.268C71.5193 250.268 70.9793 250.167 70.5814 249.964C70.1917 249.761 69.9115 249.416 69.741 248.928C69.5705 248.441 69.4852 247.775 69.4852 246.931C69.4852 246.07 69.5705 245.4 69.741 244.921C69.9197 244.434 70.2079 244.093 70.6058 243.898C71.0037 243.703 71.5396 243.606 72.2136 243.606C72.7901 243.606 73.257 243.671 73.6143 243.801C73.9797 243.93 74.2476 244.154 74.4181 244.47C74.5968 244.779 74.6861 245.209 74.6861 245.762C74.6861 246.143 74.609 246.452 74.4547 246.687C74.3085 246.915 74.0933 247.081 73.8091 247.187C73.5331 247.284 73.2042 247.333 72.8226 247.333H70.4475C70.4556 247.861 70.5124 248.287 70.618 248.612C70.7235 248.928 70.9144 249.16 71.1904 249.306C71.4746 249.444 71.8888 249.513 72.4328 249.513H74.5278V250.098C74.1542 250.146 73.7888 250.187 73.4316 250.219C73.0743 250.252 72.6642 250.268 72.2014 250.268ZM70.4353 246.699H72.7495C73.1149 246.699 73.3828 246.634 73.5534 246.505C73.732 246.366 73.8213 246.123 73.8213 245.774C73.8213 245.4 73.7645 245.112 73.6508 244.909C73.5452 244.698 73.3747 244.552 73.1392 244.47C72.9119 244.381 72.6033 244.336 72.2136 244.336C71.7588 244.336 71.4016 244.406 71.1417 244.544C70.8819 244.673 70.6992 244.909 70.5936 245.25C70.4881 245.591 70.4353 246.074 70.4353 246.699ZM78.5595 250.268C78.3971 250.268 78.1982 250.264 77.9627 250.256C77.7272 250.248 77.4796 250.236 77.2197 250.219C76.968 250.203 76.7366 250.187 76.5255 250.171C76.3225 250.146 76.1641 250.122 76.0505 250.098V249.513H78.7179C78.9858 249.513 79.2173 249.493 79.4121 249.452C79.607 249.411 79.7572 249.322 79.8628 249.184C79.9765 249.046 80.0333 248.839 80.0333 248.563V248.271C80.0333 247.986 79.9399 247.767 79.7532 247.613C79.5664 247.451 79.266 247.369 78.8519 247.369H77.9384C77.5567 247.369 77.2157 247.321 76.9152 247.223C76.6229 247.126 76.3956 246.959 76.2332 246.724C76.0708 246.488 75.9896 246.163 75.9896 245.749V245.408C75.9896 245.002 76.0667 244.669 76.221 244.41C76.3834 244.15 76.631 243.955 76.964 243.825C77.305 243.695 77.7435 243.63 78.2794 243.63C78.5068 243.63 78.7666 243.638 79.0589 243.654C79.3594 243.671 79.6517 243.695 79.9359 243.727C80.2201 243.752 80.4515 243.78 80.6301 243.813V244.397H78.1211C77.7069 244.397 77.3862 244.466 77.1588 244.604C76.9396 244.742 76.83 245.01 76.83 245.408V245.676C76.83 245.928 76.8828 246.119 76.9883 246.249C77.0939 246.371 77.24 246.452 77.4268 246.492C77.6217 246.533 77.845 246.553 78.0967 246.553H79.0224C79.6151 246.553 80.0739 246.691 80.3987 246.967C80.7235 247.243 80.8859 247.641 80.8859 248.161V248.612C80.8859 249.05 80.7844 249.391 80.5814 249.635C80.3865 249.87 80.1145 250.037 79.7654 250.134C79.4243 250.223 79.0224 250.268 78.5595 250.268ZM84.7835 250.268C84.4181 250.268 84.0771 250.219 83.7604 250.122C83.4437 250.025 83.1676 249.854 82.9322 249.61C82.6967 249.367 82.514 249.03 82.3841 248.599C82.2541 248.169 82.1892 247.621 82.1892 246.955C82.1892 246.281 82.2501 245.729 82.3719 245.299C82.4937 244.86 82.6683 244.519 82.8956 244.276C83.123 244.032 83.3991 243.861 83.7239 243.764C84.0487 243.667 84.41 243.618 84.8079 243.618C85.1327 243.618 85.4859 243.634 85.8675 243.667C86.2492 243.691 86.6146 243.732 86.9637 243.788V244.361H85.0637C84.6495 244.361 84.3004 244.43 84.0162 244.568C83.732 244.706 83.5168 244.966 83.3706 245.347C83.2245 245.721 83.1514 246.265 83.1514 246.98C83.1514 247.67 83.2285 248.198 83.3828 248.563C83.5371 248.928 83.7563 249.18 84.0405 249.318C84.3247 249.448 84.6698 249.513 85.0758 249.513H87.0612V250.073C86.8744 250.106 86.6552 250.138 86.4035 250.171C86.1599 250.203 85.9 250.228 85.6239 250.244C85.3479 250.26 85.0677 250.268 84.7835 250.268ZM88.4038 250.195V243.691H89.1346L89.3661 244.824C89.6584 244.475 89.9832 244.186 90.3405 243.959C90.7059 243.732 91.124 243.618 91.595 243.618C91.7087 243.618 91.8142 243.622 91.9117 243.63C92.0172 243.638 92.1147 243.654 92.204 243.679V244.665C92.0984 244.649 91.9848 244.637 91.863 244.629C91.7412 244.613 91.6194 244.604 91.4976 244.604C91.1971 244.604 90.9292 244.641 90.6937 244.714C90.4582 244.787 90.2349 244.897 90.0238 245.043C89.8127 245.189 89.5934 245.368 89.3661 245.579V250.195H88.4038ZM93.5817 242.534C93.4517 242.534 93.3868 242.469 93.3868 242.339V241.389C93.3868 241.259 93.4517 241.194 93.5817 241.194H94.2637C94.3287 241.194 94.3734 241.214 94.3977 241.255C94.4302 241.287 94.4464 241.332 94.4464 241.389V242.339C94.4464 242.469 94.3855 242.534 94.2637 242.534H93.5817ZM93.4355 250.195V243.691H94.3977V250.195H93.4355ZM96.2667 253.082V243.691H97.0462L97.2289 244.361C97.3751 244.255 97.5618 244.146 97.7892 244.032C98.0247 243.91 98.2764 243.809 98.5444 243.727C98.8204 243.646 99.0925 243.606 99.3604 243.606C99.7827 243.606 100.14 243.699 100.432 243.886C100.733 244.064 100.976 244.308 101.163 244.617C101.35 244.925 101.484 245.278 101.565 245.676C101.646 246.074 101.687 246.492 101.687 246.931C101.687 247.662 101.602 248.279 101.431 248.782C101.269 249.278 101.017 249.651 100.676 249.903C100.335 250.154 99.8963 250.28 99.3604 250.28C98.995 250.28 98.6256 250.223 98.252 250.11C97.8866 249.988 97.5456 249.838 97.2289 249.659V253.082H96.2667ZM99.0925 249.464C99.401 249.464 99.6771 249.387 99.9207 249.233C100.164 249.079 100.359 248.819 100.505 248.453C100.651 248.08 100.725 247.572 100.725 246.931C100.725 246.322 100.647 245.835 100.493 245.469C100.339 245.096 100.14 244.828 99.8963 244.665C99.6527 244.495 99.3848 244.41 99.0925 244.41C98.7189 244.41 98.3738 244.47 98.0572 244.592C97.7486 244.706 97.4725 244.828 97.2289 244.958V248.941C97.5131 249.095 97.8136 249.221 98.1302 249.318C98.455 249.416 98.7758 249.464 99.0925 249.464ZM105.476 250.195C105.054 250.195 104.705 250.126 104.429 249.988C104.153 249.85 103.95 249.627 103.82 249.318C103.69 249.01 103.629 248.599 103.637 248.088L103.674 244.483H102.638V243.861L103.686 243.691L103.844 241.876H104.587V243.691H106.463V244.483H104.587V248.088C104.587 248.372 104.616 248.599 104.672 248.77C104.737 248.941 104.819 249.07 104.916 249.16C105.022 249.249 105.131 249.314 105.245 249.355C105.359 249.387 105.468 249.407 105.574 249.416L106.365 249.489V250.195H105.476ZM107.951 242.534C107.821 242.534 107.756 242.469 107.756 242.339V241.389C107.756 241.259 107.821 241.194 107.951 241.194H108.633C108.698 241.194 108.743 241.214 108.767 241.255C108.8 241.287 108.816 241.332 108.816 241.389V242.339C108.816 242.469 108.755 242.534 108.633 242.534H107.951ZM107.805 250.195V243.691H108.767V250.195H107.805ZM113.218 250.268C112.747 250.268 112.333 250.219 111.976 250.122C111.627 250.025 111.334 249.854 111.099 249.61C110.864 249.367 110.689 249.03 110.575 248.599C110.462 248.161 110.405 247.605 110.405 246.931C110.405 246.249 110.462 245.693 110.575 245.262C110.689 244.824 110.864 244.487 111.099 244.251C111.334 244.008 111.627 243.841 111.976 243.752C112.333 243.654 112.747 243.606 113.218 243.606C113.689 243.606 114.099 243.654 114.448 243.752C114.806 243.849 115.102 244.02 115.338 244.263C115.573 244.499 115.748 244.836 115.861 245.274C115.983 245.705 116.044 246.257 116.044 246.931C116.044 247.613 115.983 248.173 115.861 248.612C115.748 249.042 115.573 249.379 115.338 249.623C115.11 249.858 114.818 250.025 114.461 250.122C114.103 250.219 113.689 250.268 113.218 250.268ZM113.218 249.476C113.519 249.476 113.783 249.448 114.01 249.391C114.245 249.334 114.44 249.221 114.595 249.05C114.749 248.88 114.867 248.624 114.948 248.283C115.029 247.942 115.07 247.491 115.07 246.931C115.07 246.362 115.029 245.912 114.948 245.579C114.867 245.246 114.749 244.994 114.595 244.824C114.44 244.653 114.245 244.539 114.01 244.483C113.783 244.426 113.519 244.397 113.218 244.397C112.91 244.397 112.642 244.426 112.414 244.483C112.187 244.539 111.996 244.653 111.842 244.824C111.688 244.994 111.57 245.246 111.489 245.579C111.408 245.912 111.367 246.362 111.367 246.931C111.367 247.491 111.408 247.942 111.489 248.283C111.57 248.624 111.688 248.88 111.842 249.05C111.996 249.221 112.187 249.334 112.414 249.391C112.642 249.448 112.91 249.476 113.218 249.476ZM117.678 250.195V243.691H118.433L118.64 244.41C118.949 244.19 119.31 244 119.724 243.837C120.138 243.667 120.569 243.581 121.015 243.581C121.494 243.581 121.88 243.683 122.172 243.886C122.465 244.089 122.68 244.357 122.818 244.69C122.956 245.023 123.025 245.384 123.025 245.774V250.195H122.063V245.883C122.063 245.607 122.006 245.364 121.892 245.153C121.787 244.933 121.632 244.763 121.429 244.641C121.235 244.519 120.991 244.458 120.699 244.458C120.431 244.458 120.179 244.487 119.943 244.544C119.716 244.592 119.497 244.665 119.286 244.763C119.083 244.852 118.868 244.962 118.64 245.092V250.195H117.678Z" fill="black" fill-opacity="0.5"/>
<rect x="46.54" y="715.245" width="332.92" height="52.78" rx="10.15" fill="#004579"/>
<path d="M161.129 745.485V734.97H165.477C165.894 734.97 166.283 735.022 166.643 735.126C167.003 735.221 167.32 735.391 167.595 735.638C167.869 735.884 168.083 736.225 168.234 736.661C168.395 737.096 168.476 737.655 168.476 738.337C168.476 738.821 168.428 739.233 168.334 739.574C168.239 739.915 168.111 740.194 167.95 740.412C167.798 740.63 167.623 740.805 167.424 740.938C167.225 741.071 167.022 741.179 166.813 741.265L168.774 745.485H166.628L164.937 741.592C164.824 741.592 164.691 741.592 164.54 741.592C164.397 741.582 164.251 741.577 164.099 741.577C163.947 741.577 163.796 741.577 163.644 741.577C163.493 741.577 163.355 741.573 163.232 741.563V745.485H161.129ZM163.232 739.901H165.108C165.297 739.901 165.468 739.877 165.62 739.83C165.771 739.782 165.904 739.702 166.017 739.588C166.131 739.465 166.216 739.304 166.273 739.105C166.339 738.906 166.373 738.65 166.373 738.337C166.373 738.044 166.339 737.802 166.273 737.613C166.216 737.414 166.131 737.262 166.017 737.158C165.904 737.044 165.771 736.969 165.62 736.931C165.468 736.883 165.297 736.86 165.108 736.86H163.232V739.901ZM173.026 745.556C172.182 745.556 171.51 745.447 171.008 745.229C170.506 745.002 170.141 744.604 169.914 744.036C169.696 743.467 169.587 742.681 169.587 741.677C169.587 740.644 169.691 739.844 169.899 739.275C170.108 738.707 170.458 738.309 170.951 738.082C171.444 737.854 172.111 737.741 172.955 737.741C173.712 737.741 174.319 737.816 174.773 737.968C175.228 738.12 175.555 738.385 175.754 738.764C175.962 739.143 176.067 739.678 176.067 740.37C176.067 740.881 175.962 741.288 175.754 741.592C175.555 741.885 175.271 742.098 174.901 742.231C174.532 742.354 174.096 742.416 173.594 742.416H171.676C171.695 742.804 171.751 743.117 171.846 743.354C171.95 743.581 172.135 743.747 172.4 743.851C172.675 743.946 173.068 743.993 173.58 743.993H175.811V745.229C175.441 745.305 175.034 745.381 174.589 745.457C174.153 745.523 173.632 745.556 173.026 745.556ZM171.647 741.165H173.381C173.665 741.165 173.873 741.108 174.006 740.995C174.139 740.881 174.205 740.677 174.205 740.384C174.205 740.109 174.162 739.891 174.077 739.73C173.992 739.56 173.859 739.441 173.679 739.375C173.499 739.299 173.258 739.261 172.955 739.261C172.632 739.261 172.377 739.318 172.187 739.432C171.998 739.536 171.86 739.725 171.775 740C171.69 740.275 171.647 740.663 171.647 741.165ZM180.232 745.57C179.995 745.57 179.739 745.561 179.464 745.542C179.19 745.532 178.915 745.514 178.64 745.485C178.365 745.457 178.11 745.424 177.873 745.386C177.636 745.338 177.437 745.286 177.276 745.229V743.993H180.658C180.857 743.993 181.018 743.979 181.141 743.95C181.274 743.913 181.368 743.851 181.425 743.766C181.492 743.671 181.525 743.538 181.525 743.368V743.126C181.525 742.937 181.463 742.79 181.34 742.686C181.217 742.582 180.989 742.529 180.658 742.529H179.464C179.029 742.529 178.635 742.463 178.285 742.33C177.934 742.198 177.655 741.98 177.446 741.677C177.248 741.374 177.148 740.966 177.148 740.455V740.014C177.148 739.531 177.243 739.124 177.432 738.792C177.622 738.461 177.939 738.21 178.384 738.039C178.83 737.869 179.441 737.783 180.217 737.783C180.53 737.783 180.862 737.802 181.212 737.84C181.572 737.869 181.908 737.911 182.221 737.968C182.543 738.015 182.799 738.072 182.988 738.139V739.375H179.791C179.516 739.375 179.308 739.422 179.166 739.517C179.024 739.602 178.953 739.768 178.953 740.014V740.242C178.953 740.412 178.986 740.54 179.052 740.625C179.119 740.701 179.218 740.758 179.351 740.796C179.493 740.824 179.668 740.838 179.876 740.838H181.098C181.875 740.838 182.439 741.018 182.789 741.378C183.149 741.729 183.329 742.217 183.329 742.842V743.524C183.329 744.036 183.206 744.443 182.96 744.746C182.723 745.04 182.373 745.253 181.908 745.386C181.454 745.509 180.895 745.57 180.232 745.57ZM187.861 745.556C187.018 745.556 186.345 745.447 185.843 745.229C185.341 745.002 184.976 744.604 184.749 744.036C184.531 743.467 184.422 742.681 184.422 741.677C184.422 740.644 184.526 739.844 184.735 739.275C184.943 738.707 185.293 738.309 185.786 738.082C186.279 737.854 186.947 737.741 187.79 737.741C188.548 737.741 189.154 737.816 189.609 737.968C190.063 738.12 190.39 738.385 190.589 738.764C190.797 739.143 190.902 739.678 190.902 740.37C190.902 740.881 190.797 741.288 190.589 741.592C190.39 741.885 190.106 742.098 189.736 742.231C189.367 742.354 188.931 742.416 188.429 742.416H186.511C186.53 742.804 186.587 743.117 186.681 743.354C186.786 743.581 186.97 743.747 187.235 743.851C187.51 743.946 187.903 743.993 188.415 743.993H190.646V745.229C190.276 745.305 189.869 745.381 189.424 745.457C188.988 745.523 188.467 745.556 187.861 745.556ZM186.482 741.165H188.216C188.5 741.165 188.709 741.108 188.841 740.995C188.974 740.881 189.04 740.677 189.04 740.384C189.04 740.109 188.998 739.891 188.912 739.73C188.827 739.56 188.694 739.441 188.514 739.375C188.334 739.299 188.093 739.261 187.79 739.261C187.468 739.261 187.212 739.318 187.022 739.432C186.833 739.536 186.696 739.725 186.61 740C186.525 740.275 186.482 740.663 186.482 741.165ZM192.296 745.485V737.854H193.916L194.399 739.02C194.674 738.669 194.981 738.371 195.323 738.124C195.673 737.878 196.085 737.755 196.559 737.755C196.663 737.755 196.767 737.76 196.871 737.769C196.985 737.779 197.089 737.797 197.184 737.826V739.986C197.042 739.967 196.89 739.953 196.729 739.943C196.578 739.924 196.431 739.915 196.289 739.915C196.014 739.915 195.763 739.948 195.536 740.014C195.318 740.071 195.114 740.161 194.925 740.284C194.745 740.398 194.569 740.55 194.399 740.739V745.485H192.296ZM200.237 745.485L197.679 737.854H199.853L201.502 743.538L203.193 737.854H205.338L202.667 745.485H200.237ZM209.288 745.556C208.445 745.556 207.772 745.447 207.27 745.229C206.768 745.002 206.403 744.604 206.176 744.036C205.958 743.467 205.849 742.681 205.849 741.677C205.849 740.644 205.953 739.844 206.162 739.275C206.37 738.707 206.72 738.309 207.213 738.082C207.706 737.854 208.374 737.741 209.217 737.741C209.975 737.741 210.581 737.816 211.036 737.968C211.49 738.12 211.817 738.385 212.016 738.764C212.224 739.143 212.329 739.678 212.329 740.37C212.329 740.881 212.224 741.288 212.016 741.592C211.817 741.885 211.533 742.098 211.163 742.231C210.794 742.354 210.358 742.416 209.856 742.416H207.938C207.957 742.804 208.014 743.117 208.108 743.354C208.213 743.581 208.397 743.747 208.663 743.851C208.937 743.946 209.33 743.993 209.842 743.993H212.073V745.229C211.703 745.305 211.296 745.381 210.851 745.457C210.415 745.523 209.894 745.556 209.288 745.556ZM207.909 741.165H209.643C209.927 741.165 210.136 741.108 210.268 740.995C210.401 740.881 210.467 740.677 210.467 740.384C210.467 740.109 210.425 739.891 210.339 739.73C210.254 739.56 210.121 739.441 209.941 739.375C209.761 739.299 209.52 739.261 209.217 739.261C208.895 739.261 208.639 739.318 208.449 739.432C208.26 739.536 208.123 739.725 208.037 740C207.952 740.275 207.909 740.663 207.909 741.165ZM213.723 745.485V737.854H215.343L215.826 739.02C216.101 738.669 216.409 738.371 216.75 738.124C217.1 737.878 217.512 737.755 217.986 737.755C218.09 737.755 218.194 737.76 218.298 737.769C218.412 737.779 218.516 737.797 218.611 737.826V739.986C218.469 739.967 218.317 739.953 218.156 739.943C218.005 739.924 217.858 739.915 217.716 739.915C217.441 739.915 217.19 739.948 216.963 740.014C216.745 740.071 216.541 740.161 216.352 740.284C216.172 740.398 215.996 740.55 215.826 740.739V745.485H213.723ZM225.583 745.57C224.901 745.57 224.366 745.371 223.978 744.974C223.589 744.566 223.395 743.993 223.395 743.254V737.854H225.498V742.629C225.498 743.055 225.598 743.344 225.797 743.496C226.005 743.638 226.275 743.709 226.607 743.709C226.872 743.709 227.142 743.661 227.416 743.567C227.701 743.463 227.952 743.325 228.17 743.155V737.854H230.287V745.485H228.539L228.17 744.704C227.829 744.931 227.435 745.135 226.99 745.315C226.545 745.485 226.076 745.57 225.583 745.57ZM231.889 745.485V737.854H233.622L233.992 738.636C234.276 738.399 234.631 738.191 235.058 738.011C235.493 737.821 235.939 737.726 236.393 737.726C237.019 737.726 237.502 737.85 237.843 738.096C238.184 738.342 238.421 738.674 238.553 739.091C238.695 739.498 238.766 739.953 238.766 740.455V745.485H236.663V740.725C236.663 740.478 236.616 740.275 236.521 740.114C236.436 739.953 236.313 739.83 236.152 739.744C235.991 739.659 235.796 739.616 235.569 739.616C235.37 739.616 235.176 739.64 234.987 739.687C234.807 739.735 234.631 739.801 234.461 739.886C234.3 739.972 234.143 740.071 233.992 740.185V745.485H231.889ZM244.032 745.485V737.854H245.652L246.135 739.02C246.41 738.669 246.717 738.371 247.058 738.124C247.409 737.878 247.821 737.755 248.295 737.755C248.399 737.755 248.503 737.76 248.607 737.769C248.721 737.779 248.825 737.797 248.92 737.826V739.986C248.778 739.967 248.626 739.953 248.465 739.943C248.314 739.924 248.167 739.915 248.025 739.915C247.75 739.915 247.499 739.948 247.272 740.014C247.054 740.071 246.85 740.161 246.661 740.284C246.481 740.398 246.305 740.55 246.135 740.739V745.485H244.032ZM252.556 745.57C251.959 745.57 251.457 745.447 251.049 745.201C250.642 744.945 250.334 744.538 250.126 743.979C249.927 743.41 249.827 742.667 249.827 741.748C249.827 740.801 249.913 740.033 250.083 739.446C250.263 738.859 250.561 738.427 250.978 738.153C251.395 737.878 251.968 737.741 252.698 737.741C253.048 737.741 253.394 737.779 253.735 737.854C254.076 737.921 254.379 738.001 254.645 738.096V734.643H256.762V745.485H254.986L254.645 744.76C254.483 744.912 254.285 745.049 254.048 745.172C253.82 745.296 253.579 745.395 253.323 745.471C253.067 745.537 252.811 745.57 252.556 745.57ZM253.295 743.879C253.579 743.879 253.835 743.832 254.062 743.737C254.299 743.643 254.493 743.548 254.645 743.453V739.616C254.455 739.55 254.256 739.484 254.048 739.417C253.839 739.351 253.617 739.318 253.38 739.318C253.029 739.318 252.745 739.38 252.527 739.503C252.319 739.626 252.167 739.858 252.072 740.199C251.978 740.531 251.93 741.014 251.93 741.648C251.93 742.236 251.973 742.695 252.058 743.027C252.153 743.349 252.3 743.571 252.499 743.695C252.698 743.818 252.963 743.879 253.295 743.879ZM260.272 745.485L257.714 737.854H259.888L261.536 743.538L263.227 737.854H265.373L262.702 745.485H260.272Z" fill="white"/>
<path d="M355.1 398.565H340.89C339.769 398.565 338.86 399.474 338.86 400.595V414.805C338.86 415.926 339.769 416.835 340.89 416.835H355.1C356.221 416.835 357.13 415.926 357.13 414.805V400.595C357.13 399.474 356.221 398.565 355.1 398.565Z" stroke="#004579" stroke-width="2.03" stroke-linecap="round" stroke-linejoin="round"/>
<path d="M352.055 396.535V400.595" stroke="#004579" stroke-width="2.03" stroke-linecap="round" stroke-linejoin="round"/>
<path d="M343.935 396.535V400.595" stroke="#004579" stroke-width="2.03" stroke-linecap="round" stroke-linejoin="round"/>
<path d="M338.86 404.655H357.13" stroke="#004579" stroke-width="2.03" stroke-linecap="round" stroke-linejoin="round"/>
<path d="M355.1 476.72H340.89C339.769 476.72 338.86 477.629 338.86 478.75V492.96C338.86 494.081 339.769 494.99 340.89 494.99H355.1C356.221 494.99 357.13 494.081 357.13 492.96V478.75C357.13 477.629 356.221 476.72 355.1 476.72Z" stroke="#004579" stroke-width="2.03" stroke-linecap="round" stroke-linejoin="round"/>
<path d="M352.055 474.69V478.75" stroke="#004579" stroke-width="2.03" stroke-linecap="round" stroke-linejoin="round"/>
<path d="M343.935 474.69V478.75" stroke="#004579" stroke-width="2.03" stroke-linecap="round" stroke-linejoin="round"/>
<path d="M338.86 482.81H357.13" stroke="#004579" stroke-width="2.03" stroke-linecap="round" stroke-linejoin="round"/>
<g filter="url(#filter1_i_505_944)">
<path d="M0 137.6C0 137.04 0 136.76 0.108993 136.546C0.204867 136.358 0.357847 136.205 0.546009 136.109C0.759921 136 1.03995 136 1.6 136H3V166H1.6C1.03995 166 0.759921 166 0.546009 165.891C0.357847 165.795 0.204867 165.642 0.108993 165.454C0 165.24 0 164.96 0 164.4V137.6Z" fill="#333333"/>
</g>
<g filter="url(#filter2_i_505_944)">
<path d="M0 199.6C0 199.04 0 198.76 0.108993 198.546C0.204867 198.358 0.357847 198.205 0.546009 198.109C0.759921 198 1.03995 198 1.6 198H3V260H1.6C1.03995 260 0.759921 260 0.546009 259.891C0.357847 259.795 0.204867 259.642 0.108993 259.454C0 259.24 0 258.96 0 258.4V199.6Z" fill="#333333"/>
</g>
<g filter="url(#filter3_i_505_944)">
<path d="M0 279.6C0 279.04 0 278.76 0.108993 278.546C0.204867 278.358 0.357847 278.205 0.546009 278.109C0.759921 278 1.03995 278 1.6 278H3V340H1.6C1.03995 340 0.759921 340 0.546009 339.891C0.357847 339.795 0.204867 339.642 0.108993 339.454C0 339.24 0 338.96 0 338.4V279.6Z" fill="#333333"/>
</g>
<g filter="url(#filter4_i_505_944)">
<path d="M422 220H423.4C423.96 220 424.24 220 424.454 220.109C424.642 220.205 424.795 220.358 424.891 220.546C425 220.76 425 221.04 425 221.6V318.4C425 318.96 425 319.24 424.891 319.454C424.795 319.642 424.642 319.795 424.454 319.891C424.24 320 423.96 320 423.4 320H422V220Z" fill="#333333"/>
</g>
<rect x="17" y="14" width="391" height="828" rx="48" stroke="black" stroke-width="20"/>
<defs>
<filter id="filter0_i_505_944" x="3" y="0" width="419" height="856" filterUnits="userSpaceOnUse" color-interpolation-filters="sRGB">
<feFlood flood-opacity="0" result="BackgroundImageFix"/>
<feBlend mode="normal" in="SourceGraphic" in2="BackgroundImageFix" result="shape"/>
<feColorMatrix in="SourceAlpha" type="matrix" values="0 0 0 0 0 0 0 0 0 0 0 0 0 0 0 0 0 0 127 0" result="hardAlpha"/>
<feOffset/>
<feGaussianBlur stdDeviation="4"/>
<feComposite in2="hardAlpha" operator="arithmetic" k2="-1" k3="1"/>
<feColorMatrix type="matrix" values="0 0 0 0 1 0 0 0 0 1 0 0 0 0 1 0 0 0 0.9 0"/>
<feBlend mode="normal" in2="shape" result="effect1_innerShadow_505_944"/>
</filter>
<filter id="filter1_i_505_944" x="0" y="136" width="4" height="30" filterUnits="userSpaceOnUse" color-interpolation-filters="sRGB">
<feFlood flood-opacity="0" result="BackgroundImageFix"/>
<feBlend mode="normal" in="SourceGraphic" in2="BackgroundImageFix" result="shape"/>
<feColorMatrix in="SourceAlpha" type="matrix" values="0 0 0 0 0 0 0 0 0 0 0 0 0 0 0 0 0 0 127 0" result="hardAlpha"/>
<feOffset dx="1"/>
<feGaussianBlur stdDeviation="1"/>
<feComposite in2="hardAlpha" operator="arithmetic" k2="-1" k3="1"/>
<feColorMatrix type="matrix" values="0 0 0 0 1 0 0 0 0 1 0 0 0 0 1 0 0 0 0.5 0"/>
<feBlend mode="normal" in2="shape" result="effect1_innerShadow_505_944"/>
</filter>
<filter id="filter2_i_505_944" x="0" y="198" width="4" height="62" filterUnits="userSpaceOnUse" color-interpolation-filters="sRGB">
<feFlood flood-opacity="0" result="BackgroundImageFix"/>
<feBlend mode="normal" in="SourceGraphic" in2="BackgroundImageFix" result="shape"/>
<feColorMatrix in="SourceAlpha" type="matrix" values="0 0 0 0 0 0 0 0 0 0 0 0 0 0 0 0 0 0 127 0" result="hardAlpha"/>
<feOffset dx="1"/>
<feGaussianBlur stdDeviation="1"/>
<feComposite in2="hardAlpha" operator="arithmetic" k2="-1" k3="1"/>
<feColorMatrix type="matrix" values="0 0 0 0 1 0 0 0 0 1 0 0 0 0 1 0 0 0 0.5 0"/>
<feBlend mode="normal" in2="shape" result="effect1_innerShadow_505_944"/>
</filter>
<filter id="filter3_i_505_944" x="0" y="278" width="4" height="62" filterUnits="userSpaceOnUse" color-interpolation-filters="sRGB">
<feFlood flood-opacity="0" result="BackgroundImageFix"/>
<feBlend mode="normal" in="SourceGraphic" in2="BackgroundImageFix" result="shape"/>
<feColorMatrix in="SourceAlpha" type="matrix" values="0 0 0 0 0 0 0 0 0 0 0 0 0 0 0 0 0 0 127 0" result="hardAlpha"/>
<feOffset dx="1"/>
<feGaussianBlur stdDeviation="1"/>
<feComposite in2="hardAlpha" operator="arithmetic" k2="-1" k3="1"/>
<feColorMatrix type="matrix" values="0 0 0 0 1 0 0 0 0 1 0 0 0 0 1 0 0 0 0.5 0"/>
<feBlend mode="normal" in2="shape" result="effect1_innerShadow_505_944"/>
</filter>
<filter id="filter4_i_505_944" x="421" y="220" width="4" height="100" filterUnits="userSpaceOnUse" color-interpolation-filters="sRGB">
<feFlood flood-opacity="0" result="BackgroundImageFix"/>
<feBlend mode="normal" in="SourceGraphic" in2="BackgroundImageFix" result="shape"/>
<feColorMatrix in="SourceAlpha" type="matrix" values="0 0 0 0 0 0 0 0 0 0 0 0 0 0 0 0 0 0 127 0" result="hardAlpha"/>
<feOffset dx="-1"/>
<feGaussianBlur stdDeviation="1"/>
<feComposite in2="hardAlpha" operator="arithmetic" k2="-1" k3="1"/>
<feColorMatrix type="matrix" values="0 0 0 0 1 0 0 0 0 1 0 0 0 0 1 0 0 0 0.5 0"/>
<feBlend mode="normal" in2="shape" result="effect1_innerShadow_505_944"/>
</filter>
<linearGradient id="paint0_linear_505_944" x1="212.5" y1="0" x2="212.5" y2="856" gradientUnits="userSpaceOnUse">
<stop stop-color="white" stop-opacity="0.6"/>
<stop offset="1" stop-color="white" stop-opacity="0.3"/>
</linearGradient>
</defs>
</svg>
