<svg width="425" height="856" viewBox="0 0 425 856" fill="none" xmlns="http://www.w3.org/2000/svg">
<g filter="url(#filter0_i_505_1011)">
<rect x="3" width="419" height="856" rx="62" fill="#1A1A1A"/>
</g>
<rect x="3.5" y="0.5" width="418" height="855" rx="61.5" stroke="url(#paint0_linear_505_1011)" stroke-opacity="0.5"/>
<g filter="url(#filter1_i_505_1011)">
<path d="M0 137.6C0 137.04 0 136.76 0.108993 136.546C0.204867 136.358 0.357847 136.205 0.546009 136.109C0.759921 136 1.03995 136 1.6 136H3V166H1.6C1.03995 166 0.759921 166 0.546009 165.891C0.357847 165.795 0.204867 165.642 0.108993 165.454C0 165.24 0 164.96 0 164.4V137.6Z" fill="#333333"/>
</g>
<g filter="url(#filter2_i_505_1011)">
<path d="M0 199.6C0 199.04 0 198.76 0.108993 198.546C0.204867 198.358 0.357847 198.205 0.546009 198.109C0.759921 198 1.03995 198 1.6 198H3V260H1.6C1.03995 260 0.759921 260 0.546009 259.891C0.357847 259.795 0.204867 259.642 0.108993 259.454C0 259.24 0 258.96 0 258.4V199.6Z" fill="#333333"/>
</g>
<g filter="url(#filter3_i_505_1011)">
<path d="M0 279.6C0 279.04 0 278.76 0.108993 278.546C0.204867 278.358 0.357847 278.205 0.546009 278.109C0.759921 278 1.03995 278 1.6 278H3V340H1.6C1.03995 340 0.759921 340 0.546009 339.891C0.357847 339.795 0.204867 339.642 0.108993 339.454C0 339.24 0 338.96 0 338.4V279.6Z" fill="#333333"/>
</g>
<g filter="url(#filter4_i_505_1011)">
<path d="M422 220H423.4C423.96 220 424.24 220 424.454 220.109C424.642 220.205 424.795 220.358 424.891 220.546C425 220.76 425 221.04 425 221.6V318.4C425 318.96 425 319.24 424.891 319.454C424.795 319.642 424.642 319.795 424.454 319.891C424.24 320 423.96 320 423.4 320H422V220Z" fill="#333333"/>
</g>
<rect x="25" y="22" width="375" height="812" rx="40" fill="white"/>
<rect width="365.4" height="812" transform="translate(30.2998 22)" fill="#FAFAFE"/>
<rect x="30.2998" y="22" width="365.4" height="24.36" fill="#F5F5F5"/>
<path fill-rule="evenodd" clip-rule="evenodd" d="M329.666 28.09H328.591C327.997 28.09 327.516 28.6012 327.516 29.2318V39.1281C327.516 39.7587 327.997 40.27 328.591 40.27H329.666C330.259 40.27 330.74 39.7587 330.74 39.1281V29.2318C330.74 28.6012 330.259 28.09 329.666 28.09ZM323.576 30.7543H324.651C325.245 30.7543 325.726 31.2656 325.726 31.8962V39.1281C325.726 39.7587 325.245 40.27 324.651 40.27H323.576C322.983 40.27 322.502 39.7587 322.502 39.1281V31.8962C322.502 31.2656 322.983 30.7543 323.576 30.7543ZM319.636 33.4187H318.561C317.967 33.4187 317.486 33.93 317.486 34.5606V39.1281C317.486 39.7587 317.967 40.27 318.561 40.27H319.636C320.229 40.27 320.71 39.7587 320.71 39.1281V34.5606C320.71 33.93 320.229 33.4187 319.636 33.4187ZM314.62 35.7025H313.545C312.952 35.7025 312.471 36.2137 312.471 36.8443V39.1281C312.471 39.7587 312.952 40.27 313.545 40.27H314.62C315.214 40.27 315.695 39.7587 315.695 39.1281V36.8443C315.695 36.2137 315.214 35.7025 314.62 35.7025Z" fill="#170E2B"/>
<path fill-rule="evenodd" clip-rule="evenodd" d="M344.951 30.6195C347.307 30.6196 349.573 31.5653 351.281 33.2612C351.409 33.3922 351.615 33.3905 351.741 33.2575L352.971 31.9617C353.035 31.8942 353.071 31.8029 353.07 31.7078C353.07 31.6127 353.033 31.5218 352.968 31.4552C348.486 26.9682 341.415 26.9682 336.932 31.4552C336.868 31.5218 336.831 31.6127 336.83 31.7077C336.829 31.8028 336.865 31.8942 336.929 31.9617L338.159 33.2575C338.285 33.3907 338.491 33.3924 338.62 33.2612C340.328 31.5652 342.594 30.6195 344.951 30.6195ZM344.95 34.8356C346.245 34.8355 347.493 35.3382 348.453 36.2459C348.583 36.3747 348.787 36.3719 348.914 36.2396L350.141 34.9437C350.206 34.8757 350.242 34.7835 350.241 34.6877C350.24 34.5919 350.202 34.5005 350.137 34.4339C347.214 31.5944 342.689 31.5944 339.766 34.4339C339.7 34.5005 339.663 34.5919 339.662 34.6878C339.661 34.7836 339.697 34.8758 339.762 34.9437L340.989 36.2396C341.116 36.3719 341.32 36.3747 341.45 36.2459C342.409 35.3388 343.656 34.8362 344.95 34.8356ZM347.41 37.6722C347.412 37.7683 347.376 37.8609 347.31 37.9283L345.186 40.1672C345.124 40.233 345.039 40.27 344.95 40.27C344.862 40.27 344.777 40.233 344.715 40.1672L342.59 37.9283C342.525 37.8609 342.489 37.7682 342.491 37.6721C342.493 37.576 342.532 37.485 342.601 37.4206C343.957 36.2223 345.944 36.2223 347.3 37.4206C347.368 37.4851 347.408 37.5761 347.41 37.6722Z" fill="#170E2B"/>
<path opacity="0.4" fill-rule="evenodd" clip-rule="evenodd" d="M361.867 29.1051H378.482C379.417 29.1051 380.174 29.8625 380.174 30.7968V37.5634C380.174 38.4977 379.417 39.2551 378.482 39.2551H361.867C360.933 39.2551 360.175 38.4977 360.175 37.5634V30.7968C360.175 29.8625 360.933 29.1051 361.867 29.1051ZM359.16 30.7968C359.16 29.3019 360.372 28.0901 361.867 28.0901H378.482C379.977 28.0901 381.189 29.3019 381.189 30.7968V37.5634C381.189 39.0583 379.977 40.2701 378.482 40.2701H361.867C360.372 40.2701 359.16 39.0583 359.16 37.5634V30.7968ZM382.19 36.3295V32.0306C382.996 32.3947 383.52 33.2417 383.52 34.1801C383.52 35.1184 382.996 35.9654 382.19 36.3295Z" fill="#170E2B"/>
<rect x="361.163" y="30.2395" width="18.0237" height="7.88118" rx="1.35333" fill="#170E2B"/>
<path d="M47.8082 28.9229V39.0601H46.1361V30.9073L43.659 31.7469V30.3661L47.607 28.9229H47.8082ZM58.1053 37.7279V39.0601H51.3333V37.9152L54.6222 34.328C54.983 33.921 55.2674 33.5694 55.4756 33.2734C55.6837 32.9773 55.8295 32.7114 55.9127 32.4754C56.0006 32.2349 56.0445 32.0013 56.0445 31.7747C56.0445 31.4555 55.9844 31.1756 55.8641 30.9351C55.7485 30.6899 55.5774 30.498 55.3507 30.3592C55.124 30.2158 54.8488 30.1441 54.525 30.1441C54.1503 30.1441 53.8358 30.2251 53.5814 30.387C53.327 30.5489 53.135 30.7732 53.0055 31.06C52.876 31.3422 52.8112 31.666 52.8112 32.0314H51.139C51.139 31.4439 51.2732 30.9073 51.5415 30.4217C51.8098 29.9313 52.1983 29.5428 52.7071 29.256C53.216 28.9646 53.8289 28.8189 54.5458 28.8189C55.2212 28.8189 55.7948 28.9322 56.2666 29.1589C56.7384 29.3855 57.0969 29.707 57.342 30.1233C57.5918 30.5396 57.7167 31.0322 57.7167 31.6012C57.7167 31.9157 57.6658 32.228 57.5641 32.5379C57.4623 32.8478 57.3166 33.1577 57.127 33.4676C56.9419 33.7729 56.7222 34.0805 56.4678 34.3905C56.2134 34.6958 55.9335 35.0057 55.6282 35.3202L53.4426 37.7279H58.1053ZM59.5419 38.2274C59.5419 37.9684 59.6298 37.751 59.8055 37.5752C59.9813 37.3948 60.2195 37.3046 60.5202 37.3046C60.8255 37.3046 61.0637 37.3948 61.2349 37.5752C61.4106 37.751 61.4985 37.9684 61.4985 38.2274C61.4985 38.4865 61.4106 38.7039 61.2349 38.8797C61.0637 39.0554 60.8255 39.1433 60.5202 39.1433C60.2195 39.1433 59.9813 39.0554 59.8055 38.8797C59.6298 38.7039 59.5419 38.4865 59.5419 38.2274ZM59.5488 32.3159C59.5488 32.0568 59.6367 31.8394 59.8125 31.6636C59.9882 31.4832 60.2265 31.393 60.5271 31.393C60.8324 31.393 61.0707 31.4832 61.2418 31.6636C61.4176 31.8394 61.5055 32.0568 61.5055 32.3159C61.5055 32.5749 61.4176 32.7923 61.2418 32.9681C61.0707 33.1439 60.8324 33.2317 60.5271 33.2317C60.2265 33.2317 59.9882 33.1439 59.8125 32.9681C59.6367 32.7923 59.5488 32.5749 59.5488 32.3159ZM65.1485 33.2526H66.1476C66.5362 33.2526 66.8577 33.1855 67.1121 33.0513C67.3711 32.9172 67.5631 32.7322 67.688 32.4963C67.8129 32.2604 67.8753 31.9898 67.8753 31.6845C67.8753 31.3653 67.8175 31.0924 67.7019 30.8657C67.5908 30.6344 67.4197 30.4563 67.1884 30.3315C66.9618 30.2066 66.6726 30.1441 66.3211 30.1441C66.0251 30.1441 65.7568 30.2042 65.5162 30.3245C65.2803 30.4402 65.093 30.6067 64.9542 30.8241C64.8154 31.0369 64.7461 31.2913 64.7461 31.5873H63.067C63.067 31.0507 63.208 30.5743 63.4902 30.158C63.7724 29.7417 64.1563 29.4156 64.642 29.1797C65.1323 28.9391 65.6828 28.8189 66.2933 28.8189C66.9456 28.8189 67.5145 28.9276 68.0002 29.145C68.4905 29.3578 68.8721 29.6769 69.1451 30.1025C69.418 30.528 69.5544 31.0554 69.5544 31.6845C69.5544 31.9712 69.4874 32.2627 69.3532 32.5587C69.2191 32.8547 69.0202 33.1253 68.7565 33.3705C68.4928 33.611 68.1644 33.8076 67.7712 33.9603C67.3781 34.1083 66.9224 34.1823 66.4044 34.1823H65.1485V33.2526ZM65.1485 34.557V33.6411H66.4044C66.9964 33.6411 67.5006 33.7105 67.9169 33.8493C68.3379 33.988 68.6802 34.18 68.9438 34.4252C69.2075 34.6657 69.3995 34.9409 69.5197 35.2508C69.6446 35.5608 69.7071 35.8892 69.7071 36.2361C69.7071 36.7079 69.6215 37.1288 69.4504 37.4989C69.2838 37.8643 69.0456 38.1742 68.7357 38.4287C68.4258 38.6831 68.0627 38.875 67.6463 39.0046C67.2347 39.1341 66.786 39.1988 66.3003 39.1988C65.8655 39.1988 65.4492 39.1387 65.0514 39.0184C64.6536 38.8982 64.2974 38.7201 63.9828 38.4842C63.6683 38.2436 63.4185 37.9453 63.2335 37.5891C63.0531 37.2283 62.9629 36.812 62.9629 36.3402H64.635C64.635 36.6408 64.7044 36.9068 64.8432 37.1381C64.9866 37.3648 65.1855 37.5428 65.4399 37.6724C65.6989 37.8019 65.995 37.8666 66.328 37.8666C66.6796 37.8666 66.9826 37.8042 67.237 37.6793C67.4914 37.5544 67.6857 37.3694 67.8198 37.1242C67.9586 36.8791 68.028 36.583 68.028 36.2361C68.028 35.8429 67.9516 35.5237 67.799 35.2786C67.6463 35.0334 67.4289 34.853 67.1468 34.7374C66.8646 34.6171 66.5316 34.557 66.1476 34.557H65.1485ZM77.8601 33.1624V34.8137C77.8601 35.6047 77.7815 36.28 77.6242 36.8397C77.4716 37.3948 77.2495 37.8458 76.9581 38.1927C76.6667 38.5397 76.3175 38.7941 75.9104 38.956C75.508 39.1179 75.057 39.1988 74.5574 39.1988C74.1596 39.1988 73.7895 39.1479 73.4472 39.0462C73.1096 38.9444 72.8043 38.7848 72.5314 38.5674C72.2585 38.35 72.0249 38.0702 71.8306 37.7279C71.6409 37.3809 71.4929 36.967 71.3865 36.4859C71.2848 36.0048 71.2339 35.4474 71.2339 34.8137V33.1624C71.2339 32.3667 71.3125 31.696 71.4698 31.1502C71.6271 30.5997 71.8514 30.1534 72.1428 29.8111C72.4342 29.4641 72.7812 29.212 73.1836 29.0548C73.5906 28.8975 74.044 28.8189 74.5435 28.8189C74.946 28.8189 75.316 28.8697 75.6537 28.9715C75.996 29.0687 76.3013 29.2236 76.5696 29.4364C76.8425 29.6492 77.0738 29.9267 77.2634 30.269C77.4577 30.6067 77.6057 31.0161 77.7075 31.4971C77.8092 31.9736 77.8601 32.5286 77.8601 33.1624ZM76.1879 35.0496V32.9126C76.1879 32.5101 76.1648 32.1563 76.1186 31.851C76.0723 31.5411 76.0029 31.2797 75.9104 31.0669C75.8225 30.8495 75.7115 30.6738 75.5774 30.5396C75.4432 30.4008 75.2906 30.3014 75.1194 30.2413C74.9483 30.1765 74.7563 30.1441 74.5435 30.1441C74.2845 30.1441 74.0532 30.195 73.8497 30.2968C73.6462 30.3939 73.475 30.5512 73.3362 30.7686C73.1975 30.986 73.0911 31.2728 73.0171 31.6289C72.9477 31.9805 72.913 32.4084 72.913 32.9126V35.0496C72.913 35.4567 72.9361 35.8152 72.9824 36.1251C73.0286 36.435 73.098 36.701 73.1905 36.923C73.283 37.1404 73.3941 37.3208 73.5236 37.4642C73.6577 37.603 73.8104 37.7047 73.9815 37.7695C74.1573 37.8343 74.3492 37.8666 74.5574 37.8666C74.8211 37.8666 75.0547 37.8158 75.2582 37.714C75.4617 37.6122 75.6329 37.4503 75.7716 37.2283C75.9104 37.0016 76.0145 36.7079 76.0839 36.3471C76.1533 35.9863 76.1879 35.5538 76.1879 35.0496Z" fill="#170E2B"/>
<rect width="365.4" height="48.72" transform="translate(30.2998 785.28)" fill="#F5F5F5"/>
<rect x="307.395" y="802.535" width="14.21" height="14.21" rx="2.03" fill="#797979"/>
<path fill-rule="evenodd" clip-rule="evenodd" d="M115.036 802.683C115.713 802.276 116.575 802.763 116.575 803.553V815.727C116.575 816.517 115.713 817.004 115.036 816.597L104.925 810.51C104.269 810.115 104.269 809.165 104.925 808.77L115.036 802.683Z" fill="#797979"/>
<path fill-rule="evenodd" clip-rule="evenodd" d="M221.12 809.64C221.12 814.125 217.484 817.76 213 817.76C208.515 817.76 204.88 814.125 204.88 809.64C204.88 805.155 208.515 801.52 213 801.52C217.484 801.52 221.12 805.155 221.12 809.64ZM220.105 809.64C220.105 813.564 216.924 816.745 213 816.745C209.076 816.745 205.895 813.564 205.895 809.64C205.895 805.716 209.076 802.535 213 802.535C216.924 802.535 220.105 805.716 220.105 809.64ZM213 815.73C216.363 815.73 219.09 813.003 219.09 809.64C219.09 806.277 216.363 803.55 213 803.55C209.636 803.55 206.91 806.277 206.91 809.64C206.91 813.003 209.636 815.73 213 815.73Z" fill="#797979"/>
<rect x="46.54" y="63.615" width="48.72" height="48.72" rx="10.15" fill="#004579" fill-opacity="0.02"/>
<path d="M78.0049 87.975H63.7949" stroke="black" stroke-width="2.03" stroke-linecap="round" stroke-linejoin="round"/>
<path d="M70.8999 95.08L63.7949 87.975L70.8999 80.87" stroke="black" stroke-width="2.03" stroke-linecap="round" stroke-linejoin="round"/>
<path d="M147.466 92.8401L150.877 82.3531H153.094L156.504 92.8401H154.671L153.861 90.3533H150.067L149.271 92.8401H147.466ZM150.479 88.776H153.435L151.957 83.8594L150.479 88.776ZM157.227 84.0157C157.047 84.0157 156.957 83.9304 156.957 83.7599V82.4668C156.957 82.2773 157.047 82.1826 157.227 82.1826H158.549C158.634 82.1826 158.696 82.211 158.733 82.2678C158.781 82.3247 158.805 82.391 158.805 82.4668V83.7599C158.805 83.9304 158.719 84.0157 158.549 84.0157H157.227ZM157 96.2079V85.2235H158.762V92.7122C158.762 93.3374 158.724 93.9627 158.648 94.5879C158.572 95.2226 158.468 95.7626 158.336 96.2079H157ZM163.181 92.9111C162.584 92.9111 162.068 92.8496 161.632 92.7264C161.196 92.6033 160.841 92.3948 160.566 92.1012C160.292 91.8075 160.088 91.4096 159.955 90.9075C159.823 90.4054 159.756 89.7755 159.756 89.0176C159.756 88.2313 159.823 87.5871 159.955 87.085C160.088 86.5735 160.292 86.1756 160.566 85.8914C160.85 85.5977 161.21 85.3988 161.646 85.2946C162.082 85.1809 162.594 85.1241 163.181 85.1241C163.787 85.1241 164.308 85.1856 164.744 85.3088C165.18 85.4225 165.535 85.6214 165.81 85.9056C166.084 86.1898 166.288 86.5877 166.421 87.0992C166.553 87.6013 166.62 88.2408 166.62 89.0176C166.62 89.7849 166.553 90.4244 166.421 90.9359C166.298 91.438 166.099 91.8359 165.824 92.1296C165.549 92.4138 165.194 92.6175 164.758 92.7406C164.322 92.8543 163.797 92.9111 163.181 92.9111ZM163.181 91.5043C163.475 91.5043 163.726 91.4807 163.934 91.4333C164.142 91.3765 164.313 91.2675 164.446 91.1065C164.588 90.9359 164.692 90.6849 164.758 90.3533C164.824 90.0123 164.858 89.5623 164.858 89.0034C164.858 88.4539 164.824 88.0134 164.758 87.6819C164.692 87.3503 164.588 87.104 164.446 86.9429C164.313 86.7724 164.142 86.6635 163.934 86.6161C163.726 86.5593 163.475 86.5308 163.181 86.5308C162.897 86.5308 162.65 86.5593 162.442 86.6161C162.234 86.6635 162.063 86.7724 161.93 86.9429C161.798 87.104 161.694 87.3503 161.618 87.6819C161.551 88.0134 161.518 88.4539 161.518 89.0034C161.518 89.5623 161.551 90.0123 161.618 90.3533C161.694 90.6849 161.798 90.9359 161.93 91.1065C162.063 91.2675 162.234 91.3765 162.442 91.4333C162.65 91.4807 162.897 91.5043 163.181 91.5043ZM169.819 92.9253C169.118 92.9253 168.574 92.7311 168.185 92.3427C167.797 91.9449 167.603 91.367 167.603 90.6091V85.2235H169.365V90.0976C169.365 90.5996 169.478 90.9359 169.706 91.1065C169.943 91.277 170.26 91.3622 170.658 91.3622C170.989 91.3622 171.311 91.3101 171.624 91.2059C171.937 91.1017 172.23 90.9502 172.505 90.7512V85.2235H174.267V92.8401H172.832L172.505 92.0443C172.145 92.2717 171.733 92.4754 171.269 92.6554C170.814 92.8354 170.331 92.9253 169.819 92.9253ZM178.243 92.8401C177.693 92.8401 177.243 92.7596 176.893 92.5985C176.542 92.428 176.286 92.1485 176.125 91.7601C175.974 91.3717 175.903 90.8602 175.912 90.2254L175.969 86.6445H174.775V85.5077L176.026 85.2235L176.282 83.092H177.66V85.2235H179.593V86.6445H177.66V90.2112C177.66 90.4575 177.684 90.6612 177.731 90.8223C177.779 90.9738 177.845 91.097 177.93 91.1917C178.025 91.277 178.124 91.3386 178.228 91.3765C178.333 91.4144 178.442 91.438 178.555 91.4475L179.507 91.547V92.8401H178.243ZM183.427 92.9111C182.603 92.9111 181.945 92.7975 181.452 92.5701C180.969 92.3427 180.619 91.9496 180.401 91.3907C180.183 90.8223 180.074 90.036 180.074 89.0318C180.074 88.0087 180.178 87.2177 180.386 86.6587C180.595 86.0903 180.941 85.6925 181.424 85.4651C181.907 85.2377 182.561 85.1241 183.385 85.1241C184.114 85.1241 184.697 85.1998 185.133 85.3514C185.578 85.4935 185.9 85.754 186.099 86.133C186.307 86.5024 186.411 87.0282 186.411 87.7103C186.411 88.1934 186.317 88.5818 186.127 88.8755C185.938 89.1597 185.663 89.3634 185.303 89.4865C184.953 89.6097 184.536 89.6713 184.053 89.6713H181.822C181.841 90.1449 181.902 90.5239 182.006 90.8081C182.12 91.0828 182.319 91.2817 182.603 91.4049C182.897 91.528 183.323 91.5896 183.882 91.5896H186.184V92.6269C185.796 92.7027 185.384 92.769 184.948 92.8259C184.522 92.8827 184.015 92.9111 183.427 92.9111ZM181.807 88.6055H183.882C184.214 88.6055 184.455 88.5439 184.607 88.4208C184.768 88.2882 184.848 88.0513 184.848 87.7103C184.848 87.3787 184.801 87.1182 184.706 86.9287C184.612 86.7393 184.455 86.6066 184.237 86.5308C184.019 86.4456 183.735 86.403 183.385 86.403C182.987 86.403 182.674 86.4645 182.447 86.5877C182.219 86.7108 182.054 86.9335 181.95 87.2556C181.855 87.5682 181.807 88.0182 181.807 88.6055ZM187.407 92.8401V85.2235H188.771L189.169 86.4456C189.472 86.0761 189.809 85.7635 190.178 85.5077C190.547 85.2519 190.988 85.1241 191.5 85.1241C191.604 85.1241 191.713 85.1335 191.826 85.1525C191.94 85.162 192.044 85.1809 192.139 85.2093V86.9998C192.006 86.9808 191.864 86.9666 191.713 86.9571C191.561 86.9477 191.414 86.9429 191.272 86.9429C190.978 86.9429 190.708 86.9761 190.462 87.0424C190.225 87.1087 190.003 87.2129 189.794 87.355C189.586 87.4877 189.377 87.6582 189.169 87.8666V92.8401H187.407ZM198.145 92.9253C197.444 92.9253 196.899 92.7311 196.511 92.3427C196.122 91.9449 195.928 91.367 195.928 90.6091V85.2235H197.69V90.0976C197.69 90.5996 197.804 90.9359 198.031 91.1065C198.268 91.277 198.586 91.3622 198.983 91.3622C199.315 91.3622 199.637 91.3101 199.95 91.2059C200.262 91.1017 200.556 90.9502 200.831 90.7512V85.2235H202.593V92.8401H201.158L200.831 92.0443C200.471 92.2717 200.059 92.4754 199.594 92.6554C199.14 92.8354 198.657 92.9253 198.145 92.9253ZM203.797 92.8401V85.2235H205.233L205.559 86.0193C205.872 85.7825 206.251 85.5693 206.696 85.3798C207.151 85.1904 207.62 85.0956 208.103 85.0956C208.7 85.0956 209.169 85.2188 209.51 85.4651C209.851 85.7019 210.092 86.024 210.235 86.4314C210.386 86.8387 210.462 87.284 210.462 87.7671V92.8401H208.7V87.9803C208.7 87.7055 208.648 87.4734 208.544 87.284C208.439 87.0945 208.292 86.9477 208.103 86.8435C207.923 86.7393 207.7 86.6872 207.435 86.6872C207.189 86.6872 206.957 86.7108 206.739 86.7582C206.53 86.8056 206.332 86.8766 206.142 86.9714C205.953 87.0661 205.758 87.1798 205.559 87.3124V92.8401H203.797ZM214.764 92.9111C213.94 92.9111 213.282 92.7975 212.789 92.5701C212.306 92.3427 211.955 91.9496 211.738 91.3907C211.52 90.8223 211.411 90.036 211.411 89.0318C211.411 88.0087 211.515 87.2177 211.723 86.6587C211.932 86.0903 212.278 85.6925 212.761 85.4651C213.244 85.2377 213.897 85.1241 214.722 85.1241C215.451 85.1241 216.034 85.1998 216.469 85.3514C216.915 85.4935 217.237 85.754 217.436 86.133C217.644 86.5024 217.748 87.0282 217.748 87.7103C217.748 88.1934 217.654 88.5818 217.464 88.8755C217.275 89.1597 217 89.3634 216.64 89.4865C216.289 89.6097 215.873 89.6713 215.39 89.6713H213.159C213.178 90.1449 213.239 90.5239 213.343 90.8081C213.457 91.0828 213.656 91.2817 213.94 91.4049C214.234 91.528 214.66 91.5896 215.219 91.5896H217.521V92.6269C217.133 92.7027 216.721 92.769 216.285 92.8259C215.858 92.8827 215.352 92.9111 214.764 92.9111ZM213.144 88.6055H215.219C215.551 88.6055 215.792 88.5439 215.944 88.4208C216.105 88.2882 216.185 88.0513 216.185 87.7103C216.185 87.3787 216.138 87.1182 216.043 86.9287C215.948 86.7393 215.792 86.6066 215.574 86.5308C215.356 86.4456 215.072 86.403 214.722 86.403C214.324 86.403 214.011 86.4645 213.784 86.5877C213.556 86.7108 213.391 86.9335 213.286 87.2556C213.192 87.5682 213.144 88.0182 213.144 88.6055ZM224.381 92.9253C223.785 92.9253 223.282 92.7975 222.875 92.5417C222.468 92.2764 222.16 91.8643 221.951 91.3054C221.752 90.737 221.653 90.0028 221.653 89.1029C221.653 88.1555 221.743 87.3929 221.923 86.815C222.103 86.2277 222.401 85.8014 222.818 85.5361C223.245 85.2614 223.813 85.1241 224.523 85.1241C224.902 85.1241 225.277 85.162 225.646 85.2377C226.015 85.3135 226.338 85.4035 226.612 85.5077V81.9979H228.374V92.8401H226.911L226.612 92.1012C226.461 92.2433 226.257 92.3759 226.001 92.499C225.755 92.6222 225.49 92.7264 225.206 92.8117C224.931 92.8875 224.656 92.9253 224.381 92.9253ZM224.978 91.5043C225.319 91.5043 225.627 91.4522 225.902 91.348C226.177 91.2344 226.413 91.1207 226.612 91.007V86.7724C226.375 86.6872 226.134 86.6114 225.888 86.5451C225.641 86.4787 225.371 86.4456 225.078 86.4456C224.68 86.4456 224.358 86.5214 224.111 86.6729C223.865 86.815 223.685 87.0708 223.571 87.4403C223.467 87.8097 223.415 88.3355 223.415 89.0176C223.415 89.6523 223.467 90.1544 223.571 90.5239C223.676 90.8838 223.841 91.1396 224.069 91.2912C224.306 91.4333 224.609 91.5043 224.978 91.5043ZM232.681 92.9111C231.857 92.9111 231.199 92.7975 230.706 92.5701C230.223 92.3427 229.872 91.9496 229.654 91.3907C229.436 90.8223 229.328 90.036 229.328 89.0318C229.328 88.0087 229.432 87.2177 229.64 86.6587C229.849 86.0903 230.194 85.6925 230.677 85.4651C231.161 85.2377 231.814 85.1241 232.638 85.1241C233.368 85.1241 233.951 85.1998 234.386 85.3514C234.832 85.4935 235.154 85.754 235.353 86.133C235.561 86.5024 235.665 87.0282 235.665 87.7103C235.665 88.1934 235.57 88.5818 235.381 88.8755C235.192 89.1597 234.917 89.3634 234.557 89.4865C234.206 89.6097 233.789 89.6713 233.306 89.6713H231.075C231.094 90.1449 231.156 90.5239 231.26 90.8081C231.374 91.0828 231.573 91.2817 231.857 91.4049C232.151 91.528 232.577 91.5896 233.136 91.5896H235.438V92.6269C235.049 92.7027 234.637 92.769 234.202 92.8259C233.775 92.8827 233.268 92.9111 232.681 92.9111ZM231.061 88.6055H233.136C233.467 88.6055 233.709 88.5439 233.861 88.4208C234.022 88.2882 234.102 88.0513 234.102 87.7103C234.102 87.3787 234.055 87.1182 233.96 86.9287C233.865 86.7393 233.709 86.6066 233.491 86.5308C233.273 86.4456 232.989 86.403 232.638 86.403C232.241 86.403 231.928 86.4645 231.701 86.5877C231.473 86.7108 231.307 86.9335 231.203 87.2556C231.109 87.5682 231.061 88.0182 231.061 88.6055ZM236.661 92.8401V85.2235H238.096L238.423 86.0193C238.773 85.773 239.157 85.5598 239.574 85.3798C240 85.1904 240.502 85.0956 241.08 85.0956C241.554 85.0956 241.952 85.1998 242.274 85.4083C242.605 85.6072 242.852 85.8677 243.013 86.1898C243.231 86.0193 243.491 85.8535 243.794 85.6925C244.107 85.5219 244.438 85.3798 244.789 85.2662C245.139 85.1525 245.485 85.0956 245.826 85.0956C246.414 85.0956 246.883 85.2141 247.233 85.4509C247.593 85.6782 247.849 86.0003 248 86.4172C248.152 86.8245 248.228 87.2982 248.228 87.8382V92.8401H246.466V87.9803C246.466 87.7055 246.414 87.4734 246.309 87.284C246.205 87.0945 246.058 86.9477 245.869 86.8435C245.689 86.7393 245.466 86.6872 245.201 86.6872C244.86 86.6872 244.514 86.7535 244.164 86.8861C243.823 87.0187 243.51 87.1798 243.226 87.3692C243.264 87.464 243.287 87.5682 243.297 87.6819C243.316 87.7955 243.325 87.9092 243.325 88.0229V92.8401H241.563V87.9803C241.563 87.7055 241.511 87.4734 241.407 87.284C241.303 87.0945 241.156 86.9477 240.966 86.8435C240.786 86.7393 240.564 86.6872 240.299 86.6872C240.052 86.6872 239.82 86.7108 239.602 86.7582C239.394 86.8056 239.195 86.8766 239.005 86.9714C238.816 87.0661 238.622 87.1798 238.423 87.3124V92.8401H236.661ZM250.978 92.9253C250.409 92.9253 249.945 92.7548 249.585 92.4138C249.225 92.0727 249.045 91.6038 249.045 91.007V90.3675C249.045 89.7802 249.244 89.3018 249.642 88.9323C250.049 88.5629 250.67 88.3781 251.503 88.3781H253.678V87.7103C253.678 87.445 253.63 87.2224 253.535 87.0424C253.441 86.8624 253.27 86.7298 253.024 86.6445C252.778 86.5498 252.403 86.5024 251.901 86.5024H249.599V85.4793C249.95 85.3846 250.362 85.3041 250.836 85.2377C251.309 85.162 251.873 85.1241 252.527 85.1241C253.152 85.1146 253.682 85.1904 254.118 85.3514C254.554 85.503 254.881 85.7588 255.099 86.1188C255.326 86.4787 255.44 86.9714 255.44 87.5966V92.8401H254.061L253.763 92.0159C253.697 92.0727 253.578 92.1485 253.408 92.2433C253.237 92.338 253.024 92.4422 252.768 92.5559C252.512 92.6601 252.228 92.7501 251.916 92.8259C251.612 92.8922 251.3 92.9253 250.978 92.9253ZM251.83 91.6891C251.953 91.6891 252.091 91.6749 252.242 91.6464C252.403 91.6086 252.564 91.5707 252.726 91.5328C252.887 91.4854 253.033 91.4428 253.166 91.4049C253.308 91.3575 253.422 91.3149 253.507 91.277C253.602 91.2391 253.659 91.2154 253.678 91.2059V89.2165L252.029 89.3018C251.593 89.3397 251.276 89.4534 251.077 89.6428C250.888 89.8323 250.793 90.0833 250.793 90.396V90.7086C250.793 90.9454 250.84 91.1396 250.935 91.2912C251.039 91.4333 251.167 91.5328 251.319 91.5896C251.48 91.6464 251.65 91.6796 251.83 91.6891ZM256.617 92.8401V85.2235H258.052L258.379 86.0193C258.692 85.7825 259.071 85.5693 259.516 85.3798C259.971 85.1904 260.439 85.0956 260.923 85.0956C261.519 85.0956 261.988 85.2188 262.329 85.4651C262.67 85.7019 262.912 86.024 263.054 86.4314C263.206 86.8387 263.281 87.284 263.281 87.7671V92.8401H261.519V87.9803C261.519 87.7055 261.467 87.4734 261.363 87.284C261.259 87.0945 261.112 86.9477 260.923 86.8435C260.743 86.7393 260.52 86.6872 260.255 86.6872C260.008 86.6872 259.776 86.7108 259.558 86.7582C259.35 86.8056 259.151 86.8766 258.962 86.9714C258.772 87.0661 258.578 87.1798 258.379 87.3124V92.8401H256.617ZM266.959 92.9253C266.362 92.9253 265.86 92.7975 265.452 92.5417C265.045 92.2764 264.737 91.8643 264.529 91.3054C264.33 90.737 264.23 90.0028 264.23 89.1029C264.23 88.1555 264.32 87.3929 264.5 86.815C264.68 86.2277 264.979 85.8014 265.396 85.5361C265.822 85.2614 266.39 85.1241 267.101 85.1241C267.48 85.1241 267.854 85.162 268.223 85.2377C268.593 85.3135 268.915 85.4035 269.19 85.5077V81.9979H270.952V92.8401H269.488L269.19 92.1012C269.038 92.2433 268.834 92.3759 268.579 92.499C268.332 92.6222 268.067 92.7264 267.783 92.8117C267.508 92.8875 267.233 92.9253 266.959 92.9253ZM267.555 91.5043C267.896 91.5043 268.204 91.4522 268.479 91.348C268.754 91.2344 268.991 91.1207 269.19 91.007V86.7724C268.953 86.6872 268.711 86.6114 268.465 86.5451C268.219 86.4787 267.949 86.4456 267.655 86.4456C267.257 86.4456 266.935 86.5214 266.689 86.6729C266.442 86.815 266.262 87.0708 266.149 87.4403C266.044 87.8097 265.992 88.3355 265.992 89.0176C265.992 89.6523 266.044 90.1544 266.149 90.5239C266.253 90.8838 266.419 91.1396 266.646 91.2912C266.883 91.4333 267.186 91.5043 267.555 91.5043ZM275.258 92.9111C274.434 92.9111 273.776 92.7975 273.283 92.5701C272.8 92.3427 272.45 91.9496 272.232 91.3907C272.014 90.8223 271.905 90.036 271.905 89.0318C271.905 88.0087 272.009 87.2177 272.217 86.6587C272.426 86.0903 272.772 85.6925 273.255 85.4651C273.738 85.2377 274.392 85.1241 275.216 85.1241C275.945 85.1241 276.528 85.1998 276.964 85.3514C277.409 85.4935 277.731 85.754 277.93 86.133C278.138 86.5024 278.242 87.0282 278.242 87.7103C278.242 88.1934 278.148 88.5818 277.958 88.8755C277.769 89.1597 277.494 89.3634 277.134 89.4865C276.784 89.6097 276.367 89.6713 275.884 89.6713H273.653C273.672 90.1449 273.733 90.5239 273.837 90.8081C273.951 91.0828 274.15 91.2817 274.434 91.4049C274.728 91.528 275.154 91.5896 275.713 91.5896H278.015V92.6269C277.627 92.7027 277.215 92.769 276.779 92.8259C276.353 92.8827 275.846 92.9111 275.258 92.9111ZM273.638 88.6055H275.713C276.045 88.6055 276.286 88.5439 276.438 88.4208C276.599 88.2882 276.679 88.0513 276.679 87.7103C276.679 87.3787 276.632 87.1182 276.537 86.9287C276.443 86.7393 276.286 86.6066 276.068 86.5308C275.85 86.4456 275.566 86.403 275.216 86.403C274.818 86.403 274.505 86.4645 274.278 86.5877C274.051 86.7108 273.885 86.9335 273.781 87.2556C273.686 87.5682 273.638 88.0182 273.638 88.6055Z" fill="black"/>
<rect x="46.54" y="215.865" width="332.92" height="143.115" rx="10.15" fill="#004579" fill-opacity="0.03"/>
<rect x="47.0475" y="216.373" width="331.905" height="142.1" rx="9.6425" stroke="#004579" stroke-opacity="0.02" stroke-width="1.015"/>
<path d="M61.6879 250.195V241.231H65.2322C65.7763 241.231 66.2351 241.332 66.6086 241.535C66.9821 241.73 67.2825 242.018 67.5099 242.4C67.7454 242.782 67.9159 243.252 68.0215 243.813C68.127 244.365 68.1798 244.998 68.1798 245.713C68.1798 246.655 68.0702 247.459 67.8509 248.124C67.6317 248.79 67.3028 249.302 66.8644 249.659C66.4259 250.016 65.8818 250.195 65.2322 250.195H61.6879ZM62.6623 249.33H65.1592C65.6382 249.33 66.028 249.184 66.3284 248.892C66.6289 248.591 66.8522 248.173 66.9983 247.637C67.1445 247.093 67.2176 246.452 67.2176 245.713C67.2176 245.047 67.177 244.487 67.0958 244.032C67.0146 243.569 66.8887 243.196 66.7182 242.911C66.5558 242.627 66.3447 242.424 66.0848 242.302C65.825 242.173 65.5164 242.108 65.1592 242.108H62.6623V249.33ZM72.2014 250.268C71.5193 250.268 70.9793 250.167 70.5815 249.964C70.1917 249.761 69.9116 249.416 69.741 248.928C69.5705 248.441 69.4852 247.775 69.4852 246.931C69.4852 246.07 69.5705 245.4 69.741 244.921C69.9197 244.434 70.2079 244.093 70.6058 243.898C71.0037 243.703 71.5396 243.606 72.2136 243.606C72.7901 243.606 73.257 243.671 73.6143 243.801C73.9797 243.93 74.2476 244.154 74.4182 244.47C74.5968 244.779 74.6861 245.209 74.6861 245.762C74.6861 246.143 74.609 246.452 74.4547 246.687C74.3085 246.915 74.0934 247.081 73.8092 247.187C73.5331 247.284 73.2042 247.333 72.8226 247.333H70.4475C70.4556 247.861 70.5124 248.287 70.618 248.612C70.7236 248.928 70.9144 249.16 71.1905 249.306C71.4747 249.444 71.8888 249.513 72.4328 249.513H74.5278V250.098C74.1543 250.146 73.7889 250.187 73.4316 250.219C73.0743 250.252 72.6642 250.268 72.2014 250.268ZM70.4353 246.699H72.7495C73.1149 246.699 73.3829 246.634 73.5534 246.505C73.732 246.366 73.8213 246.123 73.8213 245.774C73.8213 245.4 73.7645 245.112 73.6508 244.909C73.5453 244.698 73.3747 244.552 73.1393 244.47C72.9119 244.381 72.6033 244.336 72.2136 244.336C71.7589 244.336 71.4016 244.406 71.1417 244.544C70.8819 244.673 70.6992 244.909 70.5936 245.25C70.4881 245.591 70.4353 246.074 70.4353 246.699ZM78.5595 250.268C78.3971 250.268 78.1982 250.264 77.9627 250.256C77.7272 250.248 77.4796 250.236 77.2197 250.219C76.968 250.203 76.7366 250.187 76.5255 250.171C76.3225 250.146 76.1641 250.122 76.0505 250.098V249.513H78.7179C78.9858 249.513 79.2173 249.493 79.4121 249.452C79.607 249.411 79.7572 249.322 79.8628 249.184C79.9765 249.046 80.0333 248.839 80.0333 248.563V248.271C80.0333 247.986 79.9399 247.767 79.7532 247.613C79.5664 247.451 79.266 247.369 78.8519 247.369H77.9384C77.5567 247.369 77.2157 247.321 76.9152 247.223C76.6229 247.126 76.3956 246.959 76.2332 246.724C76.0708 246.488 75.9896 246.163 75.9896 245.749V245.408C75.9896 245.002 76.0667 244.669 76.221 244.41C76.3834 244.15 76.631 243.955 76.964 243.825C77.305 243.695 77.7435 243.63 78.2794 243.63C78.5068 243.63 78.7666 243.638 79.0589 243.654C79.3594 243.671 79.6517 243.695 79.9359 243.727C80.2201 243.752 80.4515 243.78 80.6301 243.813V244.397H78.1211C77.7069 244.397 77.3862 244.466 77.1588 244.604C76.9396 244.742 76.83 245.01 76.83 245.408V245.676C76.83 245.928 76.8828 246.119 76.9883 246.249C77.0939 246.371 77.24 246.452 77.4268 246.492C77.6217 246.533 77.845 246.553 78.0967 246.553H79.0224C79.6151 246.553 80.0739 246.691 80.3987 246.967C80.7235 247.243 80.8859 247.641 80.8859 248.161V248.612C80.8859 249.05 80.7844 249.391 80.5814 249.635C80.3865 249.87 80.1145 250.037 79.7654 250.134C79.4243 250.223 79.0224 250.268 78.5595 250.268ZM84.7835 250.268C84.4181 250.268 84.0771 250.219 83.7604 250.122C83.4437 250.025 83.1676 249.854 82.9322 249.61C82.6967 249.367 82.514 249.03 82.3841 248.599C82.2541 248.169 82.1892 247.621 82.1892 246.955C82.1892 246.281 82.2501 245.729 82.3719 245.299C82.4937 244.86 82.6683 244.519 82.8956 244.276C83.123 244.032 83.3991 243.861 83.7239 243.764C84.0487 243.667 84.41 243.618 84.8079 243.618C85.1327 243.618 85.4859 243.634 85.8675 243.667C86.2492 243.691 86.6146 243.732 86.9637 243.788V244.361H85.0637C84.6495 244.361 84.3004 244.43 84.0162 244.568C83.732 244.706 83.5168 244.966 83.3706 245.347C83.2245 245.721 83.1514 246.265 83.1514 246.98C83.1514 247.67 83.2285 248.198 83.3828 248.563C83.5371 248.928 83.7563 249.18 84.0405 249.318C84.3247 249.448 84.6698 249.513 85.0758 249.513H87.0612V250.073C86.8744 250.106 86.6552 250.138 86.4035 250.171C86.1599 250.203 85.9 250.228 85.6239 250.244C85.3479 250.26 85.0677 250.268 84.7835 250.268ZM88.4038 250.195V243.691H89.1346L89.3661 244.824C89.6584 244.475 89.9832 244.186 90.3405 243.959C90.7059 243.732 91.124 243.618 91.595 243.618C91.7087 243.618 91.8142 243.622 91.9117 243.63C92.0172 243.638 92.1147 243.654 92.204 243.679V244.665C92.0984 244.649 91.9848 244.637 91.863 244.629C91.7412 244.613 91.6194 244.604 91.4976 244.604C91.1971 244.604 90.9292 244.641 90.6937 244.714C90.4582 244.787 90.2349 244.897 90.0238 245.043C89.8127 245.189 89.5934 245.368 89.3661 245.579V250.195H88.4038ZM93.5817 242.534C93.4517 242.534 93.3868 242.469 93.3868 242.339V241.389C93.3868 241.259 93.4517 241.194 93.5817 241.194H94.2637C94.3287 241.194 94.3734 241.214 94.3977 241.255C94.4302 241.287 94.4464 241.332 94.4464 241.389V242.339C94.4464 242.469 94.3855 242.534 94.2637 242.534H93.5817ZM93.4355 250.195V243.691H94.3977V250.195H93.4355ZM96.2667 253.082V243.691H97.0462L97.2289 244.361C97.3751 244.255 97.5618 244.146 97.7892 244.032C98.0247 243.91 98.2764 243.809 98.5444 243.727C98.8204 243.646 99.0925 243.606 99.3604 243.606C99.7827 243.606 100.14 243.699 100.432 243.886C100.733 244.064 100.976 244.308 101.163 244.617C101.35 244.925 101.484 245.278 101.565 245.676C101.646 246.074 101.687 246.492 101.687 246.931C101.687 247.662 101.602 248.279 101.431 248.782C101.269 249.278 101.017 249.651 100.676 249.903C100.335 250.154 99.8963 250.28 99.3604 250.28C98.995 250.28 98.6256 250.223 98.252 250.11C97.8866 249.988 97.5456 249.838 97.2289 249.659V253.082H96.2667ZM99.0925 249.464C99.401 249.464 99.6771 249.387 99.9207 249.233C100.164 249.079 100.359 248.819 100.505 248.453C100.651 248.08 100.725 247.572 100.725 246.931C100.725 246.322 100.647 245.835 100.493 245.469C100.339 245.096 100.14 244.828 99.8963 244.665C99.6527 244.495 99.3848 244.41 99.0925 244.41C98.7189 244.41 98.3738 244.47 98.0572 244.592C97.7486 244.706 97.4725 244.828 97.2289 244.958V248.941C97.5131 249.095 97.8136 249.221 98.1302 249.318C98.455 249.416 98.7758 249.464 99.0925 249.464ZM105.476 250.195C105.054 250.195 104.705 250.126 104.429 249.988C104.153 249.85 103.95 249.627 103.82 249.318C103.69 249.01 103.629 248.599 103.637 248.088L103.674 244.483H102.638V243.861L103.686 243.691L103.844 241.876H104.587V243.691H106.463V244.483H104.587V248.088C104.587 248.372 104.616 248.599 104.672 248.77C104.737 248.941 104.819 249.07 104.916 249.16C105.022 249.249 105.131 249.314 105.245 249.355C105.359 249.387 105.468 249.407 105.574 249.416L106.365 249.489V250.195H105.476ZM107.951 242.534C107.821 242.534 107.756 242.469 107.756 242.339V241.389C107.756 241.259 107.821 241.194 107.951 241.194H108.633C108.698 241.194 108.743 241.214 108.767 241.255C108.8 241.287 108.816 241.332 108.816 241.389V242.339C108.816 242.469 108.755 242.534 108.633 242.534H107.951ZM107.805 250.195V243.691H108.767V250.195H107.805ZM113.218 250.268C112.747 250.268 112.333 250.219 111.976 250.122C111.627 250.025 111.334 249.854 111.099 249.61C110.864 249.367 110.689 249.03 110.575 248.599C110.462 248.161 110.405 247.605 110.405 246.931C110.405 246.249 110.462 245.693 110.575 245.262C110.689 244.824 110.864 244.487 111.099 244.251C111.334 244.008 111.627 243.841 111.976 243.752C112.333 243.654 112.747 243.606 113.218 243.606C113.689 243.606 114.099 243.654 114.448 243.752C114.806 243.849 115.102 244.02 115.338 244.263C115.573 244.499 115.748 244.836 115.861 245.274C115.983 245.705 116.044 246.257 116.044 246.931C116.044 247.613 115.983 248.173 115.861 248.612C115.748 249.042 115.573 249.379 115.338 249.623C115.11 249.858 114.818 250.025 114.461 250.122C114.103 250.219 113.689 250.268 113.218 250.268ZM113.218 249.476C113.519 249.476 113.783 249.448 114.01 249.391C114.245 249.334 114.44 249.221 114.595 249.05C114.749 248.88 114.867 248.624 114.948 248.283C115.029 247.942 115.07 247.491 115.07 246.931C115.07 246.362 115.029 245.912 114.948 245.579C114.867 245.246 114.749 244.994 114.595 244.824C114.44 244.653 114.245 244.539 114.01 244.483C113.783 244.426 113.519 244.397 113.218 244.397C112.91 244.397 112.642 244.426 112.414 244.483C112.187 244.539 111.996 244.653 111.842 244.824C111.688 244.994 111.57 245.246 111.489 245.579C111.408 245.912 111.367 246.362 111.367 246.931C111.367 247.491 111.408 247.942 111.489 248.283C111.57 248.624 111.688 248.88 111.842 249.05C111.996 249.221 112.187 249.334 112.414 249.391C112.642 249.448 112.91 249.476 113.218 249.476ZM117.678 250.195V243.691H118.433L118.64 244.41C118.949 244.19 119.31 244 119.724 243.837C120.138 243.667 120.569 243.581 121.015 243.581C121.494 243.581 121.88 243.683 122.172 243.886C122.465 244.089 122.68 244.357 122.818 244.69C122.956 245.023 123.025 245.384 123.025 245.774V250.195H122.063V245.883C122.063 245.607 122.006 245.364 121.892 245.153C121.787 244.933 121.632 244.763 121.429 244.641C121.235 244.519 120.991 244.458 120.699 244.458C120.431 244.458 120.179 244.487 119.943 244.544C119.716 244.592 119.497 244.665 119.286 244.763C119.083 244.852 118.868 244.962 118.64 245.092V250.195H117.678Z" fill="black" fill-opacity="0.5"/>
<rect x="46.54" y="715.245" width="332.92" height="52.78" rx="10.15" fill="#004579"/>
<path d="M141.176 745.485L144.473 734.97H147.13L150.427 745.485H148.239L147.571 743.283H143.99L143.336 745.485H141.176ZM144.487 741.393H147.073L145.78 736.774L144.487 741.393ZM151.589 736.732C151.39 736.732 151.291 736.637 151.291 736.448V735.055C151.291 734.856 151.39 734.757 151.589 734.757H153.209C153.304 734.757 153.37 734.785 153.408 734.842C153.456 734.899 153.479 734.97 153.479 735.055V736.448C153.479 736.637 153.389 736.732 153.209 736.732H151.589ZM151.348 748.853V737.854H153.451V745.428C153.451 746.025 153.403 746.631 153.309 747.247C153.223 747.872 153.1 748.408 152.939 748.853H151.348ZM158.349 745.556C157.724 745.556 157.189 745.495 156.744 745.371C156.298 745.239 155.934 745.021 155.649 744.718C155.375 744.415 155.171 744.012 155.038 743.51C154.915 743.008 154.854 742.387 154.854 741.648C154.854 740.872 154.915 740.232 155.038 739.73C155.171 739.218 155.375 738.821 155.649 738.536C155.934 738.243 156.298 738.039 156.744 737.925C157.198 737.802 157.733 737.741 158.349 737.741C158.984 737.741 159.524 737.802 159.969 737.925C160.414 738.049 160.774 738.257 161.049 738.551C161.333 738.835 161.537 739.233 161.66 739.744C161.793 740.246 161.859 740.881 161.859 741.648C161.859 742.406 161.798 743.041 161.674 743.553C161.551 744.055 161.352 744.453 161.078 744.746C160.803 745.04 160.438 745.248 159.983 745.371C159.538 745.495 158.993 745.556 158.349 745.556ZM158.349 743.879C158.605 743.879 158.818 743.856 158.989 743.808C159.169 743.761 159.311 743.666 159.415 743.524C159.529 743.373 159.614 743.145 159.671 742.842C159.728 742.539 159.756 742.141 159.756 741.648C159.756 741.146 159.728 740.748 159.671 740.455C159.614 740.152 159.529 739.929 159.415 739.787C159.311 739.635 159.169 739.536 158.989 739.488C158.818 739.441 158.605 739.417 158.349 739.417C158.103 739.417 157.89 739.441 157.71 739.488C157.539 739.536 157.397 739.635 157.284 739.787C157.17 739.929 157.085 740.152 157.028 740.455C156.98 740.748 156.957 741.146 156.957 741.648C156.957 742.141 156.98 742.539 157.028 742.842C157.085 743.145 157.17 743.373 157.284 743.524C157.397 743.666 157.539 743.761 157.71 743.808C157.89 743.856 158.103 743.879 158.349 743.879ZM165.429 745.57C164.747 745.57 164.211 745.371 163.823 744.974C163.434 744.566 163.24 743.993 163.24 743.254V737.854H165.343V742.629C165.343 743.055 165.443 743.344 165.642 743.496C165.85 743.638 166.12 743.709 166.452 743.709C166.717 743.709 166.987 743.661 167.262 743.567C167.546 743.463 167.797 743.325 168.015 743.155V737.854H170.132V745.485H168.384L168.015 744.704C167.674 744.931 167.281 745.135 166.835 745.315C166.39 745.485 165.921 745.57 165.429 745.57ZM174.633 745.485C174.045 745.485 173.567 745.4 173.198 745.229C172.838 745.059 172.577 744.775 172.416 744.377C172.255 743.979 172.184 743.444 172.203 742.771L172.274 739.545H171.08V738.195L172.345 737.854L172.629 735.723H174.292V737.854H176.082V739.545H174.292V742.757C174.292 742.965 174.311 743.136 174.349 743.268C174.387 743.401 174.439 743.51 174.505 743.595C174.581 743.671 174.666 743.728 174.761 743.766C174.855 743.804 174.95 743.827 175.045 743.837L176.011 743.922V745.485H174.633ZM180.483 745.556C179.64 745.556 178.967 745.447 178.465 745.229C177.963 745.002 177.598 744.604 177.371 744.036C177.153 743.467 177.044 742.681 177.044 741.677C177.044 740.644 177.148 739.844 177.356 739.275C177.565 738.707 177.915 738.309 178.408 738.082C178.901 737.854 179.568 737.741 180.412 737.741C181.169 737.741 181.776 737.816 182.23 737.968C182.685 738.12 183.012 738.385 183.211 738.764C183.419 739.143 183.524 739.678 183.524 740.37C183.524 740.881 183.419 741.288 183.211 741.592C183.012 741.885 182.728 742.098 182.358 742.231C181.989 742.354 181.553 742.416 181.051 742.416H179.133C179.152 742.804 179.209 743.117 179.303 743.354C179.407 743.581 179.592 743.747 179.857 743.851C180.132 743.946 180.525 743.993 181.037 743.993H183.268V745.229C182.898 745.305 182.491 745.381 182.046 745.457C181.61 745.523 181.089 745.556 180.483 745.556ZM179.104 741.165H180.838C181.122 741.165 181.331 741.108 181.463 740.995C181.596 740.881 181.662 740.677 181.662 740.384C181.662 740.109 181.619 739.891 181.534 739.73C181.449 739.56 181.316 739.441 181.136 739.375C180.956 739.299 180.715 739.261 180.412 739.261C180.09 739.261 179.834 739.318 179.644 739.432C179.455 739.536 179.317 739.725 179.232 740C179.147 740.275 179.104 740.663 179.104 741.165ZM184.918 745.485V737.854H186.538L187.021 739.02C187.296 738.669 187.603 738.371 187.944 738.124C188.295 737.878 188.707 737.755 189.181 737.755C189.285 737.755 189.389 737.76 189.493 737.769C189.607 737.779 189.711 737.797 189.806 737.826V739.986C189.664 739.967 189.512 739.953 189.351 739.943C189.2 739.924 189.053 739.915 188.911 739.915C188.636 739.915 188.385 739.948 188.158 740.014C187.94 740.071 187.736 740.161 187.547 740.284C187.367 740.398 187.191 740.55 187.021 740.739V745.485H184.918ZM196.778 745.57C196.096 745.57 195.561 745.371 195.173 744.974C194.784 744.566 194.59 743.993 194.59 743.254V737.854H196.693V742.629C196.693 743.055 196.793 743.344 196.991 743.496C197.2 743.638 197.47 743.709 197.801 743.709C198.067 743.709 198.337 743.661 198.611 743.567C198.896 743.463 199.147 743.325 199.365 743.155V737.854H201.482V745.485H199.734L199.365 744.704C199.024 744.931 198.63 745.135 198.185 745.315C197.74 745.485 197.271 745.57 196.778 745.57ZM203.084 745.485V737.854H204.817L205.187 738.636C205.471 738.399 205.826 738.191 206.253 738.011C206.688 737.821 207.134 737.726 207.588 737.726C208.213 737.726 208.697 737.85 209.038 738.096C209.379 738.342 209.616 738.674 209.748 739.091C209.89 739.498 209.961 739.953 209.961 740.455V745.485H207.858V740.725C207.858 740.478 207.811 740.275 207.716 740.114C207.631 739.953 207.508 739.83 207.347 739.744C207.186 739.659 206.991 739.616 206.764 739.616C206.565 739.616 206.371 739.64 206.181 739.687C206.001 739.735 205.826 739.801 205.656 739.886C205.495 739.972 205.338 740.071 205.187 740.185V745.485H203.084ZM214.76 745.556C213.917 745.556 213.245 745.447 212.743 745.229C212.241 745.002 211.876 744.604 211.648 744.036C211.431 743.467 211.322 742.681 211.322 741.677C211.322 740.644 211.426 739.844 211.634 739.275C211.843 738.707 212.193 738.309 212.686 738.082C213.178 737.854 213.846 737.741 214.689 737.741C215.447 737.741 216.054 737.816 216.508 737.968C216.963 738.12 217.29 738.385 217.489 738.764C217.697 739.143 217.801 739.678 217.801 740.37C217.801 740.881 217.697 741.288 217.489 741.592C217.29 741.885 217.006 742.098 216.636 742.231C216.267 742.354 215.831 742.416 215.329 742.416H213.41C213.429 742.804 213.486 743.117 213.581 743.354C213.685 743.581 213.87 743.747 214.135 743.851C214.41 743.946 214.803 743.993 215.315 743.993H217.546V745.229C217.176 745.305 216.769 745.381 216.324 745.457C215.888 745.523 215.367 745.556 214.76 745.556ZM213.382 741.165H215.116C215.4 741.165 215.608 741.108 215.741 740.995C215.874 740.881 215.94 740.677 215.94 740.384C215.94 740.109 215.897 739.891 215.812 739.73C215.727 739.56 215.594 739.441 215.414 739.375C215.234 739.299 214.993 739.261 214.689 739.261C214.367 739.261 214.111 739.318 213.922 739.432C213.733 739.536 213.595 739.725 213.51 740C213.425 740.275 213.382 740.663 213.382 741.165ZM225.374 745.57C224.777 745.57 224.275 745.447 223.868 745.201C223.461 744.945 223.153 744.538 222.944 743.979C222.745 743.41 222.646 742.667 222.646 741.748C222.646 740.801 222.731 740.033 222.902 739.446C223.082 738.859 223.38 738.427 223.797 738.153C224.214 737.878 224.787 737.741 225.516 737.741C225.867 737.741 226.213 737.779 226.554 737.854C226.895 737.921 227.198 738.001 227.463 738.096V734.643H229.58V745.485H227.804L227.463 744.76C227.302 744.912 227.103 745.049 226.866 745.172C226.639 745.296 226.397 745.395 226.142 745.471C225.886 745.537 225.63 745.57 225.374 745.57ZM226.113 743.879C226.397 743.879 226.653 743.832 226.88 743.737C227.117 743.643 227.311 743.548 227.463 743.453V739.616C227.274 739.55 227.075 739.484 226.866 739.417C226.658 739.351 226.435 739.318 226.198 739.318C225.848 739.318 225.564 739.38 225.346 739.503C225.137 739.626 224.986 739.858 224.891 740.199C224.796 740.531 224.749 741.014 224.749 741.648C224.749 742.236 224.792 742.695 224.877 743.027C224.972 743.349 225.118 743.571 225.317 743.695C225.516 743.818 225.782 743.879 226.113 743.879ZM234.383 745.556C233.54 745.556 232.868 745.447 232.366 745.229C231.864 745.002 231.499 744.604 231.271 744.036C231.054 743.467 230.945 742.681 230.945 741.677C230.945 740.644 231.049 739.844 231.257 739.275C231.466 738.707 231.816 738.309 232.309 738.082C232.801 737.854 233.469 737.741 234.312 737.741C235.07 737.741 235.677 737.816 236.131 737.968C236.586 738.12 236.913 738.385 237.112 738.764C237.32 739.143 237.424 739.678 237.424 740.37C237.424 740.881 237.32 741.288 237.112 741.592C236.913 741.885 236.629 742.098 236.259 742.231C235.89 742.354 235.454 742.416 234.952 742.416H233.033C233.052 742.804 233.109 743.117 233.204 743.354C233.308 743.581 233.493 743.747 233.758 743.851C234.033 743.946 234.426 743.993 234.938 743.993H237.169V745.229C236.799 745.305 236.392 745.381 235.947 745.457C235.511 745.523 234.99 745.556 234.383 745.556ZM233.005 741.165H234.739C235.023 741.165 235.231 741.108 235.364 740.995C235.497 740.881 235.563 740.677 235.563 740.384C235.563 740.109 235.52 739.891 235.435 739.73C235.35 739.56 235.217 739.441 235.037 739.375C234.857 739.299 234.616 739.261 234.312 739.261C233.99 739.261 233.734 739.318 233.545 739.432C233.356 739.536 233.218 739.725 233.133 740C233.048 740.275 233.005 740.663 233.005 741.165ZM238.818 745.485V737.854H240.552L240.922 738.636C241.253 738.39 241.613 738.176 242.002 737.996C242.399 737.816 242.887 737.726 243.465 737.726C243.948 737.726 244.346 737.826 244.659 738.025C244.981 738.224 245.222 738.484 245.384 738.806C245.601 738.636 245.852 738.47 246.137 738.309C246.43 738.148 246.743 738.011 247.075 737.897C247.406 737.783 247.733 737.726 248.055 737.726C248.671 737.726 249.154 737.845 249.504 738.082C249.864 738.309 250.115 738.636 250.258 739.062C250.4 739.479 250.471 739.972 250.471 740.54V745.485H248.368V740.725C248.368 740.478 248.32 740.275 248.226 740.114C248.14 739.953 248.017 739.83 247.856 739.744C247.695 739.659 247.501 739.616 247.273 739.616C246.989 739.616 246.7 739.678 246.407 739.801C246.122 739.915 245.867 740.052 245.639 740.213C245.658 740.308 245.672 740.403 245.682 740.497C245.691 740.583 245.696 740.673 245.696 740.767V745.485H243.593V740.725C243.593 740.478 243.546 740.275 243.451 740.114C243.366 739.953 243.243 739.83 243.082 739.744C242.92 739.659 242.726 739.616 242.499 739.616C242.3 739.616 242.106 739.64 241.916 739.687C241.736 739.735 241.561 739.801 241.391 739.886C241.229 739.972 241.073 740.071 240.922 740.185V745.485H238.818ZM253.677 745.57C253.1 745.57 252.631 745.4 252.271 745.059C251.911 744.718 251.731 744.244 251.731 743.638V742.956C251.731 742.378 251.934 741.904 252.342 741.535C252.749 741.156 253.384 740.966 254.246 740.966H256.193V740.441C256.193 740.204 256.15 740.01 256.065 739.858C255.979 739.697 255.818 739.583 255.582 739.517C255.354 739.441 255.004 739.403 254.53 739.403H252.242V738.181C252.612 738.067 253.038 737.968 253.521 737.883C254.014 737.797 254.606 737.755 255.297 737.755C255.932 737.755 256.472 737.831 256.917 737.982C257.372 738.134 257.713 738.394 257.94 738.764C258.177 739.133 258.296 739.645 258.296 740.298V745.485H256.633L256.292 744.675C256.226 744.751 256.112 744.836 255.951 744.931C255.79 745.026 255.591 745.125 255.354 745.229C255.127 745.324 254.866 745.405 254.573 745.471C254.288 745.537 253.99 745.57 253.677 745.57ZM254.743 744.107C254.838 744.107 254.942 744.097 255.056 744.078C255.179 744.05 255.302 744.021 255.425 743.993C255.558 743.955 255.676 743.922 255.78 743.894C255.894 743.856 255.984 743.823 256.05 743.794C256.126 743.766 256.174 743.747 256.193 743.737V741.961L254.914 742.046C254.544 742.075 254.269 742.169 254.089 742.33C253.919 742.492 253.834 742.709 253.834 742.984V743.297C253.834 743.486 253.872 743.643 253.947 743.766C254.033 743.889 254.142 743.979 254.274 744.036C254.416 744.083 254.573 744.107 254.743 744.107ZM259.884 745.485V737.854H261.618L261.987 738.636C262.272 738.399 262.627 738.191 263.053 738.011C263.489 737.821 263.934 737.726 264.389 737.726C265.014 737.726 265.497 737.85 265.838 738.096C266.179 738.342 266.416 738.674 266.549 739.091C266.691 739.498 266.762 739.953 266.762 740.455V745.485H264.659V740.725C264.659 740.478 264.612 740.275 264.517 740.114C264.432 739.953 264.308 739.83 264.147 739.744C263.986 739.659 263.792 739.616 263.565 739.616C263.366 739.616 263.172 739.64 262.982 739.687C262.802 739.735 262.627 739.801 262.456 739.886C262.295 739.972 262.139 740.071 261.987 740.185V745.485H259.884ZM270.851 745.57C270.254 745.57 269.752 745.447 269.344 745.201C268.937 744.945 268.629 744.538 268.421 743.979C268.222 743.41 268.122 742.667 268.122 741.748C268.122 740.801 268.208 740.033 268.378 739.446C268.558 738.859 268.856 738.427 269.273 738.153C269.69 737.878 270.263 737.741 270.993 737.741C271.343 737.741 271.689 737.779 272.03 737.854C272.371 737.921 272.674 738.001 272.939 738.096V734.643H275.057V745.485H273.281L272.939 744.76C272.778 744.912 272.579 745.049 272.343 745.172C272.115 745.296 271.874 745.395 271.618 745.471C271.362 745.537 271.106 745.57 270.851 745.57ZM271.59 743.879C271.874 743.879 272.13 743.832 272.357 743.737C272.594 743.643 272.788 743.548 272.939 743.453V739.616C272.75 739.55 272.551 739.484 272.343 739.417C272.134 739.351 271.912 739.318 271.675 739.318C271.324 739.318 271.04 739.38 270.822 739.503C270.614 739.626 270.462 739.858 270.367 740.199C270.273 740.531 270.225 741.014 270.225 741.648C270.225 742.236 270.268 742.695 270.353 743.027C270.448 743.349 270.595 743.571 270.794 743.695C270.993 743.818 271.258 743.879 271.59 743.879ZM279.86 745.556C279.017 745.556 278.344 745.447 277.842 745.229C277.34 745.002 276.975 744.604 276.748 744.036C276.53 743.467 276.421 742.681 276.421 741.677C276.421 740.644 276.525 739.844 276.734 739.275C276.942 738.707 277.293 738.309 277.785 738.082C278.278 737.854 278.946 737.741 279.789 737.741C280.547 737.741 281.153 737.816 281.608 737.968C282.062 738.12 282.389 738.385 282.588 738.764C282.797 739.143 282.901 739.678 282.901 740.37C282.901 740.881 282.797 741.288 282.588 741.592C282.389 741.885 282.105 742.098 281.736 742.231C281.366 742.354 280.93 742.416 280.428 742.416H278.51C278.529 742.804 278.586 743.117 278.68 743.354C278.785 743.581 278.969 743.747 279.235 743.851C279.509 743.946 279.903 743.993 280.414 743.993H282.645V745.229C282.276 745.305 281.868 745.381 281.423 745.457C280.987 745.523 280.466 745.556 279.86 745.556ZM278.482 741.165H280.215C280.499 741.165 280.708 741.108 280.84 740.995C280.973 740.881 281.039 740.677 281.039 740.384C281.039 740.109 280.997 739.891 280.911 739.73C280.826 739.56 280.694 739.441 280.514 739.375C280.334 739.299 280.092 739.261 279.789 739.261C279.467 739.261 279.211 739.318 279.021 739.432C278.832 739.536 278.695 739.725 278.609 740C278.524 740.275 278.482 740.663 278.482 741.165Z" fill="white"/>
<rect x="46.54" y="137.71" width="332.92" height="60.9" rx="10.15" fill="#004579" fill-opacity="0.03"/>
<path d="M63.6245 172.04V164.16H60.9449V163.063H67.5343V164.16H64.8547V172.04H63.6245ZM69.9484 174.927L70.7401 172.04C70.4802 172.032 70.2326 171.979 69.9971 171.882C69.7616 171.776 69.5505 171.61 69.3637 171.382C69.1851 171.147 69.0389 170.834 68.9253 170.444L67.4637 165.524H68.7426L70.058 170.189C70.1311 170.408 70.2123 170.574 70.3016 170.688C70.399 170.802 70.4924 170.883 70.5817 170.932C70.6792 170.972 70.7644 170.997 70.8375 171.005C70.9106 171.013 70.9553 171.017 70.9715 171.017L72.494 165.524H73.7485L71.5074 173.721L70.9228 174.927H69.9484ZM74.818 174.927V165.524H75.8168L76.036 166.181C76.1903 166.068 76.373 165.954 76.5841 165.84C76.8033 165.727 77.0388 165.633 77.2905 165.56C77.5504 165.479 77.8102 165.438 78.0701 165.438C78.4842 165.438 78.8374 165.524 79.1297 165.694C79.4302 165.865 79.6738 166.104 79.8605 166.413C80.0473 166.713 80.1813 167.067 80.2625 167.473C80.3518 167.879 80.3964 168.313 80.3964 168.776C80.3964 169.498 80.3152 170.112 80.1528 170.615C79.9986 171.11 79.7509 171.488 79.4099 171.748C79.0769 171.999 78.6303 172.125 78.0701 172.125C77.729 172.125 77.3799 172.077 77.0226 171.979C76.6653 171.874 76.3364 171.736 76.036 171.565V174.927H74.818ZM77.7047 171.102C77.9807 171.102 78.2284 171.033 78.4476 170.895C78.6669 170.757 78.8415 170.522 78.9714 170.189C79.1094 169.848 79.1784 169.377 79.1784 168.776C79.1784 168.207 79.1094 167.753 78.9714 167.412C78.8333 167.062 78.6547 166.815 78.4355 166.669C78.2162 166.514 77.9767 166.437 77.7168 166.437C77.3758 166.437 77.0632 166.49 76.779 166.596C76.5029 166.701 76.2552 166.811 76.036 166.924V170.639C76.2877 170.777 76.5557 170.891 76.8399 170.98C77.1322 171.062 77.4205 171.102 77.7047 171.102ZM84.4655 172.113C83.7753 172.113 83.2231 172.012 82.809 171.809C82.403 171.606 82.1107 171.265 81.9321 170.785C81.7615 170.298 81.6763 169.628 81.6763 168.776C81.6763 167.907 81.7615 167.233 81.9321 166.754C82.1107 166.267 82.403 165.926 82.809 165.731C83.215 165.536 83.7631 165.438 84.4533 165.438C85.0542 165.438 85.5373 165.503 85.9027 165.633C86.2763 165.755 86.5483 165.978 86.7188 166.303C86.8974 166.62 86.9868 167.062 86.9868 167.631C86.9868 168.029 86.9056 168.345 86.7432 168.581C86.5889 168.816 86.3656 168.987 86.0733 169.092C85.7891 169.198 85.448 169.251 85.0501 169.251H82.8943C82.9024 169.722 82.9552 170.099 83.0526 170.384C83.1582 170.66 83.3409 170.863 83.6007 170.993C83.8687 171.114 84.2584 171.175 84.77 171.175H86.8041V171.906C86.4549 171.955 86.0976 171.999 85.7322 172.04C85.3668 172.089 84.9446 172.113 84.4655 172.113ZM82.8821 168.483H84.9405C85.2653 168.483 85.5049 168.423 85.6591 168.301C85.8134 168.179 85.8906 167.956 85.8906 167.631C85.8906 167.306 85.8418 167.05 85.7444 166.864C85.6551 166.677 85.5049 166.543 85.2937 166.462C85.0826 166.38 84.8025 166.34 84.4533 166.34C84.0554 166.34 83.7388 166.401 83.5033 166.522C83.2759 166.644 83.1135 166.859 83.0161 167.168C82.9268 167.477 82.8821 167.915 82.8821 168.483ZM93.8522 172.113C93.3244 172.113 92.8859 171.999 92.5368 171.772C92.1957 171.545 91.9399 171.191 91.7694 170.712C91.5989 170.225 91.5136 169.6 91.5136 168.837C91.5136 168.033 91.5908 167.383 91.7451 166.888C91.9075 166.384 92.1673 166.019 92.5246 165.792C92.8819 165.556 93.365 165.438 93.974 165.438C94.315 165.438 94.652 165.475 94.9849 165.548C95.326 165.621 95.6224 165.702 95.8741 165.792V162.747H97.0921V172.04H96.0933L95.8741 171.394C95.7442 171.508 95.5655 171.622 95.3382 171.736C95.1108 171.841 94.8672 171.93 94.6074 172.003C94.3475 172.077 94.0958 172.113 93.8522 172.113ZM94.242 171.114C94.5749 171.114 94.8753 171.062 95.1433 170.956C95.4194 170.85 95.663 170.741 95.8741 170.627V166.669C95.6224 166.596 95.3747 166.531 95.1311 166.474C94.8956 166.409 94.6317 166.376 94.3394 166.376C93.9578 166.376 93.6492 166.445 93.4137 166.583C93.1782 166.721 93.0077 166.965 92.9022 167.314C92.7966 167.663 92.7438 168.151 92.7438 168.776C92.7438 169.352 92.7925 169.815 92.89 170.164C92.9874 170.505 93.1458 170.749 93.365 170.895C93.5924 171.041 93.8847 171.114 94.242 171.114ZM101.345 172.113C100.655 172.113 100.102 172.012 99.6882 171.809C99.2822 171.606 98.9899 171.265 98.8113 170.785C98.6407 170.298 98.5555 169.628 98.5555 168.776C98.5555 167.907 98.6407 167.233 98.8113 166.754C98.9899 166.267 99.2822 165.926 99.6882 165.731C100.094 165.536 100.642 165.438 101.333 165.438C101.933 165.438 102.417 165.503 102.782 165.633C103.155 165.755 103.427 165.978 103.598 166.303C103.777 166.62 103.866 167.062 103.866 167.631C103.866 168.029 103.785 168.345 103.622 168.581C103.468 168.816 103.245 168.987 102.952 169.092C102.668 169.198 102.327 169.251 101.929 169.251H99.7735C99.7816 169.722 99.8344 170.099 99.9318 170.384C100.037 170.66 100.22 170.863 100.48 170.993C100.748 171.114 101.138 171.175 101.649 171.175H103.683V171.906C103.334 171.955 102.977 171.999 102.611 172.04C102.246 172.089 101.824 172.113 101.345 172.113ZM99.7613 168.483H101.82C102.145 168.483 102.384 168.423 102.538 168.301C102.693 168.179 102.77 167.956 102.77 167.631C102.77 167.306 102.721 167.05 102.624 166.864C102.534 166.677 102.384 166.543 102.173 166.462C101.962 166.38 101.682 166.34 101.333 166.34C100.935 166.34 100.618 166.401 100.382 166.522C100.155 166.644 99.9927 166.859 99.8953 167.168C99.806 167.477 99.7613 167.915 99.7613 168.483ZM110.427 172.052C110.029 172.052 109.692 171.983 109.416 171.845C109.148 171.707 108.945 171.488 108.807 171.187C108.677 170.879 108.612 170.465 108.612 169.945V162.747H109.83V169.787C109.83 170.128 109.863 170.392 109.928 170.578C110.001 170.757 110.098 170.883 110.22 170.956C110.35 171.029 110.5 171.078 110.67 171.102L111.279 171.175V172.052H110.427ZM113.579 172.113C113.1 172.113 112.702 171.971 112.385 171.687C112.077 171.394 111.923 170.993 111.923 170.481V169.969C111.923 169.466 112.093 169.056 112.434 168.739C112.783 168.414 113.307 168.252 114.005 168.252H116.039V167.57C116.039 167.318 115.995 167.107 115.906 166.937C115.824 166.758 115.67 166.624 115.443 166.535C115.215 166.445 114.878 166.401 114.432 166.401H112.434V165.682C112.727 165.617 113.068 165.56 113.457 165.512C113.855 165.463 114.318 165.434 114.846 165.426C115.382 165.426 115.828 165.495 116.186 165.633C116.551 165.763 116.823 165.983 117.002 166.291C117.18 166.592 117.27 166.993 117.27 167.497V172.04H116.307L116.1 171.321C116.052 171.354 115.95 171.415 115.796 171.504C115.642 171.585 115.443 171.675 115.199 171.772C114.964 171.87 114.704 171.951 114.42 172.016C114.143 172.081 113.863 172.113 113.579 172.113ZM114.139 171.224C114.261 171.232 114.403 171.22 114.566 171.187C114.736 171.155 114.903 171.118 115.065 171.078C115.236 171.029 115.39 170.98 115.528 170.932C115.674 170.883 115.792 170.842 115.881 170.81C115.979 170.769 116.031 170.745 116.039 170.737V168.861L114.334 168.934C113.912 168.958 113.608 169.064 113.421 169.251C113.242 169.438 113.153 169.681 113.153 169.982V170.274C113.153 170.509 113.202 170.7 113.299 170.846C113.396 170.984 113.518 171.082 113.664 171.139C113.819 171.196 113.977 171.224 114.139 171.224ZM124.304 172.113C123.776 172.113 123.338 171.999 122.988 171.772C122.647 171.545 122.392 171.191 122.221 170.712C122.051 170.225 121.965 169.6 121.965 168.837C121.965 168.033 122.042 167.383 122.197 166.888C122.359 166.384 122.619 166.019 122.976 165.792C123.334 165.556 123.817 165.438 124.426 165.438C124.767 165.438 125.104 165.475 125.437 165.548C125.778 165.621 126.074 165.702 126.326 165.792V162.747H127.544V172.04H126.545L126.326 171.394C126.196 171.508 126.017 171.622 125.79 171.736C125.563 171.841 125.319 171.93 125.059 172.003C124.799 172.077 124.548 172.113 124.304 172.113ZM124.694 171.114C125.027 171.114 125.327 171.062 125.595 170.956C125.871 170.85 126.115 170.741 126.326 170.627V166.669C126.074 166.596 125.826 166.531 125.583 166.474C125.347 166.409 125.083 166.376 124.791 166.376C124.409 166.376 124.101 166.445 123.865 166.583C123.63 166.721 123.459 166.965 123.354 167.314C123.248 167.663 123.196 168.151 123.196 168.776C123.196 169.352 123.244 169.815 123.342 170.164C123.439 170.505 123.597 170.749 123.817 170.895C124.044 171.041 124.336 171.114 124.694 171.114ZM131.796 172.113C131.106 172.113 130.554 172.012 130.14 171.809C129.734 171.606 129.442 171.265 129.263 170.785C129.092 170.298 129.007 169.628 129.007 168.776C129.007 167.907 129.092 167.233 129.263 166.754C129.442 166.267 129.734 165.926 130.14 165.731C130.546 165.536 131.094 165.438 131.784 165.438C132.385 165.438 132.868 165.503 133.234 165.633C133.607 165.755 133.879 165.978 134.05 166.303C134.228 166.62 134.318 167.062 134.318 167.631C134.318 168.029 134.236 168.345 134.074 168.581C133.92 168.816 133.697 168.987 133.404 169.092C133.12 169.198 132.779 169.251 132.381 169.251H130.225C130.233 169.722 130.286 170.099 130.384 170.384C130.489 170.66 130.672 170.863 130.932 170.993C131.2 171.114 131.589 171.175 132.101 171.175H134.135V171.906C133.786 171.955 133.429 171.999 133.063 172.04C132.698 172.089 132.276 172.113 131.796 172.113ZM130.213 168.483H132.271C132.596 168.483 132.836 168.423 132.99 168.301C133.144 168.179 133.221 167.956 133.221 167.631C133.221 167.306 133.173 167.05 133.075 166.864C132.986 166.677 132.836 166.543 132.625 166.462C132.414 166.38 132.133 166.34 131.784 166.34C131.386 166.34 131.07 166.401 130.834 166.522C130.607 166.644 130.444 166.859 130.347 167.168C130.258 167.477 130.213 167.915 130.213 168.483ZM135.816 172.04V165.524H136.791L137.034 166.23C137.351 166.011 137.7 165.82 138.082 165.658C138.463 165.495 138.902 165.414 139.397 165.414C139.803 165.414 140.148 165.503 140.433 165.682C140.717 165.861 140.932 166.088 141.078 166.364C141.273 166.218 141.508 166.072 141.785 165.926C142.061 165.78 142.357 165.658 142.674 165.56C142.99 165.463 143.295 165.414 143.587 165.414C144.074 165.414 144.468 165.516 144.769 165.719C145.077 165.913 145.296 166.186 145.426 166.535C145.564 166.876 145.633 167.265 145.633 167.704V172.04H144.415V167.801C144.415 167.542 144.363 167.318 144.257 167.131C144.16 166.937 144.018 166.786 143.831 166.681C143.652 166.575 143.433 166.522 143.173 166.522C142.848 166.522 142.515 166.587 142.174 166.717C141.833 166.839 141.521 166.989 141.236 167.168C141.269 167.274 141.293 167.383 141.309 167.497C141.326 167.602 141.334 167.708 141.334 167.814V172.04H140.116V167.801C140.116 167.542 140.063 167.318 139.958 167.131C139.86 166.937 139.722 166.786 139.543 166.681C139.365 166.575 139.145 166.522 138.886 166.522C138.642 166.522 138.415 166.547 138.204 166.596C138.001 166.644 137.806 166.713 137.619 166.803C137.432 166.884 137.237 166.985 137.034 167.107V172.04H135.816ZM148.622 172.113C148.143 172.113 147.745 171.971 147.428 171.687C147.12 171.394 146.965 170.993 146.965 170.481V169.969C146.965 169.466 147.136 169.056 147.477 168.739C147.826 168.414 148.35 168.252 149.048 168.252H151.082V167.57C151.082 167.318 151.038 167.107 150.948 166.937C150.867 166.758 150.713 166.624 150.485 166.535C150.258 166.445 149.921 166.401 149.474 166.401H147.477V165.682C147.769 165.617 148.11 165.56 148.5 165.512C148.898 165.463 149.361 165.434 149.889 165.426C150.424 165.426 150.871 165.495 151.228 165.633C151.594 165.763 151.866 165.983 152.044 166.291C152.223 166.592 152.312 166.993 152.312 167.497V172.04H151.35L151.143 171.321C151.094 171.354 150.993 171.415 150.839 171.504C150.684 171.585 150.485 171.675 150.242 171.772C150.006 171.87 149.746 171.951 149.462 172.016C149.186 172.081 148.906 172.113 148.622 172.113ZM149.182 171.224C149.304 171.232 149.446 171.22 149.608 171.187C149.779 171.155 149.945 171.118 150.108 171.078C150.278 171.029 150.433 170.98 150.571 170.932C150.717 170.883 150.835 170.842 150.924 170.81C151.021 170.769 151.074 170.745 151.082 170.737V168.861L149.377 168.934C148.955 168.958 148.65 169.064 148.464 169.251C148.285 169.438 148.196 169.681 148.196 169.982V170.274C148.196 170.509 148.244 170.7 148.342 170.846C148.439 170.984 148.561 171.082 148.707 171.139C148.861 171.196 149.02 171.224 149.182 171.224ZM153.98 172.04V165.524H154.954L155.198 166.23C155.49 166.019 155.835 165.832 156.233 165.67C156.639 165.499 157.057 165.414 157.488 165.414C157.975 165.414 158.365 165.52 158.657 165.731C158.957 165.934 159.173 166.206 159.302 166.547C159.432 166.888 159.497 167.257 159.497 167.655V172.04H158.279V167.801C158.279 167.542 158.227 167.318 158.121 167.131C158.024 166.937 157.886 166.786 157.707 166.681C157.528 166.575 157.309 166.522 157.049 166.522C156.806 166.522 156.578 166.547 156.367 166.596C156.164 166.644 155.969 166.713 155.782 166.803C155.596 166.884 155.401 166.985 155.198 167.107V172.04H153.98ZM163.296 172.113C162.768 172.113 162.329 171.999 161.98 171.772C161.639 171.545 161.383 171.191 161.213 170.712C161.042 170.225 160.957 169.6 160.957 168.837C160.957 168.033 161.034 167.383 161.188 166.888C161.351 166.384 161.611 166.019 161.968 165.792C162.325 165.556 162.808 165.438 163.417 165.438C163.758 165.438 164.095 165.475 164.428 165.548C164.769 165.621 165.066 165.702 165.318 165.792V162.747H166.536V172.04H165.537L165.318 171.394C165.188 171.508 165.009 171.622 164.782 171.736C164.554 171.841 164.311 171.93 164.051 172.003C163.791 172.077 163.539 172.113 163.296 172.113ZM163.685 171.114C164.018 171.114 164.319 171.062 164.587 170.956C164.863 170.85 165.106 170.741 165.318 170.627V166.669C165.066 166.596 164.818 166.531 164.575 166.474C164.339 166.409 164.075 166.376 163.783 166.376C163.401 166.376 163.093 166.445 162.857 166.583C162.622 166.721 162.451 166.965 162.346 167.314C162.24 167.663 162.187 168.151 162.187 168.776C162.187 169.352 162.236 169.815 162.333 170.164C162.431 170.505 162.589 170.749 162.808 170.895C163.036 171.041 163.328 171.114 163.685 171.114ZM170.788 172.113C170.098 172.113 169.546 172.012 169.132 171.809C168.726 171.606 168.433 171.265 168.255 170.785C168.084 170.298 167.999 169.628 167.999 168.776C167.999 167.907 168.084 167.233 168.255 166.754C168.433 166.267 168.726 165.926 169.132 165.731C169.538 165.536 170.086 165.438 170.776 165.438C171.377 165.438 171.86 165.503 172.225 165.633C172.599 165.755 172.871 165.978 173.041 166.303C173.22 166.62 173.309 167.062 173.309 167.631C173.309 168.029 173.228 168.345 173.066 168.581C172.912 168.816 172.688 168.987 172.396 169.092C172.112 169.198 171.771 169.251 171.373 169.251H169.217C169.225 169.722 169.278 170.099 169.375 170.384C169.481 170.66 169.664 170.863 169.923 170.993C170.191 171.114 170.581 171.175 171.093 171.175H173.127V171.906C172.778 171.955 172.42 171.999 172.055 172.04C171.689 172.089 171.267 172.113 170.788 172.113ZM169.205 168.483H171.263C171.588 168.483 171.827 168.423 171.982 168.301C172.136 168.179 172.213 167.956 172.213 167.631C172.213 167.306 172.164 167.05 172.067 166.864C171.978 166.677 171.827 166.543 171.616 166.462C171.405 166.38 171.125 166.34 170.776 166.34C170.378 166.34 170.061 166.401 169.826 166.522C169.599 166.644 169.436 166.859 169.339 167.168C169.249 167.477 169.205 167.915 169.205 168.483Z" fill="black"/>
<path d="M353.726 172.579C353.924 172.777 354.246 172.777 354.444 172.579L357.674 169.349C357.872 169.151 357.872 168.83 357.674 168.631C357.475 168.433 357.154 168.433 356.956 168.631L354.085 171.502L351.214 168.631C351.016 168.433 350.695 168.433 350.496 168.631C350.298 168.83 350.298 169.151 350.496 169.349L353.726 172.579ZM353.577 165.115L353.577 172.22L354.592 172.22L354.592 165.115L353.577 165.115Z" fill="black"/>
<rect x="17" y="14" width="391" height="828" rx="48" stroke="black" stroke-width="20"/>
<defs>
<filter id="filter0_i_505_1011" x="3" y="0" width="419" height="856" filterUnits="userSpaceOnUse" color-interpolation-filters="sRGB">
<feFlood flood-opacity="0" result="BackgroundImageFix"/>
<feBlend mode="normal" in="SourceGraphic" in2="BackgroundImageFix" result="shape"/>
<feColorMatrix in="SourceAlpha" type="matrix" values="0 0 0 0 0 0 0 0 0 0 0 0 0 0 0 0 0 0 127 0" result="hardAlpha"/>
<feOffset/>
<feGaussianBlur stdDeviation="4"/>
<feComposite in2="hardAlpha" operator="arithmetic" k2="-1" k3="1"/>
<feColorMatrix type="matrix" values="0 0 0 0 1 0 0 0 0 1 0 0 0 0 1 0 0 0 0.9 0"/>
<feBlend mode="normal" in2="shape" result="effect1_innerShadow_505_1011"/>
</filter>
<filter id="filter1_i_505_1011" x="0" y="136" width="4" height="30" filterUnits="userSpaceOnUse" color-interpolation-filters="sRGB">
<feFlood flood-opacity="0" result="BackgroundImageFix"/>
<feBlend mode="normal" in="SourceGraphic" in2="BackgroundImageFix" result="shape"/>
<feColorMatrix in="SourceAlpha" type="matrix" values="0 0 0 0 0 0 0 0 0 0 0 0 0 0 0 0 0 0 127 0" result="hardAlpha"/>
<feOffset dx="1"/>
<feGaussianBlur stdDeviation="1"/>
<feComposite in2="hardAlpha" operator="arithmetic" k2="-1" k3="1"/>
<feColorMatrix type="matrix" values="0 0 0 0 1 0 0 0 0 1 0 0 0 0 1 0 0 0 0.5 0"/>
<feBlend mode="normal" in2="shape" result="effect1_innerShadow_505_1011"/>
</filter>
<filter id="filter2_i_505_1011" x="0" y="198" width="4" height="62" filterUnits="userSpaceOnUse" color-interpolation-filters="sRGB">
<feFlood flood-opacity="0" result="BackgroundImageFix"/>
<feBlend mode="normal" in="SourceGraphic" in2="BackgroundImageFix" result="shape"/>
<feColorMatrix in="SourceAlpha" type="matrix" values="0 0 0 0 0 0 0 0 0 0 0 0 0 0 0 0 0 0 127 0" result="hardAlpha"/>
<feOffset dx="1"/>
<feGaussianBlur stdDeviation="1"/>
<feComposite in2="hardAlpha" operator="arithmetic" k2="-1" k3="1"/>
<feColorMatrix type="matrix" values="0 0 0 0 1 0 0 0 0 1 0 0 0 0 1 0 0 0 0.5 0"/>
<feBlend mode="normal" in2="shape" result="effect1_innerShadow_505_1011"/>
</filter>
<filter id="filter3_i_505_1011" x="0" y="278" width="4" height="62" filterUnits="userSpaceOnUse" color-interpolation-filters="sRGB">
<feFlood flood-opacity="0" result="BackgroundImageFix"/>
<feBlend mode="normal" in="SourceGraphic" in2="BackgroundImageFix" result="shape"/>
<feColorMatrix in="SourceAlpha" type="matrix" values="0 0 0 0 0 0 0 0 0 0 0 0 0 0 0 0 0 0 127 0" result="hardAlpha"/>
<feOffset dx="1"/>
<feGaussianBlur stdDeviation="1"/>
<feComposite in2="hardAlpha" operator="arithmetic" k2="-1" k3="1"/>
<feColorMatrix type="matrix" values="0 0 0 0 1 0 0 0 0 1 0 0 0 0 1 0 0 0 0.5 0"/>
<feBlend mode="normal" in2="shape" result="effect1_innerShadow_505_1011"/>
</filter>
<filter id="filter4_i_505_1011" x="421" y="220" width="4" height="100" filterUnits="userSpaceOnUse" color-interpolation-filters="sRGB">
<feFlood flood-opacity="0" result="BackgroundImageFix"/>
<feBlend mode="normal" in="SourceGraphic" in2="BackgroundImageFix" result="shape"/>
<feColorMatrix in="SourceAlpha" type="matrix" values="0 0 0 0 0 0 0 0 0 0 0 0 0 0 0 0 0 0 127 0" result="hardAlpha"/>
<feOffset dx="-1"/>
<feGaussianBlur stdDeviation="1"/>
<feComposite in2="hardAlpha" operator="arithmetic" k2="-1" k3="1"/>
<feColorMatrix type="matrix" values="0 0 0 0 1 0 0 0 0 1 0 0 0 0 1 0 0 0 0.5 0"/>
<feBlend mode="normal" in2="shape" result="effect1_innerShadow_505_1011"/>
</filter>
<linearGradient id="paint0_linear_505_1011" x1="212.5" y1="0" x2="212.5" y2="856" gradientUnits="userSpaceOnUse">
<stop stop-color="white" stop-opacity="0.6"/>
<stop offset="1" stop-color="white" stop-opacity="0.3"/>
</linearGradient>
</defs>
</svg>
